<?xml version="1.0" encoding="UTF-8" standalone="no"?><svg xmlns="http://www.w3.org/2000/svg" xmlns:xlink="http://www.w3.org/1999/xlink" contentScriptType="application/ecmascript" contentStyleType="text/css" height="454px" preserveAspectRatio="none" style="width:3199px;height:454px;" version="1.1" viewBox="0 0 3199 454" width="3199px" zoomAndPan="magnify"><defs><filter height="300%" id="fcypb2i647c0z" width="300%" x="-1" y="-1"><feGaussianBlur result="blurOut" stdDeviation="2.0"/><feColorMatrix in="blurOut" result="blurOut2" type="matrix" values="0 0 0 0 0 0 0 0 0 0 0 0 0 0 0 0 0 0 .4 0"/><feOffset dx="4.0" dy="4.0" in="blurOut2" result="blurOut3"/><feBlend in="SourceGraphic" in2="blurOut3" mode="normal"/></filter></defs><g><!--MD5=[761682bbfa9237f46bd8c094d08d8598]
entity github.com/titpetric/exp/cmd/go-fsck--><rect fill="#FEFECE" filter="url(#fcypb2i647c0z)" height="39.0679" style="stroke: #A80036; stroke-width: 1.5;" width="271" x="1458" y="8"/><rect fill="#FEFECE" height="5" style="stroke: #A80036; stroke-width: 1.5;" width="10" x="1453" y="13"/><rect fill="#FEFECE" height="5" style="stroke: #A80036; stroke-width: 1.5;" width="10" x="1453" y="37.0679"/><text fill="#000000" font-family="sans-serif" font-size="14" lengthAdjust="spacingAndGlyphs" textLength="251" x="1468" y="32.9659">github.com/titpetric/exp/cmd/go-fsck</text><!--MD5=[eea466aebb582e573aa7c6451fd1a686]
entity github.com/titpetric/exp/cmd/go-fsck/lint--><rect fill="#FEFECE" filter="url(#fcypb2i647c0z)" height="39.0679" style="stroke: #A80036; stroke-width: 1.5;" width="298" x="1786.5" y="107"/><rect fill="#FEFECE" height="5" style="stroke: #A80036; stroke-width: 1.5;" width="10" x="1781.5" y="112"/><rect fill="#FEFECE" height="5" style="stroke: #A80036; stroke-width: 1.5;" width="10" x="1781.5" y="136.0679"/><text fill="#000000" font-family="sans-serif" font-size="14" lengthAdjust="spacingAndGlyphs" textLength="278" x="1796.5" y="131.9659">github.com/titpetric/exp/cmd/go-fsck/lint</text><!--MD5=[dcb4ce1b25c3e0cd30625f733b723264]
entity github.com/titpetric/exp/cmd/go-fsck/coverage--><rect fill="#FEFECE" filter="url(#fcypb2i647c0z)" height="39.0679" style="stroke: #A80036; stroke-width: 1.5;" width="337" x="2120" y="107"/><rect fill="#FEFECE" height="5" style="stroke: #A80036; stroke-width: 1.5;" width="10" x="2115" y="112"/><rect fill="#FEFECE" height="5" style="stroke: #A80036; stroke-width: 1.5;" width="10" x="2115" y="136.0679"/><text fill="#000000" font-family="sans-serif" font-size="14" lengthAdjust="spacingAndGlyphs" textLength="317" x="2130" y="131.9659">github.com/titpetric/exp/cmd/go-fsck/coverage</text><!--MD5=[2d65047186c610346319e0887c2cef6e]
entity github.com/titpetric/exp/cmd/go-fsck/extract--><rect fill="#FEFECE" filter="url(#fcypb2i647c0z)" height="39.0679" style="stroke: #A80036; stroke-width: 1.5;" width="322" x="380.5" y="107"/><rect fill="#FEFECE" height="5" style="stroke: #A80036; stroke-width: 1.5;" width="10" x="375.5" y="112"/><rect fill="#FEFECE" height="5" style="stroke: #A80036; stroke-width: 1.5;" width="10" x="375.5" y="136.0679"/><text fill="#000000" font-family="sans-serif" font-size="14" lengthAdjust="spacingAndGlyphs" textLength="302" x="390.5" y="131.9659">github.com/titpetric/exp/cmd/go-fsck/extract</text><!--MD5=[9ea53d92278e4d127670b3231a8d570a]
entity github.com/titpetric/exp/cmd/go-fsck/stats--><rect fill="#FEFECE" filter="url(#fcypb2i647c0z)" height="39.0679" style="stroke: #A80036; stroke-width: 1.5;" width="308" x="37.5" y="107"/><rect fill="#FEFECE" height="5" style="stroke: #A80036; stroke-width: 1.5;" width="10" x="32.5" y="112"/><rect fill="#FEFECE" height="5" style="stroke: #A80036; stroke-width: 1.5;" width="10" x="32.5" y="136.0679"/><text fill="#000000" font-family="sans-serif" font-size="14" lengthAdjust="spacingAndGlyphs" textLength="288" x="47.5" y="131.9659">github.com/titpetric/exp/cmd/go-fsck/stats</text><!--MD5=[1f7300a3fc19e6bc1eefff8e02cf6294]
entity github.com/titpetric/exp/cmd/go-fsck/docs--><rect fill="#FEFECE" filter="url(#fcypb2i647c0z)" height="39.0679" style="stroke: #A80036; stroke-width: 1.5;" width="307" x="738" y="107"/><rect fill="#FEFECE" height="5" style="stroke: #A80036; stroke-width: 1.5;" width="10" x="733" y="112"/><rect fill="#FEFECE" height="5" style="stroke: #A80036; stroke-width: 1.5;" width="10" x="733" y="136.0679"/><text fill="#000000" font-family="sans-serif" font-size="14" lengthAdjust="spacingAndGlyphs" textLength="287" x="748" y="131.9659">github.com/titpetric/exp/cmd/go-fsck/docs</text><!--MD5=[6c7af58308b9ee726cf23312dff80c14]
entity github.com/titpetric/exp/cmd/go-fsck/search--><rect fill="#FEFECE" filter="url(#fcypb2i647c0z)" height="39.0679" style="stroke: #A80036; stroke-width: 1.5;" width="321" x="1080" y="107"/><rect fill="#FEFECE" height="5" style="stroke: #A80036; stroke-width: 1.5;" width="10" x="1075" y="112"/><rect fill="#FEFECE" height="5" style="stroke: #A80036; stroke-width: 1.5;" width="10" x="1075" y="136.0679"/><text fill="#000000" font-family="sans-serif" font-size="14" lengthAdjust="spacingAndGlyphs" textLength="301" x="1090" y="131.9659">github.com/titpetric/exp/cmd/go-fsck/search</text><!--MD5=[5aa7044db0c26b0409f8f5d62bf032ae]
entity github.com/titpetric/exp/cmd/go-fsck/query--><rect fill="#FEFECE" filter="url(#fcypb2i647c0z)" height="39.0679" style="stroke: #A80036; stroke-width: 1.5;" width="315" x="1436" y="107"/><rect fill="#FEFECE" height="5" style="stroke: #A80036; stroke-width: 1.5;" width="10" x="1431" y="112"/><rect fill="#FEFECE" height="5" style="stroke: #A80036; stroke-width: 1.5;" width="10" x="1431" y="136.0679"/><text fill="#000000" font-family="sans-serif" font-size="14" lengthAdjust="spacingAndGlyphs" textLength="295" x="1446" y="131.9659">github.com/titpetric/exp/cmd/go-fsck/query</text><!--MD5=[7c9f9922ba85c70cc4c0dec49a321856]
entity github.com/titpetric/exp/cmd/go-fsck/report--><rect fill="#FEFECE" filter="url(#fcypb2i647c0z)" height="39.0679" style="stroke: #A80036; stroke-width: 1.5;" width="318" x="2492.5" y="107"/><rect fill="#FEFECE" height="5" style="stroke: #A80036; stroke-width: 1.5;" width="10" x="2487.5" y="112"/><rect fill="#FEFECE" height="5" style="stroke: #A80036; stroke-width: 1.5;" width="10" x="2487.5" y="136.0679"/><text fill="#000000" font-family="sans-serif" font-size="14" lengthAdjust="spacingAndGlyphs" textLength="298" x="2502.5" y="131.9659">github.com/titpetric/exp/cmd/go-fsck/report</text><!--MD5=[4ac7b1572d5e7aa642482402b6800797]
entity github.com/titpetric/exp/cmd/go-fsck/restore--><rect fill="#FEFECE" filter="url(#fcypb2i647c0z)" height="39.0679" style="stroke: #A80036; stroke-width: 1.5;" width="324" x="2845.5" y="107"/><rect fill="#FEFECE" height="5" style="stroke: #A80036; stroke-width: 1.5;" width="10" x="2840.5" y="112"/><rect fill="#FEFECE" height="5" style="stroke: #A80036; stroke-width: 1.5;" width="10" x="2840.5" y="136.0679"/><text fill="#000000" font-family="sans-serif" font-size="14" lengthAdjust="spacingAndGlyphs" textLength="304" x="2855.5" y="131.9659">github.com/titpetric/exp/cmd/go-fsck/restore</text><!--MD5=[3cdd9c55210afb4027a13f32cd0b471f]
entity github.com/titpetric/exp/cmd/go-fsck/model/loader--><rect fill="#FEFECE" filter="url(#fcypb2i647c0z)" height="39.0679" style="stroke: #A80036; stroke-width: 1.5;" width="366" x="1493.5" y="206"/><rect fill="#FEFECE" height="5" style="stroke: #A80036; stroke-width: 1.5;" width="10" x="1488.5" y="211"/><rect fill="#FEFECE" height="5" style="stroke: #A80036; stroke-width: 1.5;" width="10" x="1488.5" y="235.0679"/><text fill="#000000" font-family="sans-serif" font-size="14" lengthAdjust="spacingAndGlyphs" textLength="346" x="1503.5" y="230.9659">github.com/titpetric/exp/cmd/go-fsck/model/loader</text><!--MD5=[3293ad5b586b9f02372d860a39d58393]
entity github.com/titpetric/exp/cmd/go-fsck/internal--><rect fill="#FEFECE" filter="url(#fcypb2i647c0z)" height="39.0679" style="stroke: #A80036; stroke-width: 1.5;" width="329" x="1129" y="206"/><rect fill="#FEFECE" height="5" style="stroke: #A80036; stroke-width: 1.5;" width="10" x="1124" y="211"/><rect fill="#FEFECE" height="5" style="stroke: #A80036; stroke-width: 1.5;" width="10" x="1124" y="235.0679"/><text fill="#000000" font-family="sans-serif" font-size="14" lengthAdjust="spacingAndGlyphs" textLength="309" x="1139" y="230.9659">github.com/titpetric/exp/cmd/go-fsck/internal</text><!--MD5=[b91bbc06223260f413b82687c67c3c0f]
entity github.com/titpetric/exp/cmd/go-fsck/model--><rect fill="#FEFECE" filter="url(#fcypb2i647c0z)" height="39.0679" style="stroke: #A80036; stroke-width: 1.5;" width="318" x="1707.5" y="404"/><rect fill="#FEFECE" height="5" style="stroke: #A80036; stroke-width: 1.5;" width="10" x="1702.5" y="409"/><rect fill="#FEFECE" height="5" style="stroke: #A80036; stroke-width: 1.5;" width="10" x="1702.5" y="433.0679"/><text fill="#000000" font-family="sans-serif" font-size="14" lengthAdjust="spacingAndGlyphs" textLength="298" x="1717.5" y="428.9659">github.com/titpetric/exp/cmd/go-fsck/model</text><!--MD5=[5a8ddbc887d3eb2656bc6593141d9469]
entity github.com/titpetric/exp/cmd/go-fsck/internal/telemetry--><rect fill="#FEFECE" filter="url(#fcypb2i647c0z)" height="39.0679" style="stroke: #A80036; stroke-width: 1.5;" width="398" x="554.5" y="305"/><rect fill="#FEFECE" height="5" style="stroke: #A80036; stroke-width: 1.5;" width="10" x="549.5" y="310"/><rect fill="#FEFECE" height="5" style="stroke: #A80036; stroke-width: 1.5;" width="10" x="549.5" y="334.0679"/><text fill="#000000" font-family="sans-serif" font-size="14" lengthAdjust="spacingAndGlyphs" textLength="378" x="564.5" y="329.9659">github.com/titpetric/exp/cmd/go-fsck/internal/telemetry</text><!--MD5=[cd7207b7c892825fe13003ef90a45e32]
entity github.com/titpetric/exp/cmd/go-fsck/internal/collector--><rect fill="#FEFECE" filter="url(#fcypb2i647c0z)" height="39.0679" style="stroke: #A80036; stroke-width: 1.5;" width="391" x="1326" y="305"/><rect fill="#FEFECE" height="5" style="stroke: #A80036; stroke-width: 1.5;" width="10" x="1321" y="310"/><rect fill="#FEFECE" height="5" style="stroke: #A80036; stroke-width: 1.5;" width="10" x="1321" y="334.0679"/><text fill="#000000" font-family="sans-serif" font-size="14" lengthAdjust="spacingAndGlyphs" textLength="371" x="1336" y="329.9659">github.com/titpetric/exp/cmd/go-fsck/internal/collector</text><!--MD5=[76eaee1bc4e07bc97066f1115e13bfd5]
entity github.com/titpetric/exp/cmd/go-fsck/internal/ast--><rect fill="#FEFECE" filter="url(#fcypb2i647c0z)" height="39.0679" style="stroke: #A80036; stroke-width: 1.5;" width="354" x="1318.5" y="404"/><rect fill="#FEFECE" height="5" style="stroke: #A80036; stroke-width: 1.5;" width="10" x="1313.5" y="409"/><rect fill="#FEFECE" height="5" style="stroke: #A80036; stroke-width: 1.5;" width="10" x="1313.5" y="433.0679"/><text fill="#000000" font-family="sans-serif" font-size="14" lengthAdjust="spacingAndGlyphs" textLength="334" x="1328.5" y="428.9659">github.com/titpetric/exp/cmd/go-fsck/internal/ast</text><!--MD5=[898b61ebe957713a41a6ad4979a03cc0]
entity github.com/titpetric/exp/cmd/go-fsck/report/testusage--><rect fill="#FEFECE" filter="url(#fcypb2i647c0z)" height="39.0679" style="stroke: #A80036; stroke-width: 1.5;" width="389" x="2134" y="206"/><rect fill="#FEFECE" height="5" style="stroke: #A80036; stroke-width: 1.5;" width="10" x="2129" y="211"/><rect fill="#FEFECE" height="5" style="stroke: #A80036; stroke-width: 1.5;" width="10" x="2129" y="235.0679"/><text fill="#000000" font-family="sans-serif" font-size="14" lengthAdjust="spacingAndGlyphs" textLength="369" x="2144" y="230.9659">github.com/titpetric/exp/cmd/go-fsck/report/testusage</text><!--MD5=[6b93411127c27550ccba160cdac495d1]
entity github.com/titpetric/exp/cmd/go-fsck/internal/files--><rect fill="#FEFECE" filter="url(#fcypb2i647c0z)" height="39.0679" style="stroke: #A80036; stroke-width: 1.5;" width="362" x="2826.5" y="206"/><rect fill="#FEFECE" height="5" style="stroke: #A80036; stroke-width: 1.5;" width="10" x="2821.5" y="211"/><rect fill="#FEFECE" height="5" style="stroke: #A80036; stroke-width: 1.5;" width="10" x="2821.5" y="235.0679"/><text fill="#000000" font-family="sans-serif" font-size="14" lengthAdjust="spacingAndGlyphs" textLength="342" x="2836.5" y="230.9659">github.com/titpetric/exp/cmd/go-fsck/internal/files</text><!--MD5=[e15b20852e658875a83e16d9d328daad]
entity github.com/titpetric/exp/cmd/go-fsck/sqlite--><rect fill="#FEFECE" filter="url(#fcypb2i647c0z)" height="39.0679" style="stroke: #A80036; stroke-width: 1.5;" width="313" x="2179" y="305"/><rect fill="#FEFECE" height="5" style="stroke: #A80036; stroke-width: 1.5;" width="10" x="2174" y="310"/><rect fill="#FEFECE" height="5" style="stroke: #A80036; stroke-width: 1.5;" width="10" x="2174" y="334.0679"/><text fill="#000000" font-family="sans-serif" font-size="14" lengthAdjust="spacingAndGlyphs" textLength="293" x="2189" y="329.9659">github.com/titpetric/exp/cmd/go-fsck/sqlite</text><!--MD5=[256f083061a6a4c2bf7b1d78edc36a4c]
entity github.com/titpetric/exp/cmd/go-fsck/stats/modules--><rect fill="#FEFECE" filter="url(#fcypb2i647c0z)" height="39.0679" style="stroke: #A80036; stroke-width: 1.5;" width="371" x="6" y="305"/><rect fill="#FEFECE" height="5" style="stroke: #A80036; stroke-width: 1.5;" width="10" x="1" y="310"/><rect fill="#FEFECE" height="5" style="stroke: #A80036; stroke-width: 1.5;" width="10" x="1" y="334.0679"/><text fill="#000000" font-family="sans-serif" font-size="14" lengthAdjust="spacingAndGlyphs" textLength="351" x="16" y="329.9659">github.com/titpetric/exp/cmd/go-fsck/stats/modules</text><!--MD5=[e3eed096f3469e2f309332316f314f80]
link github.com/titpetric/exp/cmd/go-fsck to github.com/titpetric/exp/cmd/go-fsck/lint--><path d="M1659.04,47.09 C1713.58,62.56 1791.61,84.69 1850.87,101.5 " fill="none" id="github.com/titpetric/exp/cmd/go-fsck-&gt;github.com/titpetric/exp/cmd/go-fsck/lint" style="stroke: #A80036; stroke-width: 1.0;"/><polygon fill="none" points="1852.85,94.78,1870.19,106.98,1849.03,108.25,1852.85,94.78" style="stroke: #A80036; stroke-width: 1.0;"/><!--MD5=[4ec92b3f1bf50bbd7e164fa89dd5b722]
link github.com/titpetric/exp/cmd/go-fsck to github.com/titpetric/exp/cmd/go-fsck/coverage--><path d="M1726.27,47.03 C1843.18,63.35 2013.42,87.11 2135.91,104.2 " fill="none" id="github.com/titpetric/exp/cmd/go-fsck-&gt;github.com/titpetric/exp/cmd/go-fsck/coverage" style="stroke: #A80036; stroke-width: 1.0;"/><polygon fill="none" points="2137.07,97.3,2155.91,106.99,2135.13,111.16,2137.07,97.3" style="stroke: #A80036; stroke-width: 1.0;"/><!--MD5=[99935ed18701cd1bef1c4cdf045c7ed1]
link github.com/titpetric/exp/cmd/go-fsck to github.com/titpetric/exp/cmd/go-fsck/extract--><path d="M1457.73,40.14 C1290.11,54.65 995.72,80.53 722.99,106.78 " fill="none" id="github.com/titpetric/exp/cmd/go-fsck-&gt;github.com/titpetric/exp/cmd/go-fsck/extract" style="stroke: #A80036; stroke-width: 1.0;"/><polygon fill="none" points="723.56,113.76,702.98,108.71,722.21,99.82,723.56,113.76" style="stroke: #A80036; stroke-width: 1.0;"/><!--MD5=[38208b924eb8ec21d63f9ef824f70b37]
link github.com/titpetric/exp/cmd/go-fsck to github.com/titpetric/exp/cmd/go-fsck/stats--><path d="M1457.65,35.2 C1234.29,46.65 775,72.02 365.8,106.78 " fill="none" id="github.com/titpetric/exp/cmd/go-fsck-&gt;github.com/titpetric/exp/cmd/go-fsck/stats" style="stroke: #A80036; stroke-width: 1.0;"/><polygon fill="none" points="366.26,113.77,345.74,108.5,365.07,99.82,366.26,113.77" style="stroke: #A80036; stroke-width: 1.0;"/><!--MD5=[e3227c37cd7a52e80d8776fbd4e2d435]
link github.com/titpetric/exp/cmd/go-fsck to github.com/titpetric/exp/cmd/go-fsck/docs--><path d="M1459.39,47.03 C1341.18,63.36 1168.99,87.16 1045.24,104.26 " fill="none" id="github.com/titpetric/exp/cmd/go-fsck-&gt;github.com/titpetric/exp/cmd/go-fsck/docs" style="stroke: #A80036; stroke-width: 1.0;"/><polygon fill="none" points="1046.2,111.19,1025.43,106.99,1044.28,97.32,1046.2,111.19" style="stroke: #A80036; stroke-width: 1.0;"/><!--MD5=[5c51fe802b08ff3d762311ff28c181f2]
link github.com/titpetric/exp/cmd/go-fsck to github.com/titpetric/exp/cmd/go-fsck/search--><path d="M1525.86,47.09 C1469.44,62.59 1388.67,84.78 1327.46,101.61 " fill="none" id="github.com/titpetric/exp/cmd/go-fsck-&gt;github.com/titpetric/exp/cmd/go-fsck/search" style="stroke: #A80036; stroke-width: 1.0;"/><polygon fill="none" points="1329.06,108.43,1307.92,106.98,1325.35,94.93,1329.06,108.43" style="stroke: #A80036; stroke-width: 1.0;"/><!--MD5=[97ded143542b953f121f7601f0e0244d]
link github.com/titpetric/exp/cmd/go-fsck to github.com/titpetric/exp/cmd/go-fsck/query--><path d="M1593.5,47.2 C1593.5,58.34 1593.5,72.9 1593.5,86.44 " fill="none" id="github.com/titpetric/exp/cmd/go-fsck-&gt;github.com/titpetric/exp/cmd/go-fsck/query" style="stroke: #A80036; stroke-width: 1.0;"/><polygon fill="none" points="1600.5,86.85,1593.5,106.85,1586.5,86.85,1600.5,86.85" style="stroke: #A80036; stroke-width: 1.0;"/><!--MD5=[58f16076455543f2f54bbbeb5923c438]
link github.com/titpetric/exp/cmd/go-fsck to github.com/titpetric/exp/cmd/go-fsck/report--><path d="M1729.02,39.93 C1897.91,54.32 2195.97,80.18 2472.04,106.79 " fill="none" id="github.com/titpetric/exp/cmd/go-fsck-&gt;github.com/titpetric/exp/cmd/go-fsck/report" style="stroke: #A80036; stroke-width: 1.0;"/><polygon fill="none" points="2473.07,99.85,2492.3,108.74,2471.72,113.79,2473.07,99.85" style="stroke: #A80036; stroke-width: 1.0;"/><!--MD5=[25934d8fb2a3f8d6be666d815b505abc]
link github.com/titpetric/exp/cmd/go-fsck to github.com/titpetric/exp/cmd/go-fsck/restore--><path d="M1729.32,35.37 C1953.21,47.09 2414.31,72.86 2824.95,106.76 " fill="none" id="github.com/titpetric/exp/cmd/go-fsck-&gt;github.com/titpetric/exp/cmd/go-fsck/restore" style="stroke: #A80036; stroke-width: 1.0;"/><polygon fill="none" points="2825.73,99.8,2845.08,108.43,2824.57,113.75,2825.73,99.8" style="stroke: #A80036; stroke-width: 1.0;"/><!--MD5=[55a7fd09222d7bc6933dc7a723cfbd21]
link github.com/titpetric/exp/cmd/go-fsck/coverage to github.com/titpetric/exp/cmd/go-fsck/model/loader--><path d="M2171.59,146.03 C2069.38,162.23 1920.89,185.77 1813.21,202.83 " fill="none" id="github.com/titpetric/exp/cmd/go-fsck/coverage-&gt;github.com/titpetric/exp/cmd/go-fsck/model/loader" style="stroke: #A80036; stroke-width: 1.0;"/><polygon fill="none" points="1814.11,209.78,1793.26,205.99,1811.92,195.95,1814.11,209.78" style="stroke: #A80036; stroke-width: 1.0;"/><!--MD5=[44ae3b9fc629f015563dbf74d61dca14]
link github.com/titpetric/exp/cmd/go-fsck/coverage to github.com/titpetric/exp/cmd/go-fsck/internal--><path d="M2119.71,144.32 C2113.9,144.89 2108.15,145.45 2102.5,146 C1830.28,172.56 1757.4,178.26 1478.2,205.74 " fill="none" id="github.com/titpetric/exp/cmd/go-fsck/coverage-&gt;github.com/titpetric/exp/cmd/go-fsck/internal" style="stroke: #A80036; stroke-width: 1.0;"/><polygon fill="none" points="1478.77,212.72,1458.18,207.72,1477.39,198.79,1478.77,212.72" style="stroke: #A80036; stroke-width: 1.0;"/><!--MD5=[f6a4871993e7a7c75947331c86e73147]
link github.com/titpetric/exp/cmd/go-fsck/coverage to github.com/titpetric/exp/cmd/go-fsck/model--><path d="M2236.53,146.07 C2201.16,159.92 2154.11,180.76 2116.5,206 C2042.09,255.93 2037.89,286.1 1969.5,344 C1950.06,360.46 1927.65,377.73 1908.7,391.87 " fill="none" id="github.com/titpetric/exp/cmd/go-fsck/coverage-&gt;github.com/titpetric/exp/cmd/go-fsck/model" style="stroke: #A80036; stroke-width: 1.0;"/><polygon fill="none" points="1912.72,397.61,1892.47,403.85,1904.4,386.34,1912.72,397.61" style="stroke: #A80036; stroke-width: 1.0;"/><!--MD5=[40d57c36f9b96f1f3fcb1791f61d109a]
link github.com/titpetric/exp/cmd/go-fsck/docs to github.com/titpetric/exp/cmd/go-fsck/model/loader--><path d="M1041.46,146.03 C1174.33,162.45 1368.18,186.4 1506.71,203.52 " fill="none" id="github.com/titpetric/exp/cmd/go-fsck/docs-&gt;github.com/titpetric/exp/cmd/go-fsck/model/loader" style="stroke: #A80036; stroke-width: 1.0;"/><polygon fill="none" points="1507.74,196.59,1526.74,205.99,1506.03,210.49,1507.74,196.59" style="stroke: #A80036; stroke-width: 1.0;"/><!--MD5=[746533d8e14894278275b30ba27f3f1b]
link github.com/titpetric/exp/cmd/go-fsck/docs to github.com/titpetric/exp/cmd/go-fsck/internal--><path d="M968.53,146.09 C1033.62,161.79 1127.16,184.36 1197.19,201.26 " fill="none" id="github.com/titpetric/exp/cmd/go-fsck/docs-&gt;github.com/titpetric/exp/cmd/go-fsck/internal" style="stroke: #A80036; stroke-width: 1.0;"/><polygon fill="none" points="1198.93,194.48,1216.73,205.98,1195.64,208.09,1198.93,194.48" style="stroke: #A80036; stroke-width: 1.0;"/><!--MD5=[dfe0cc361b45a90ed33d028333ae340c]
link github.com/titpetric/exp/cmd/go-fsck/docs to github.com/titpetric/exp/cmd/go-fsck/model--><path d="M907.89,146.12 C947.37,189.55 1052.94,297.41 1166.5,344 C1178.54,348.94 1484.01,382.01 1687.4,403.62 " fill="none" id="github.com/titpetric/exp/cmd/go-fsck/docs-&gt;github.com/titpetric/exp/cmd/go-fsck/model" style="stroke: #A80036; stroke-width: 1.0;"/><polygon fill="none" points="1688.21,396.67,1707.36,405.74,1686.73,410.59,1688.21,396.67" style="stroke: #A80036; stroke-width: 1.0;"/><!--MD5=[184ec550543e33a1eaa518f7cd798524]
link github.com/titpetric/exp/cmd/go-fsck/extract to github.com/titpetric/exp/cmd/go-fsck/internal/telemetry--><path d="M561.83,146.29 C597.92,179.66 673.58,249.61 718.29,290.95 " fill="none" id="github.com/titpetric/exp/cmd/go-fsck/extract-&gt;github.com/titpetric/exp/cmd/go-fsck/internal/telemetry" style="stroke: #A80036; stroke-width: 1.0;"/><polygon fill="none" points="723.3,286.05,733.23,304.76,713.8,296.33,723.3,286.05" style="stroke: #A80036; stroke-width: 1.0;"/><!--MD5=[d8e8cd402c068ca168010f5032bab4a9]
link github.com/titpetric/exp/cmd/go-fsck/extract to github.com/titpetric/exp/cmd/go-fsck/model--><path d="M533.46,146.22 C516.9,188 484.73,289.47 536.5,344 C578.38,388.11 1520.07,398.02 1687.16,404.44 " fill="none" id="github.com/titpetric/exp/cmd/go-fsck/extract-&gt;github.com/titpetric/exp/cmd/go-fsck/model" style="stroke: #A80036; stroke-width: 1.0;"/><polygon fill="none" points="1687.71,397.46,1707.33,405.47,1687,411.44,1687.71,397.46" style="stroke: #A80036; stroke-width: 1.0;"/><!--MD5=[3096e9b62c8885733a499abc54092507]
link github.com/titpetric/exp/cmd/go-fsck/extract to github.com/titpetric/exp/cmd/go-fsck/internal--><path d="M685.16,146.03 C812.18,162.41 997.38,186.3 1130.03,203.41 " fill="none" id="github.com/titpetric/exp/cmd/go-fsck/extract-&gt;github.com/titpetric/exp/cmd/go-fsck/internal" style="stroke: #A80036; stroke-width: 1.0;"/><polygon fill="none" points="1131.09,196.49,1150.03,205.99,1129.3,210.38,1131.09,196.49" style="stroke: #A80036; stroke-width: 1.0;"/><!--MD5=[e40eb72d0b7ef4cda6bd0360ec97be3b]
link github.com/titpetric/exp/cmd/go-fsck/extract to github.com/titpetric/exp/cmd/go-fsck/model/loader--><path d="M702.97,144.37 C708.89,144.93 714.74,145.47 720.5,146 C1049.25,176.05 1136.77,177.21 1473.15,205.82 " fill="none" id="github.com/titpetric/exp/cmd/go-fsck/extract-&gt;github.com/titpetric/exp/cmd/go-fsck/model/loader" style="stroke: #A80036; stroke-width: 1.0;"/><polygon fill="none" points="1473.96,198.86,1493.29,207.54,1472.77,212.81,1473.96,198.86" style="stroke: #A80036; stroke-width: 1.0;"/><!--MD5=[0195c3c784ef0193a0017cb2f97163a7]
link github.com/titpetric/exp/cmd/go-fsck/internal to github.com/titpetric/exp/cmd/go-fsck/internal/telemetry--><path d="M1190.34,245.03 C1100.98,261.08 971.52,284.34 876.73,301.36 " fill="none" id="github.com/titpetric/exp/cmd/go-fsck/internal-&gt;github.com/titpetric/exp/cmd/go-fsck/internal/telemetry" style="stroke: #A80036; stroke-width: 1.0;"/><polygon fill="none" points="877.67,308.31,856.75,304.95,875.2,294.53,877.67,308.31" style="stroke: #A80036; stroke-width: 1.0;"/><!--MD5=[ef6f8e292036a7207f44832326598970]
link github.com/titpetric/exp/cmd/go-fsck/internal to github.com/titpetric/exp/cmd/go-fsck/model--><path d="M1448.7,245.03 C1554.8,259.42 1684.87,280.92 1734.5,305 C1775.65,324.96 1813.63,361.52 1838.18,388.57 " fill="none" id="github.com/titpetric/exp/cmd/go-fsck/internal-&gt;github.com/titpetric/exp/cmd/go-fsck/model" style="stroke: #A80036; stroke-width: 1.0;"/><polygon fill="none" points="1843.74,384.29,1851.64,403.96,1833.21,393.51,1843.74,384.29" style="stroke: #A80036; stroke-width: 1.0;"/><!--MD5=[e39385ec88cb4b3c30bc0aaf9fd4b34f]
link github.com/titpetric/exp/cmd/go-fsck/internal/collector to github.com/titpetric/exp/cmd/go-fsck/model--><path d="M1587.61,344.09 C1642.63,359.56 1721.34,381.69 1781.13,398.5 " fill="none" id="github.com/titpetric/exp/cmd/go-fsck/internal/collector-&gt;github.com/titpetric/exp/cmd/go-fsck/model" style="stroke: #A80036; stroke-width: 1.0;"/><polygon fill="none" points="1783.25,391.82,1800.61,403.98,1779.46,405.3,1783.25,391.82" style="stroke: #A80036; stroke-width: 1.0;"/><!--MD5=[265326d2b822850df5ba3866c26476d4]
link github.com/titpetric/exp/cmd/go-fsck/internal/collector to github.com/titpetric/exp/cmd/go-fsck/internal/ast--><path d="M1516.49,344.2 C1513.43,355.61 1509.41,370.61 1505.71,384.42 " fill="none" id="github.com/titpetric/exp/cmd/go-fsck/internal/collector-&gt;github.com/titpetric/exp/cmd/go-fsck/internal/ast" style="stroke: #A80036; stroke-width: 1.0;"/><polygon fill="none" points="1512.44,386.35,1500.5,403.85,1498.91,382.72,1512.44,386.35" style="stroke: #A80036; stroke-width: 1.0;"/><!--MD5=[95f1d82c4e0ab8708622064f963249d0]
link github.com/titpetric/exp/cmd/go-fsck/lint to github.com/titpetric/exp/cmd/go-fsck/internal--><path d="M1812.85,146.03 C1705.3,162.28 1548.9,185.91 1435.86,202.99 " fill="none" id="github.com/titpetric/exp/cmd/go-fsck/lint-&gt;github.com/titpetric/exp/cmd/go-fsck/internal" style="stroke: #A80036; stroke-width: 1.0;"/><polygon fill="none" points="1436.8,209.93,1415.98,205.99,1434.71,196.08,1436.8,209.93" style="stroke: #A80036; stroke-width: 1.0;"/><!--MD5=[bcc2f8841de45ee0db38072ad3ce8836]
link github.com/titpetric/exp/cmd/go-fsck/lint to github.com/titpetric/exp/cmd/go-fsck/model/loader--><path d="M1885.87,146.09 C1845.82,161.09 1789.05,182.35 1744.73,198.95 " fill="none" id="github.com/titpetric/exp/cmd/go-fsck/lint-&gt;github.com/titpetric/exp/cmd/go-fsck/model/loader" style="stroke: #A80036; stroke-width: 1.0;"/><polygon fill="none" points="1747.15,205.52,1725.96,205.98,1742.24,192.41,1747.15,205.52" style="stroke: #A80036; stroke-width: 1.0;"/><!--MD5=[1040b2b9abf50d2f33cc23484f43b5a7]
link github.com/titpetric/exp/cmd/go-fsck/lint to github.com/titpetric/exp/cmd/go-fsck/model--><path d="M1940.32,146.29 C1949.27,184.91 1965.22,275.34 1938.5,344 C1931.7,361.47 1919,377.4 1906.14,390.29 " fill="none" id="github.com/titpetric/exp/cmd/go-fsck/lint-&gt;github.com/titpetric/exp/cmd/go-fsck/model" style="stroke: #A80036; stroke-width: 1.0;"/><polygon fill="none" points="1910.77,395.54,1891.31,403.92,1901.3,385.23,1910.77,395.54" style="stroke: #A80036; stroke-width: 1.0;"/><!--MD5=[a0c309467a69c27c6add3f5df4157c1a]
link github.com/titpetric/exp/cmd/go-fsck/model/loader to github.com/titpetric/exp/cmd/go-fsck/internal/collector--><path d="M1646.61,245.2 C1624.42,259.09 1593.72,278.3 1568.29,294.22 " fill="none" id="github.com/titpetric/exp/cmd/go-fsck/model/loader-&gt;github.com/titpetric/exp/cmd/go-fsck/internal/collector" style="stroke: #A80036; stroke-width: 1.0;"/><polygon fill="none" points="1571.96,300.18,1551.29,304.85,1564.53,288.31,1571.96,300.18" style="stroke: #A80036; stroke-width: 1.0;"/><!--MD5=[6cc30f8b99656b5abdbcaedde07ce966]
link github.com/titpetric/exp/cmd/go-fsck/model/loader to github.com/titpetric/exp/cmd/go-fsck/model--><path d="M1713.78,245.05 C1739.23,259.03 1772.55,280.02 1796.5,305 C1819.08,328.55 1837.59,360.67 1849.89,385.37 " fill="none" id="github.com/titpetric/exp/cmd/go-fsck/model/loader-&gt;github.com/titpetric/exp/cmd/go-fsck/model" style="stroke: #A80036; stroke-width: 1.0;"/><polygon fill="none" points="1856.32,382.59,1858.55,403.66,1843.66,388.58,1856.32,382.59" style="stroke: #A80036; stroke-width: 1.0;"/><!--MD5=[d54e4da81ec8918986dbe92016b81142]
link github.com/titpetric/exp/cmd/go-fsck/query to github.com/titpetric/exp/cmd/go-fsck/internal--><path d="M1536.01,146.09 C1488.9,161.32 1421.8,183.02 1370.12,199.73 " fill="none" id="github.com/titpetric/exp/cmd/go-fsck/query-&gt;github.com/titpetric/exp/cmd/go-fsck/internal" style="stroke: #A80036; stroke-width: 1.0;"/><polygon fill="none" points="1371.98,206.48,1350.79,205.98,1367.67,193.16,1371.98,206.48" style="stroke: #A80036; stroke-width: 1.0;"/><!--MD5=[e3670531e3ebfde7edcd4a0f0abab253]
link github.com/titpetric/exp/cmd/go-fsck/query to github.com/titpetric/exp/cmd/go-fsck/model--><path d="M1714.45,146 C1782.18,159.1 1857.05,179.13 1877.5,206 C1916.83,257.68 1898.14,338.07 1881.78,384.97 " fill="none" id="github.com/titpetric/exp/cmd/go-fsck/query-&gt;github.com/titpetric/exp/cmd/go-fsck/model" style="stroke: #A80036; stroke-width: 1.0;"/><polygon fill="none" points="1888.23,387.69,1874.64,403.94,1875.13,382.76,1888.23,387.69" style="stroke: #A80036; stroke-width: 1.0;"/><!--MD5=[92d0e8622148b5f9aec05d841e41485c]
link github.com/titpetric/exp/cmd/go-fsck/query to github.com/titpetric/exp/cmd/go-fsck/model/loader--><path d="M1609.5,146.2 C1620.18,158.68 1634.54,175.46 1647.22,190.28 " fill="none" id="github.com/titpetric/exp/cmd/go-fsck/query-&gt;github.com/titpetric/exp/cmd/go-fsck/model/loader" style="stroke: #A80036; stroke-width: 1.0;"/><polygon fill="none" points="1652.86,186.11,1660.55,205.85,1642.22,195.21,1652.86,186.11" style="stroke: #A80036; stroke-width: 1.0;"/><!--MD5=[54092230891b84898ddec9a31be1267a]
link github.com/titpetric/exp/cmd/go-fsck/report to github.com/titpetric/exp/cmd/go-fsck/internal--><path d="M2492.32,144.47 C2486.31,145.01 2480.35,145.52 2474.5,146 C2037.69,181.93 1922.22,170.52 1478.18,205.85 " fill="none" id="github.com/titpetric/exp/cmd/go-fsck/report-&gt;github.com/titpetric/exp/cmd/go-fsck/internal" style="stroke: #A80036; stroke-width: 1.0;"/><polygon fill="none" points="1478.65,212.83,1458.15,207.46,1477.53,198.88,1478.65,212.83" style="stroke: #A80036; stroke-width: 1.0;"/><!--MD5=[33e992b8e6922cddd813632f0a3de3f9]
link github.com/titpetric/exp/cmd/go-fsck/report to github.com/titpetric/exp/cmd/go-fsck/model--><path d="M2645.39,146.26 C2630.23,189.52 2586.44,296.2 2509.5,344 C2434.3,390.71 2208.42,409.66 2045.62,417.33 " fill="none" id="github.com/titpetric/exp/cmd/go-fsck/report-&gt;github.com/titpetric/exp/cmd/go-fsck/model" style="stroke: #A80036; stroke-width: 1.0;"/><polygon fill="none" points="2045.89,424.32,2025.59,418.23,2045.26,410.33,2045.89,424.32" style="stroke: #A80036; stroke-width: 1.0;"/><!--MD5=[b070d1815e9f8be2f8bab7f9b145a737]
link github.com/titpetric/exp/cmd/go-fsck/report to github.com/titpetric/exp/cmd/go-fsck/model/loader--><path d="M2492.3,144.19 C2486.29,144.8 2480.34,145.41 2474.5,146 C2272.28,166.51 2041.15,189.16 1879.87,204.84 " fill="none" id="github.com/titpetric/exp/cmd/go-fsck/report-&gt;github.com/titpetric/exp/cmd/go-fsck/model/loader" style="stroke: #A80036; stroke-width: 1.0;"/><polygon fill="none" points="1880.15,211.84,1859.57,206.81,1878.8,197.91,1880.15,211.84" style="stroke: #A80036; stroke-width: 1.0;"/><!--MD5=[5efab2e594e13de3d42507f6bcdf3b95]
link github.com/titpetric/exp/cmd/go-fsck/report to github.com/titpetric/exp/cmd/go-fsck/report/testusage--><path d="M2589.6,146.09 C2538.43,161.46 2465.36,183.4 2409.53,200.17 " fill="none" id="github.com/titpetric/exp/cmd/go-fsck/report-&gt;github.com/titpetric/exp/cmd/go-fsck/report/testusage" style="stroke: #A80036; stroke-width: 1.0;"/><polygon fill="none" points="2411.35,206.93,2390.19,205.98,2407.33,193.52,2411.35,206.93" style="stroke: #A80036; stroke-width: 1.0;"/><!--MD5=[918bc30123c612c9af24a4ddb7f5b5c0]
link github.com/titpetric/exp/cmd/go-fsck/report/testusage to github.com/titpetric/exp/cmd/go-fsck/model--><path d="M2288.63,245.11 C2254.77,260.95 2204.89,284.35 2161.5,305 C2125.42,322.17 2117.3,328.43 2080.5,344 C2034.67,363.39 1982.22,382.67 1940.72,397.27 " fill="none" id="github.com/titpetric/exp/cmd/go-fsck/report/testusage-&gt;github.com/titpetric/exp/cmd/go-fsck/model" style="stroke: #A80036; stroke-width: 1.0;"/><polygon fill="none" points="1942.79,403.96,1921.6,403.94,1938.18,390.74,1942.79,403.96" style="stroke: #A80036; stroke-width: 1.0;"/><!--MD5=[69f30cdde9c825ba1d6d9f6a6f7ca2e8]
link github.com/titpetric/exp/cmd/go-fsck/restore to github.com/titpetric/exp/cmd/go-fsck/model--><path d="M2955.48,146.12 C2915.1,161.04 2858.03,183.2 2809.5,206 C2693.93,260.3 2679.22,305.4 2557.5,344 C2389.08,397.4 2187.42,415.4 2045.55,421.03 " fill="none" id="github.com/titpetric/exp/cmd/go-fsck/restore-&gt;github.com/titpetric/exp/cmd/go-fsck/model" style="stroke: #A80036; stroke-width: 1.0;"/><polygon fill="none" points="2045.75,428.02,2025.51,421.75,2045.24,414.03,2045.75,428.02" style="stroke: #A80036; stroke-width: 1.0;"/><!--MD5=[b6a18d79b05b46e53aa4ff3b16b67ee3]
link github.com/titpetric/exp/cmd/go-fsck/restore to github.com/titpetric/exp/cmd/go-fsck/model/loader--><path d="M2845.08,144.54 C2839.49,145.04 2833.95,145.53 2828.5,146 C2496.56,174.45 2110.09,199.05 1879.79,212.8 " fill="none" id="github.com/titpetric/exp/cmd/go-fsck/restore-&gt;github.com/titpetric/exp/cmd/go-fsck/model/loader" style="stroke: #A80036; stroke-width: 1.0;"/><polygon fill="none" points="1880.09,219.8,1859.71,214,1879.26,205.82,1880.09,219.8" style="stroke: #A80036; stroke-width: 1.0;"/><!--MD5=[a751fa3e27a873e630cd3c666418b076]
link github.com/titpetric/exp/cmd/go-fsck/restore to github.com/titpetric/exp/cmd/go-fsck/internal/files--><path d="M3007.5,146.2 C3007.5,157.34 3007.5,171.9 3007.5,185.44 " fill="none" id="github.com/titpetric/exp/cmd/go-fsck/restore-&gt;github.com/titpetric/exp/cmd/go-fsck/internal/files" style="stroke: #A80036; stroke-width: 1.0;"/><polygon fill="none" points="3014.5,185.85,3007.5,205.85,3000.5,185.85,3014.5,185.85" style="stroke: #A80036; stroke-width: 1.0;"/><!--MD5=[15a4cf3d621bb7d836f062d4ee1bd743]
link github.com/titpetric/exp/cmd/go-fsck/search to github.com/titpetric/exp/cmd/go-fsck/internal--><path d="M1250.72,146.2 C1257.17,158.01 1265.73,173.67 1273.49,187.88 " fill="none" id="github.com/titpetric/exp/cmd/go-fsck/search-&gt;github.com/titpetric/exp/cmd/go-fsck/internal" style="stroke: #A80036; stroke-width: 1.0;"/><polygon fill="none" points="1279.87,184.95,1283.31,205.85,1267.58,191.66,1279.87,184.95" style="stroke: #A80036; stroke-width: 1.0;"/><!--MD5=[7fe37c032cda4deeddfca69f49baca25]
link github.com/titpetric/exp/cmd/go-fsck/search to github.com/titpetric/exp/cmd/go-fsck/model--><path d="M1191.53,146.11 C1144.97,166.83 1085.58,202.97 1111.5,245 C1162.93,328.41 1214.97,314.79 1308.5,344 C1377.24,365.47 1551.47,388.21 1687.12,403.65 " fill="none" id="github.com/titpetric/exp/cmd/go-fsck/search-&gt;github.com/titpetric/exp/cmd/go-fsck/model" style="stroke: #A80036; stroke-width: 1.0;"/><polygon fill="none" points="1688.17,396.73,1707.26,405.93,1686.6,410.64,1688.17,396.73" style="stroke: #A80036; stroke-width: 1.0;"/><!--MD5=[2b0e63c4ec21b67f0f09749d140799ed]
link github.com/titpetric/exp/cmd/go-fsck/search to github.com/titpetric/exp/cmd/go-fsck/model/loader--><path d="M1323.79,146.03 C1394.81,161.83 1497.2,184.61 1573.38,201.56 " fill="none" id="github.com/titpetric/exp/cmd/go-fsck/search-&gt;github.com/titpetric/exp/cmd/go-fsck/model/loader" style="stroke: #A80036; stroke-width: 1.0;"/><polygon fill="none" points="1575.13,194.78,1593.13,205.95,1572.09,208.44,1575.13,194.78" style="stroke: #A80036; stroke-width: 1.0;"/><!--MD5=[66147a1c8001bdbaca068d8d71c9553b]
link github.com/titpetric/exp/cmd/go-fsck/sqlite to github.com/titpetric/exp/cmd/go-fsck/model--><path d="M2245.9,344.03 C2169.02,359.93 2057.97,382.9 1975.86,399.88 " fill="none" id="github.com/titpetric/exp/cmd/go-fsck/sqlite-&gt;github.com/titpetric/exp/cmd/go-fsck/model" style="stroke: #A80036; stroke-width: 1.0;"/><polygon fill="none" points="1977.18,406.76,1956.18,403.95,1974.34,393.05,1977.18,406.76" style="stroke: #A80036; stroke-width: 1.0;"/><!--MD5=[7e74ea05bbe7a405b102247b115f19c3]
link github.com/titpetric/exp/cmd/go-fsck/stats to github.com/titpetric/exp/cmd/go-fsck/internal--><path d="M345.75,144.36 C351.4,144.92 357,145.47 362.5,146 C621.1,170.89 920.54,195.36 1108.49,210.2 " fill="none" id="github.com/titpetric/exp/cmd/go-fsck/stats-&gt;github.com/titpetric/exp/cmd/go-fsck/internal" style="stroke: #A80036; stroke-width: 1.0;"/><polygon fill="none" points="1109.19,203.23,1128.58,211.78,1108.09,217.19,1109.19,203.23" style="stroke: #A80036; stroke-width: 1.0;"/><!--MD5=[ea763adf285610a558bf7bb840f3e3b6]
link github.com/titpetric/exp/cmd/go-fsck/stats to github.com/titpetric/exp/cmd/go-fsck/model/loader--><path d="M345.73,144.57 C351.39,145.08 356.99,145.55 362.5,146 C849.76,185.46 978.06,170.37 1473.26,205.9 " fill="none" id="github.com/titpetric/exp/cmd/go-fsck/stats-&gt;github.com/titpetric/exp/cmd/go-fsck/model/loader" style="stroke: #A80036; stroke-width: 1.0;"/><polygon fill="none" points="1473.87,198.92,1493.31,207.35,1472.86,212.88,1473.87,198.92" style="stroke: #A80036; stroke-width: 1.0;"/><!--MD5=[a6363e74b00b243582211440a15d1fa9]
link github.com/titpetric/exp/cmd/go-fsck/stats to github.com/titpetric/exp/cmd/go-fsck/model--><path d="M210.42,146.27 C256.45,190.52 379.91,300.91 507.5,344 C750.84,426.18 1396.08,385.67 1687.01,404.03 " fill="none" id="github.com/titpetric/exp/cmd/go-fsck/stats-&gt;github.com/titpetric/exp/cmd/go-fsck/model" style="stroke: #A80036; stroke-width: 1.0;"/><polygon fill="none" points="1687.87,397.08,1707.33,405.46,1686.89,411.04,1687.87,397.08" style="stroke: #A80036; stroke-width: 1.0;"/><!--MD5=[c84ddff08b3f3efcbd724d94f7264794]
link github.com/titpetric/exp/cmd/go-fsck/stats to github.com/titpetric/exp/cmd/go-fsck/stats/modules--><path d="M191.5,146.29 C191.5,177.98 191.5,242.65 191.5,284.48 " fill="none" id="github.com/titpetric/exp/cmd/go-fsck/stats-&gt;github.com/titpetric/exp/cmd/go-fsck/stats/modules" style="stroke: #A80036; stroke-width: 1.0;"/><polygon fill="none" points="198.5,284.76,191.5,304.76,184.5,284.76,198.5,284.76" style="stroke: #A80036; stroke-width: 1.0;"/><!--MD5=[763a451c7dbb7de9280efc1323256a02]
link github.com/titpetric/exp/cmd/go-fsck/stats/modules to github.com/titpetric/exp/cmd/go-fsck/model--><path d="M377.05,342.06 C386.33,342.75 395.52,343.4 404.5,344 C968.42,381.64 1116.02,361.41 1687.27,403.92 " fill="none" id="github.com/titpetric/exp/cmd/go-fsck/stats/modules-&gt;github.com/titpetric/exp/cmd/go-fsck/model" style="stroke: #A80036; stroke-width: 1.0;"/><polygon fill="none" points="1687.91,396.95,1707.33,405.43,1686.86,410.91,1687.91,396.95" style="stroke: #A80036; stroke-width: 1.0;"/><!--MD5=[03596d27d191e8c8d8560556f076b142]
@startuml






















[github.com/titpetric/exp/cmd/go-fsck] - -|> [github.com/titpetric/exp/cmd/go-fsck/lint]
[github.com/titpetric/exp/cmd/go-fsck] - -|> [github.com/titpetric/exp/cmd/go-fsck/coverage]
[github.com/titpetric/exp/cmd/go-fsck] - -|> [github.com/titpetric/exp/cmd/go-fsck/extract]
[github.com/titpetric/exp/cmd/go-fsck] - -|> [github.com/titpetric/exp/cmd/go-fsck/stats]
[github.com/titpetric/exp/cmd/go-fsck] - -|> [github.com/titpetric/exp/cmd/go-fsck/docs]
[github.com/titpetric/exp/cmd/go-fsck] - -|> [github.com/titpetric/exp/cmd/go-fsck/search]
[github.com/titpetric/exp/cmd/go-fsck] - -|> [github.com/titpetric/exp/cmd/go-fsck/query]
[github.com/titpetric/exp/cmd/go-fsck] - -|> [github.com/titpetric/exp/cmd/go-fsck/report]
[github.com/titpetric/exp/cmd/go-fsck] - -|> [github.com/titpetric/exp/cmd/go-fsck/restore]
[github.com/titpetric/exp/cmd/go-fsck/coverage] - -|> [github.com/titpetric/exp/cmd/go-fsck/model/loader]
[github.com/titpetric/exp/cmd/go-fsck/coverage] - -|> [github.com/titpetric/exp/cmd/go-fsck/internal]
[github.com/titpetric/exp/cmd/go-fsck/coverage] - -|> [github.com/titpetric/exp/cmd/go-fsck/model]
[github.com/titpetric/exp/cmd/go-fsck/docs] - -|> [github.com/titpetric/exp/cmd/go-fsck/model/loader]
[github.com/titpetric/exp/cmd/go-fsck/docs] - -|> [github.com/titpetric/exp/cmd/go-fsck/internal]
[github.com/titpetric/exp/cmd/go-fsck/docs] - -|> [github.com/titpetric/exp/cmd/go-fsck/model]
[github.com/titpetric/exp/cmd/go-fsck/extract] - -|> [github.com/titpetric/exp/cmd/go-fsck/internal/telemetry]
[github.com/titpetric/exp/cmd/go-fsck/extract] - -|> [github.com/titpetric/exp/cmd/go-fsck/model]
[github.com/titpetric/exp/cmd/go-fsck/extract] - -|> [github.com/titpetric/exp/cmd/go-fsck/internal]
[github.com/titpetric/exp/cmd/go-fsck/extract] - -|> [github.com/titpetric/exp/cmd/go-fsck/model/loader]
[github.com/titpetric/exp/cmd/go-fsck/internal] - -|> [github.com/titpetric/exp/cmd/go-fsck/internal/telemetry]
[github.com/titpetric/exp/cmd/go-fsck/internal] - -|> [github.com/titpetric/exp/cmd/go-fsck/model]
[github.com/titpetric/exp/cmd/go-fsck/internal/collector] - -|> [github.com/titpetric/exp/cmd/go-fsck/model]
[github.com/titpetric/exp/cmd/go-fsck/internal/collector] - -|> [github.com/titpetric/exp/cmd/go-fsck/internal/ast]
[github.com/titpetric/exp/cmd/go-fsck/lint] - -|> [github.com/titpetric/exp/cmd/go-fsck/internal]
[github.com/titpetric/exp/cmd/go-fsck/lint] - -|> [github.com/titpetric/exp/cmd/go-fsck/model/loader]
[github.com/titpetric/exp/cmd/go-fsck/lint] - -|> [github.com/titpetric/exp/cmd/go-fsck/model]
[github.com/titpetric/exp/cmd/go-fsck/model/loader] - -|> [github.com/titpetric/exp/cmd/go-fsck/internal/collector]
[github.com/titpetric/exp/cmd/go-fsck/model/loader] - -|> [github.com/titpetric/exp/cmd/go-fsck/model]
[github.com/titpetric/exp/cmd/go-fsck/query] - -|> [github.com/titpetric/exp/cmd/go-fsck/internal]
[github.com/titpetric/exp/cmd/go-fsck/query] - -|> [github.com/titpetric/exp/cmd/go-fsck/model]
[github.com/titpetric/exp/cmd/go-fsck/query] - -|> [github.com/titpetric/exp/cmd/go-fsck/model/loader]
[github.com/titpetric/exp/cmd/go-fsck/report] - -|> [github.com/titpetric/exp/cmd/go-fsck/internal]
[github.com/titpetric/exp/cmd/go-fsck/report] - -|> [github.com/titpetric/exp/cmd/go-fsck/model]
[github.com/titpetric/exp/cmd/go-fsck/report] - -|> [github.com/titpetric/exp/cmd/go-fsck/model/loader]
[github.com/titpetric/exp/cmd/go-fsck/report] - -|> [github.com/titpetric/exp/cmd/go-fsck/report/testusage]
[github.com/titpetric/exp/cmd/go-fsck/report/testusage] - -|> [github.com/titpetric/exp/cmd/go-fsck/model]
[github.com/titpetric/exp/cmd/go-fsck/restore] - -|> [github.com/titpetric/exp/cmd/go-fsck/model]
[github.com/titpetric/exp/cmd/go-fsck/restore] - -|> [github.com/titpetric/exp/cmd/go-fsck/model/loader]
[github.com/titpetric/exp/cmd/go-fsck/restore] - -|> [github.com/titpetric/exp/cmd/go-fsck/internal/files]
[github.com/titpetric/exp/cmd/go-fsck/search] - -|> [github.com/titpetric/exp/cmd/go-fsck/internal]
[github.com/titpetric/exp/cmd/go-fsck/search] - -|> [github.com/titpetric/exp/cmd/go-fsck/model]
[github.com/titpetric/exp/cmd/go-fsck/search] - -|> [github.com/titpetric/exp/cmd/go-fsck/model/loader]
[github.com/titpetric/exp/cmd/go-fsck/sqlite] - -|> [github.com/titpetric/exp/cmd/go-fsck/model]
[github.com/titpetric/exp/cmd/go-fsck/stats] - -|> [github.com/titpetric/exp/cmd/go-fsck/internal]
[github.com/titpetric/exp/cmd/go-fsck/stats] - -|> [github.com/titpetric/exp/cmd/go-fsck/model/loader]
[github.com/titpetric/exp/cmd/go-fsck/stats] - -|> [github.com/titpetric/exp/cmd/go-fsck/model]
[github.com/titpetric/exp/cmd/go-fsck/stats] - -|> [github.com/titpetric/exp/cmd/go-fsck/stats/modules]
[github.com/titpetric/exp/cmd/go-fsck/stats/modules] - -|> [github.com/titpetric/exp/cmd/go-fsck/model]
@enduml

PlantUML version 1.2020.02(Sun Mar 01 11:22:07 CET 2020)
(GPL source distribution)
Java Runtime: OpenJDK Runtime Environment
JVM: OpenJDK 64-Bit Server VM
Java Version: 21.0.8+9-Ubuntu-0ubuntu125.04.1
Operating System: Linux
Default Encoding: UTF-8
Language: en
Country: US
--></g></svg>