<?xml version="1.0" encoding="UTF-8" standalone="no"?><svg xmlns="http://www.w3.org/2000/svg" xmlns:xlink="http://www.w3.org/1999/xlink" contentScriptType="application/ecmascript" contentStyleType="text/css" height="1540px" preserveAspectRatio="none" style="width:1437px;height:1540px;" version="1.1" viewBox="0 0 1437 1540" width="1437px" zoomAndPan="magnify"><defs><filter height="300%" id="f18o2az3v919hq" width="300%" x="-1" y="-1"><feGaussianBlur result="blurOut" stdDeviation="2.0"/><feColorMatrix in="blurOut" result="blurOut2" type="matrix" values="0 0 0 0 0 0 0 0 0 0 0 0 0 0 0 0 0 0 .4 0"/><feOffset dx="4.0" dy="4.0" in="blurOut2" result="blurOut3"/><feBlend in="SourceGraphic" in2="blurOut3" mode="normal"/></filter></defs><g><!--MD5=[e6494f7027ee119b87f8f5a248b6d22e]
class Complexity--><rect fill="#FEFECE" filter="url(#f18o2az3v919hq)" height="107.9276" id="Complexity" style="stroke: #A80036; stroke-width: 1.5;" width="118" x="229" y="1175"/><ellipse cx="254.8" cy="1191" fill="#ADD1B2" rx="11" ry="11" style="stroke: #A80036; stroke-width: 1.0;"/><path d="M257.7688,1196.6406 Q257.1906,1196.9375 256.55,1197.0781 Q255.9094,1197.2344 255.2063,1197.2344 Q252.7063,1197.2344 251.3781,1195.5938 Q250.0656,1193.9375 250.0656,1190.8125 Q250.0656,1187.6875 251.3781,1186.0313 Q252.7063,1184.375 255.2063,1184.375 Q255.9094,1184.375 256.55,1184.5313 Q257.2063,1184.6875 257.7688,1184.9844 L257.7688,1187.7031 Q257.1438,1187.125 256.55,1186.8594 Q255.9563,1186.5781 255.3313,1186.5781 Q253.9875,1186.5781 253.3,1187.6563 Q252.6125,1188.7188 252.6125,1190.8125 Q252.6125,1192.9063 253.3,1193.9844 Q253.9875,1195.0469 255.3313,1195.0469 Q255.9563,1195.0469 256.55,1194.7813 Q257.1438,1194.5 257.7688,1193.9219 L257.7688,1196.6406 Z "/><text fill="#000000" font-family="sans-serif" font-size="12" lengthAdjust="spacingAndGlyphs" textLength="62" x="271.2" y="1195.656">Complexity</text><line style="stroke: #A80036; stroke-width: 1.5;" x1="230" x2="346" y1="1207" y2="1207"/><ellipse cx="240" cy="1218" fill="none" rx="3" ry="3" style="stroke: #038048; stroke-width: 1.0;"/><text fill="#000000" font-family="sans-serif" font-size="11" lengthAdjust="spacingAndGlyphs" textLength="70" x="249" y="1222.7589">Cognitive: int</text><ellipse cx="240" cy="1232.9819" fill="none" rx="3" ry="3" style="stroke: #038048; stroke-width: 1.0;"/><text fill="#000000" font-family="sans-serif" font-size="11" lengthAdjust="spacingAndGlyphs" textLength="76" x="249" y="1237.7408">Cyclomatic: int</text><ellipse cx="240" cy="1247.9638" fill="none" rx="3" ry="3" style="stroke: #038048; stroke-width: 1.0;"/><text fill="#000000" font-family="sans-serif" font-size="11" lengthAdjust="spacingAndGlyphs" textLength="47" x="249" y="1252.7227">Lines: int</text><ellipse cx="240" cy="1262.9457" fill="none" rx="3" ry="3" style="stroke: #038048; stroke-width: 1.0;"/><text fill="#000000" font-family="sans-serif" font-size="11" lengthAdjust="spacingAndGlyphs" textLength="92" x="249" y="1267.7046">Coverage: float64</text><line style="stroke: #A80036; stroke-width: 1.5;" x1="230" x2="346" y1="1274.9276" y2="1274.9276"/><!--MD5=[d80409f3576551ed6a455469f0519e41]
class Declaration--><rect fill="#FEFECE" filter="url(#f18o2az3v919hq)" height="302.6921" id="Declaration" style="stroke: #A80036; stroke-width: 1.5;" width="156" x="663" y="793"/><ellipse cx="704.55" cy="809" fill="#ADD1B2" rx="11" ry="11" style="stroke: #A80036; stroke-width: 1.0;"/><path d="M707.5188,814.6406 Q706.9406,814.9375 706.3,815.0781 Q705.6594,815.2344 704.9563,815.2344 Q702.4563,815.2344 701.1281,813.5938 Q699.8156,811.9375 699.8156,808.8125 Q699.8156,805.6875 701.1281,804.0313 Q702.4563,802.375 704.9563,802.375 Q705.6594,802.375 706.3,802.5313 Q706.9563,802.6875 707.5188,802.9844 L707.5188,805.7031 Q706.8938,805.125 706.3,804.8594 Q705.7063,804.5781 705.0813,804.5781 Q703.7375,804.5781 703.05,805.6563 Q702.3625,806.7188 702.3625,808.8125 Q702.3625,810.9063 703.05,811.9844 Q703.7375,813.0469 705.0813,813.0469 Q705.7063,813.0469 706.3,812.7813 Q706.8938,812.5 707.5188,811.9219 L707.5188,814.6406 Z "/><text fill="#000000" font-family="sans-serif" font-size="12" lengthAdjust="spacingAndGlyphs" textLength="65" x="724.45" y="813.656">Declaration</text><line style="stroke: #A80036; stroke-width: 1.5;" x1="664" x2="818" y1="825" y2="825"/><ellipse cx="674" cy="836" fill="none" rx="3" ry="3" style="stroke: #038048; stroke-width: 1.0;"/><text fill="#000000" font-family="sans-serif" font-size="11" lengthAdjust="spacingAndGlyphs" textLength="114" x="683" y="840.7589">Kind: DeclarationKind</text><ellipse cx="674" cy="850.9819" fill="none" rx="3" ry="3" style="stroke: #038048; stroke-width: 1.0;"/><text fill="#000000" font-family="sans-serif" font-size="11" lengthAdjust="spacingAndGlyphs" textLength="62" x="683" y="855.7408">Type: string</text><ellipse cx="674" cy="865.9638" fill="none" rx="3" ry="3" style="stroke: #038048; stroke-width: 1.0;"/><text fill="#000000" font-family="sans-serif" font-size="11" lengthAdjust="spacingAndGlyphs" textLength="55" x="683" y="870.7227">File: string</text><ellipse cx="674" cy="880.9457" fill="none" rx="3" ry="3" style="stroke: #038048; stroke-width: 1.0;"/><text fill="#000000" font-family="sans-serif" font-size="11" lengthAdjust="spacingAndGlyphs" textLength="103" x="683" y="885.7046">SelfContained: bool</text><ellipse cx="674" cy="895.9276" fill="none" rx="3" ry="3" style="stroke: #038048; stroke-width: 1.0;"/><text fill="#000000" font-family="sans-serif" font-size="11" lengthAdjust="spacingAndGlyphs" textLength="87" x="683" y="900.6865">Imports: []string</text><ellipse cx="674" cy="910.9094" fill="none" rx="3" ry="3" style="stroke: #038048; stroke-width: 1.0;"/><text fill="#000000" font-family="sans-serif" font-size="11" lengthAdjust="spacingAndGlyphs" textLength="111" x="683" y="915.6684">References: StringSet</text><ellipse cx="674" cy="925.8913" fill="none" rx="3" ry="3" style="stroke: #038048; stroke-width: 1.0;"/><text fill="#000000" font-family="sans-serif" font-size="11" lengthAdjust="spacingAndGlyphs" textLength="93" x="683" y="930.6502">Globals: StringSet</text><ellipse cx="674" cy="940.8732" fill="none" rx="3" ry="3" style="stroke: #038048; stroke-width: 1.0;"/><text fill="#000000" font-family="sans-serif" font-size="11" lengthAdjust="spacingAndGlyphs" textLength="57" x="683" y="945.6321">Doc: string</text><ellipse cx="674" cy="955.8551" fill="none" rx="3" ry="3" style="stroke: #038048; stroke-width: 1.0;"/><text fill="#000000" font-family="sans-serif" font-size="11" lengthAdjust="spacingAndGlyphs" textLength="67" x="683" y="960.614">Name: string</text><ellipse cx="674" cy="970.837" fill="none" rx="3" ry="3" style="stroke: #038048; stroke-width: 1.0;"/><text fill="#000000" font-family="sans-serif" font-size="11" lengthAdjust="spacingAndGlyphs" textLength="80" x="683" y="975.5959">Names: []string</text><ellipse cx="674" cy="985.8189" fill="none" rx="3" ry="3" style="stroke: #038048; stroke-width: 1.0;"/><text fill="#000000" font-family="sans-serif" font-size="11" lengthAdjust="spacingAndGlyphs" textLength="81" x="683" y="990.5778">Receiver: string</text><ellipse cx="674" cy="1000.8008" fill="none" rx="3" ry="3" style="stroke: #038048; stroke-width: 1.0;"/><text fill="#000000" font-family="sans-serif" font-size="11" lengthAdjust="spacingAndGlyphs" textLength="79" x="683" y="1005.5597">Fields: FieldList</text><ellipse cx="674" cy="1015.7827" fill="none" rx="3" ry="3" style="stroke: #038048; stroke-width: 1.0;"/><text fill="#000000" font-family="sans-serif" font-size="11" lengthAdjust="spacingAndGlyphs" textLength="103" x="683" y="1020.5416">Arguments: []string</text><ellipse cx="674" cy="1030.7645" fill="none" rx="3" ry="3" style="stroke: #038048; stroke-width: 1.0;"/><text fill="#000000" font-family="sans-serif" font-size="11" lengthAdjust="spacingAndGlyphs" textLength="86" x="683" y="1035.5235">Returns: []string</text><ellipse cx="674" cy="1045.7464" fill="none" rx="3" ry="3" style="stroke: #038048; stroke-width: 1.0;"/><text fill="#000000" font-family="sans-serif" font-size="11" lengthAdjust="spacingAndGlyphs" textLength="88" x="683" y="1050.5053">Signature: string</text><ellipse cx="674" cy="1060.7283" fill="none" rx="3" ry="3" style="stroke: #038048; stroke-width: 1.0;"/><text fill="#000000" font-family="sans-serif" font-size="11" lengthAdjust="spacingAndGlyphs" textLength="73" x="683" y="1065.4872">Source: string</text><ellipse cx="674" cy="1075.7102" fill="none" rx="3" ry="3" style="stroke: #038048; stroke-width: 1.0;"/><text fill="#000000" font-family="sans-serif" font-size="11" lengthAdjust="spacingAndGlyphs" textLength="130" x="683" y="1080.4691">Complexity: *Complexity</text><line style="stroke: #A80036; stroke-width: 1.5;" x1="664" x2="818" y1="1087.6921" y2="1087.6921"/><!--MD5=[9c9e98b0eb5e2c68874d348a767e831d]
class DeclarationKind--><rect fill="#FEFECE" filter="url(#f18o2az3v919hq)" height="77.9638" id="DeclarationKind" style="stroke: #A80036; stroke-width: 1.5;" width="121" x="1212.5" y="1190"/><ellipse cx="1227.5" cy="1206" fill="#ADD1B2" rx="11" ry="11" style="stroke: #A80036; stroke-width: 1.0;"/><path d="M1230.4688,1211.6406 Q1229.8906,1211.9375 1229.25,1212.0781 Q1228.6094,1212.2344 1227.9063,1212.2344 Q1225.4063,1212.2344 1224.0781,1210.5938 Q1222.7656,1208.9375 1222.7656,1205.8125 Q1222.7656,1202.6875 1224.0781,1201.0313 Q1225.4063,1199.375 1227.9063,1199.375 Q1228.6094,1199.375 1229.25,1199.5313 Q1229.9063,1199.6875 1230.4688,1199.9844 L1230.4688,1202.7031 Q1229.8438,1202.125 1229.25,1201.8594 Q1228.6563,1201.5781 1228.0313,1201.5781 Q1226.6875,1201.5781 1226,1202.6563 Q1225.3125,1203.7188 1225.3125,1205.8125 Q1225.3125,1207.9063 1226,1208.9844 Q1226.6875,1210.0469 1228.0313,1210.0469 Q1228.6563,1210.0469 1229.25,1209.7813 Q1229.8438,1209.5 1230.4688,1208.9219 L1230.4688,1211.6406 Z "/><text fill="#000000" font-family="sans-serif" font-size="12" lengthAdjust="spacingAndGlyphs" textLength="89" x="1241.5" y="1210.656">DeclarationKind</text><line style="stroke: #A80036; stroke-width: 1.5;" x1="1213.5" x2="1332.5" y1="1222" y2="1222"/><rect fill="none" height="6" style="stroke: #C82930; stroke-width: 1.0;" width="6" x="1220.5" y="1230"/><text fill="#000000" font-family="sans-serif" font-size="11" lengthAdjust="spacingAndGlyphs" textLength="60" x="1232.5" y="1237.7589">type: string</text><line style="stroke: #A80036; stroke-width: 1.5;" x1="1213.5" x2="1332.5" y1="1244.9819" y2="1244.9819"/><ellipse cx="1223.5" cy="1255.9819" fill="#84BE84" rx="3" ry="3" style="stroke: #038048; stroke-width: 1.0;"/><text fill="#000000" font-family="sans-serif" font-size="11" lengthAdjust="spacingAndGlyphs" textLength="75" x="1232.5" y="1260.7408">String () string</text><!--MD5=[f8a408d8ad8712005ce2c3ad36fe1243]
class DeclarationList--><rect fill="#FEFECE" filter="url(#f18o2az3v919hq)" height="122.9094" id="DeclarationList" style="stroke: #A80036; stroke-width: 1.5;" width="317" x="383.5" y="591"/><ellipse cx="495.75" cy="607" fill="#ADD1B2" rx="11" ry="11" style="stroke: #A80036; stroke-width: 1.0;"/><path d="M498.7188,612.6406 Q498.1406,612.9375 497.5,613.0781 Q496.8594,613.2344 496.1563,613.2344 Q493.6563,613.2344 492.3281,611.5938 Q491.0156,609.9375 491.0156,606.8125 Q491.0156,603.6875 492.3281,602.0313 Q493.6563,600.375 496.1563,600.375 Q496.8594,600.375 497.5,600.5313 Q498.1563,600.6875 498.7188,600.9844 L498.7188,603.7031 Q498.0938,603.125 497.5,602.8594 Q496.9063,602.5781 496.2813,602.5781 Q494.9375,602.5781 494.25,603.6563 Q493.5625,604.7188 493.5625,606.8125 Q493.5625,608.9063 494.25,609.9844 Q494.9375,611.0469 496.2813,611.0469 Q496.9063,611.0469 497.5,610.7813 Q498.0938,610.5 498.7188,609.9219 L498.7188,612.6406 Z "/><text fill="#000000" font-family="sans-serif" font-size="12" lengthAdjust="spacingAndGlyphs" textLength="84" x="516.25" y="611.656">DeclarationList</text><line style="stroke: #A80036; stroke-width: 1.5;" x1="384.5" x2="699.5" y1="623" y2="623"/><rect fill="none" height="6" style="stroke: #C82930; stroke-width: 1.0;" width="6" x="391.5" y="631"/><text fill="#000000" font-family="sans-serif" font-size="11" lengthAdjust="spacingAndGlyphs" textLength="103" x="403.5" y="638.7589">type: []*Declaration</text><line style="stroke: #A80036; stroke-width: 1.5;" x1="384.5" x2="699.5" y1="645.9819" y2="645.9819"/><ellipse cx="394.5" cy="656.9819" fill="#84BE84" rx="3" ry="3" style="stroke: #038048; stroke-width: 1.0;"/><text fill="#000000" font-family="sans-serif" font-size="11" lengthAdjust="spacingAndGlyphs" textLength="134" x="403.5" y="661.7408">Exported () []*Declaration</text><ellipse cx="394.5" cy="671.9638" fill="#84BE84" rx="3" ry="3" style="stroke: #038048; stroke-width: 1.0;"/><text fill="#000000" font-family="sans-serif" font-size="11" lengthAdjust="spacingAndGlyphs" textLength="291" x="403.5" y="676.7227">Filter (matchfn func(d *Declaration) bool) []*Declaration</text><ellipse cx="394.5" cy="686.9457" fill="#84BE84" rx="3" ry="3" style="stroke: #038048; stroke-width: 1.0;"/><text fill="#000000" font-family="sans-serif" font-size="11" lengthAdjust="spacingAndGlyphs" textLength="279" x="403.5" y="691.7046">Find (matchfn func(d *Declaration) bool) *Declaration</text><ellipse cx="394.5" cy="701.9276" fill="#84BE84" rx="3" ry="3" style="stroke: #038048; stroke-width: 1.0;"/><text fill="#000000" font-family="sans-serif" font-size="11" lengthAdjust="spacingAndGlyphs" textLength="185" x="403.5" y="706.6865">Walk (matchfn func(d *Declaration))</text><!--MD5=[af22135d5be6ed11ccd2d02fa51653b3]
class Definition--><rect fill="#FEFECE" filter="url(#f18o2az3v919hq)" height="137.8913" id="Definition" style="stroke: #A80036; stroke-width: 1.5;" width="145" x="313.5" y="374"/><ellipse cx="355.05" cy="390" fill="#ADD1B2" rx="11" ry="11" style="stroke: #A80036; stroke-width: 1.0;"/><path d="M358.0188,395.6406 Q357.4406,395.9375 356.8,396.0781 Q356.1594,396.2344 355.4563,396.2344 Q352.9563,396.2344 351.6281,394.5938 Q350.3156,392.9375 350.3156,389.8125 Q350.3156,386.6875 351.6281,385.0313 Q352.9563,383.375 355.4563,383.375 Q356.1594,383.375 356.8,383.5313 Q357.4563,383.6875 358.0188,383.9844 L358.0188,386.7031 Q357.3938,386.125 356.8,385.8594 Q356.2063,385.5781 355.5813,385.5781 Q354.2375,385.5781 353.55,386.6563 Q352.8625,387.7188 352.8625,389.8125 Q352.8625,391.9063 353.55,392.9844 Q354.2375,394.0469 355.5813,394.0469 Q356.2063,394.0469 356.8,393.7813 Q357.3938,393.5 358.0188,392.9219 L358.0188,395.6406 Z "/><text fill="#000000" font-family="sans-serif" font-size="12" lengthAdjust="spacingAndGlyphs" textLength="54" x="374.95" y="394.656">Definition</text><line style="stroke: #A80036; stroke-width: 1.5;" x1="314.5" x2="457.5" y1="406" y2="406"/><ellipse cx="324.5" cy="417" fill="none" rx="3" ry="3" style="stroke: #038048; stroke-width: 1.0;"/><text fill="#000000" font-family="sans-serif" font-size="11" lengthAdjust="spacingAndGlyphs" textLength="57" x="333.5" y="421.7589">Doc: string</text><ellipse cx="324.5" cy="431.9819" fill="none" rx="3" ry="3" style="stroke: #038048; stroke-width: 1.0;"/><text fill="#000000" font-family="sans-serif" font-size="11" lengthAdjust="spacingAndGlyphs" textLength="96" x="333.5" y="436.7408">Imports: StringSet</text><ellipse cx="324.5" cy="446.9638" fill="none" rx="3" ry="3" style="stroke: #038048; stroke-width: 1.0;"/><text fill="#000000" font-family="sans-serif" font-size="11" lengthAdjust="spacingAndGlyphs" textLength="114" x="333.5" y="451.7227">Types: DeclarationList</text><ellipse cx="324.5" cy="461.9457" fill="none" rx="3" ry="3" style="stroke: #038048; stroke-width: 1.0;"/><text fill="#000000" font-family="sans-serif" font-size="11" lengthAdjust="spacingAndGlyphs" textLength="119" x="333.5" y="466.7046">Consts: DeclarationList</text><ellipse cx="324.5" cy="476.9276" fill="none" rx="3" ry="3" style="stroke: #038048; stroke-width: 1.0;"/><text fill="#000000" font-family="sans-serif" font-size="11" lengthAdjust="spacingAndGlyphs" textLength="107" x="333.5" y="481.6865">Vars: DeclarationList</text><ellipse cx="324.5" cy="491.9094" fill="none" rx="3" ry="3" style="stroke: #038048; stroke-width: 1.0;"/><text fill="#000000" font-family="sans-serif" font-size="11" lengthAdjust="spacingAndGlyphs" textLength="114" x="333.5" y="496.6684">Funcs: DeclarationList</text><line style="stroke: #A80036; stroke-width: 1.5;" x1="314.5" x2="457.5" y1="503.8913" y2="503.8913"/><!--MD5=[d9427b671d7d049aff2d6f2fe36a13b3]
class Field--><rect fill="#FEFECE" filter="url(#f18o2az3v919hq)" height="167.8551" id="Field" style="stroke: #A80036; stroke-width: 1.5;" width="119" x="876.5" y="1362"/><ellipse cx="918.95" cy="1378" fill="#ADD1B2" rx="11" ry="11" style="stroke: #A80036; stroke-width: 1.0;"/><path d="M921.9188,1383.6406 Q921.3406,1383.9375 920.7,1384.0781 Q920.0594,1384.2344 919.3563,1384.2344 Q916.8563,1384.2344 915.5281,1382.5938 Q914.2156,1380.9375 914.2156,1377.8125 Q914.2156,1374.6875 915.5281,1373.0313 Q916.8563,1371.375 919.3563,1371.375 Q920.0594,1371.375 920.7,1371.5313 Q921.3563,1371.6875 921.9188,1371.9844 L921.9188,1374.7031 Q921.2938,1374.125 920.7,1373.8594 Q920.1063,1373.5781 919.4813,1373.5781 Q918.1375,1373.5781 917.45,1374.6563 Q916.7625,1375.7188 916.7625,1377.8125 Q916.7625,1379.9063 917.45,1380.9844 Q918.1375,1382.0469 919.4813,1382.0469 Q920.1063,1382.0469 920.7,1381.7813 Q921.2938,1381.5 921.9188,1380.9219 L921.9188,1383.6406 Z "/><text fill="#000000" font-family="sans-serif" font-size="12" lengthAdjust="spacingAndGlyphs" textLength="26" x="939.05" y="1382.656">Field</text><line style="stroke: #A80036; stroke-width: 1.5;" x1="877.5" x2="994.5" y1="1394" y2="1394"/><ellipse cx="887.5" cy="1405" fill="none" rx="3" ry="3" style="stroke: #038048; stroke-width: 1.0;"/><text fill="#000000" font-family="sans-serif" font-size="11" lengthAdjust="spacingAndGlyphs" textLength="67" x="896.5" y="1409.7589">Name: string</text><ellipse cx="887.5" cy="1419.9819" fill="none" rx="3" ry="3" style="stroke: #038048; stroke-width: 1.0;"/><text fill="#000000" font-family="sans-serif" font-size="11" lengthAdjust="spacingAndGlyphs" textLength="62" x="896.5" y="1424.7408">Type: string</text><ellipse cx="887.5" cy="1434.9638" fill="none" rx="3" ry="3" style="stroke: #038048; stroke-width: 1.0;"/><text fill="#000000" font-family="sans-serif" font-size="11" lengthAdjust="spacingAndGlyphs" textLength="61" x="896.5" y="1439.7227">Path: string</text><ellipse cx="887.5" cy="1449.9457" fill="none" rx="3" ry="3" style="stroke: #038048; stroke-width: 1.0;"/><text fill="#000000" font-family="sans-serif" font-size="11" lengthAdjust="spacingAndGlyphs" textLength="57" x="896.5" y="1454.7046">Doc: string</text><ellipse cx="887.5" cy="1464.9276" fill="none" rx="3" ry="3" style="stroke: #038048; stroke-width: 1.0;"/><text fill="#000000" font-family="sans-serif" font-size="11" lengthAdjust="spacingAndGlyphs" textLength="88" x="896.5" y="1469.6865">Comment: string</text><ellipse cx="887.5" cy="1479.9094" fill="none" rx="3" ry="3" style="stroke: #038048; stroke-width: 1.0;"/><text fill="#000000" font-family="sans-serif" font-size="11" lengthAdjust="spacingAndGlyphs" textLength="56" x="896.5" y="1484.6684">Tag: string</text><ellipse cx="887.5" cy="1494.8913" fill="none" rx="3" ry="3" style="stroke: #038048; stroke-width: 1.0;"/><text fill="#000000" font-family="sans-serif" font-size="11" lengthAdjust="spacingAndGlyphs" textLength="93" x="896.5" y="1499.6502">JSONName: string</text><ellipse cx="887.5" cy="1509.8732" fill="none" rx="3" ry="3" style="stroke: #038048; stroke-width: 1.0;"/><text fill="#000000" font-family="sans-serif" font-size="11" lengthAdjust="spacingAndGlyphs" textLength="79" x="896.5" y="1514.6321">MapKey: string</text><line style="stroke: #A80036; stroke-width: 1.5;" x1="877.5" x2="994.5" y1="1521.8551" y2="1521.8551"/><!--MD5=[898b628376ee89e7bc81c09a0d440f56]
class FieldList--><rect fill="#FEFECE" filter="url(#f18o2az3v919hq)" height="62.9819" id="FieldList" style="stroke: #A80036; stroke-width: 1.5;" width="94" x="781" y="1197.5"/><ellipse cx="803.65" cy="1213.5" fill="#ADD1B2" rx="11" ry="11" style="stroke: #A80036; stroke-width: 1.0;"/><path d="M806.6188,1219.1406 Q806.0406,1219.4375 805.4,1219.5781 Q804.7594,1219.7344 804.0563,1219.7344 Q801.5563,1219.7344 800.2281,1218.0938 Q798.9156,1216.4375 798.9156,1213.3125 Q798.9156,1210.1875 800.2281,1208.5313 Q801.5563,1206.875 804.0563,1206.875 Q804.7594,1206.875 805.4,1207.0313 Q806.0563,1207.1875 806.6188,1207.4844 L806.6188,1210.2031 Q805.9938,1209.625 805.4,1209.3594 Q804.8063,1209.0781 804.1813,1209.0781 Q802.8375,1209.0781 802.15,1210.1563 Q801.4625,1211.2188 801.4625,1213.3125 Q801.4625,1215.4063 802.15,1216.4844 Q802.8375,1217.5469 804.1813,1217.5469 Q804.8063,1217.5469 805.4,1217.2813 Q805.9938,1217 806.6188,1216.4219 L806.6188,1219.1406 Z "/><text fill="#000000" font-family="sans-serif" font-size="12" lengthAdjust="spacingAndGlyphs" textLength="45" x="819.35" y="1218.156">FieldList</text><line style="stroke: #A80036; stroke-width: 1.5;" x1="782" x2="874" y1="1229.5" y2="1229.5"/><rect fill="none" height="6" style="stroke: #C82930; stroke-width: 1.0;" width="6" x="789" y="1237.5"/><text fill="#000000" font-family="sans-serif" font-size="11" lengthAdjust="spacingAndGlyphs" textLength="68" x="801" y="1245.2589">type: []*Field</text><line style="stroke: #A80036; stroke-width: 1.5;" x1="782" x2="874" y1="1252.4819" y2="1252.4819"/><!--MD5=[4e2ad48a1abc117fdc6f339da0f64213]
class Package--><rect fill="#FEFECE" filter="url(#f18o2az3v919hq)" height="197.8189" id="Package" style="stroke: #A80036; stroke-width: 1.5;" width="156" x="56" y="97"/><ellipse cx="106.25" cy="113" fill="#ADD1B2" rx="11" ry="11" style="stroke: #A80036; stroke-width: 1.0;"/><path d="M109.2188,118.6406 Q108.6406,118.9375 108,119.0781 Q107.3594,119.2344 106.6563,119.2344 Q104.1563,119.2344 102.8281,117.5938 Q101.5156,115.9375 101.5156,112.8125 Q101.5156,109.6875 102.8281,108.0313 Q104.1563,106.375 106.6563,106.375 Q107.3594,106.375 108,106.5313 Q108.6563,106.6875 109.2188,106.9844 L109.2188,109.7031 Q108.5938,109.125 108,108.8594 Q107.4063,108.5781 106.7813,108.5781 Q105.4375,108.5781 104.75,109.6563 Q104.0625,110.7188 104.0625,112.8125 Q104.0625,114.9063 104.75,115.9844 Q105.4375,117.0469 106.7813,117.0469 Q107.4063,117.0469 108,116.7813 Q108.5938,116.5 109.2188,115.9219 L109.2188,118.6406 Z "/><text fill="#000000" font-family="sans-serif" font-size="12" lengthAdjust="spacingAndGlyphs" textLength="47" x="126.75" y="117.656">Package</text><line style="stroke: #A80036; stroke-width: 1.5;" x1="57" x2="211" y1="129" y2="129"/><ellipse cx="67" cy="140" fill="none" rx="3" ry="3" style="stroke: #038048; stroke-width: 1.0;"/><text fill="#000000" font-family="sans-serif" font-size="11" lengthAdjust="spacingAndGlyphs" textLength="49" x="76" y="144.7589">ID: string</text><ellipse cx="67" cy="154.9819" fill="none" rx="3" ry="3" style="stroke: #038048; stroke-width: 1.0;"/><text fill="#000000" font-family="sans-serif" font-size="11" lengthAdjust="spacingAndGlyphs" textLength="80" x="76" y="159.7408">Package: string</text><ellipse cx="67" cy="169.9638" fill="none" rx="3" ry="3" style="stroke: #038048; stroke-width: 1.0;"/><text fill="#000000" font-family="sans-serif" font-size="11" lengthAdjust="spacingAndGlyphs" textLength="98" x="76" y="174.7227">ImportPath: string</text><ellipse cx="67" cy="184.9457" fill="none" rx="3" ry="3" style="stroke: #038048; stroke-width: 1.0;"/><text fill="#000000" font-family="sans-serif" font-size="11" lengthAdjust="spacingAndGlyphs" textLength="61" x="76" y="189.7046">Path: string</text><ellipse cx="67" cy="199.9276" fill="none" rx="3" ry="3" style="stroke: #038048; stroke-width: 1.0;"/><text fill="#000000" font-family="sans-serif" font-size="11" lengthAdjust="spacingAndGlyphs" textLength="94" x="76" y="204.6865">TestPackage: bool</text><ellipse cx="67" cy="214.9094" fill="none" rx="3" ry="3" style="stroke: #038048; stroke-width: 1.0;"/><text fill="#000000" font-family="sans-serif" font-size="11" lengthAdjust="spacingAndGlyphs" textLength="130" x="76" y="219.6684">Complexity: *Complexity</text><ellipse cx="67" cy="229.8913" fill="none" rx="3" ry="3" style="stroke: #038048; stroke-width: 1.0;"/><text fill="#000000" font-family="sans-serif" font-size="11" lengthAdjust="spacingAndGlyphs" textLength="126" x="76" y="234.6502">Pkg: *packages.Package</text><line style="stroke: #A80036; stroke-width: 1.5;" x1="57" x2="211" y1="241.8732" y2="241.8732"/><ellipse cx="67" cy="252.8732" fill="#84BE84" rx="3" ry="3" style="stroke: #038048; stroke-width: 1.0;"/><text fill="#000000" font-family="sans-serif" font-size="11" lengthAdjust="spacingAndGlyphs" textLength="121" x="76" y="257.6321">Equal (in Package) bool</text><ellipse cx="67" cy="267.8551" fill="#84BE84" rx="3" ry="3" style="stroke: #038048; stroke-width: 1.0;"/><text fill="#000000" font-family="sans-serif" font-size="11" lengthAdjust="spacingAndGlyphs" textLength="73" x="76" y="272.614">Name () string</text><ellipse cx="67" cy="282.837" fill="#84BE84" rx="3" ry="3" style="stroke: #038048; stroke-width: 1.0;"/><text fill="#000000" font-family="sans-serif" font-size="11" lengthAdjust="spacingAndGlyphs" textLength="75" x="76" y="287.5959">String () string</text><!--MD5=[87fbbd40529fac58103832b10b21b03a]
class StringSet--><rect fill="#FEFECE" filter="url(#f18o2az3v919hq)" height="107.9276" id="StringSet" style="stroke: #A80036; stroke-width: 1.5;" width="202" x="450" y="1175"/><ellipse cx="521.25" cy="1191" fill="#ADD1B2" rx="11" ry="11" style="stroke: #A80036; stroke-width: 1.0;"/><path d="M524.2188,1196.6406 Q523.6406,1196.9375 523,1197.0781 Q522.3594,1197.2344 521.6563,1197.2344 Q519.1563,1197.2344 517.8281,1195.5938 Q516.5156,1193.9375 516.5156,1190.8125 Q516.5156,1187.6875 517.8281,1186.0313 Q519.1563,1184.375 521.6563,1184.375 Q522.3594,1184.375 523,1184.5313 Q523.6563,1184.6875 524.2188,1184.9844 L524.2188,1187.7031 Q523.5938,1187.125 523,1186.8594 Q522.4063,1186.5781 521.7813,1186.5781 Q520.4375,1186.5781 519.75,1187.6563 Q519.0625,1188.7188 519.0625,1190.8125 Q519.0625,1192.9063 519.75,1193.9844 Q520.4375,1195.0469 521.7813,1195.0469 Q522.4063,1195.0469 523,1194.7813 Q523.5938,1194.5 524.2188,1193.9219 L524.2188,1196.6406 Z "/><text fill="#000000" font-family="sans-serif" font-size="12" lengthAdjust="spacingAndGlyphs" textLength="51" x="541.75" y="1195.656">StringSet</text><line style="stroke: #A80036; stroke-width: 1.5;" x1="451" x2="651" y1="1207" y2="1207"/><rect fill="none" height="6" style="stroke: #C82930; stroke-width: 1.0;" width="6" x="458" y="1215"/><text fill="#000000" font-family="sans-serif" font-size="11" lengthAdjust="spacingAndGlyphs" textLength="130" x="470" y="1222.7589">type: map[string][]string</text><line style="stroke: #A80036; stroke-width: 1.5;" x1="451" x2="651" y1="1229.9819" y2="1229.9819"/><ellipse cx="461" cy="1240.9819" fill="#84BE84" rx="3" ry="3" style="stroke: #038048; stroke-width: 1.0;"/><text fill="#000000" font-family="sans-serif" font-size="11" lengthAdjust="spacingAndGlyphs" textLength="64" x="470" y="1245.7408">All () []string</text><ellipse cx="461" cy="1255.9638" fill="#84BE84" rx="3" ry="3" style="stroke: #038048; stroke-width: 1.0;"/><text fill="#000000" font-family="sans-serif" font-size="11" lengthAdjust="spacingAndGlyphs" textLength="121" x="470" y="1260.7227">Get (key string) []string</text><ellipse cx="461" cy="1270.9457" fill="#84BE84" rx="3" ry="3" style="stroke: #038048; stroke-width: 1.0;"/><text fill="#000000" font-family="sans-serif" font-size="11" lengthAdjust="spacingAndGlyphs" textLength="176" x="470" y="1275.7046">Map () (map[string]string, []error)</text><path d="M735.5,638.5 L735.5,666.206 A0,0 0 0 0 735.5,666.206 L883.03,666.206 L819.11,795.45 L891.03,666.206 L1052.5,666.206 A0,0 0 0 0 1052.5,666.206 L1052.5,648.5 L1042.5,638.5 L735.5,638.5 A0,0 0 0 0 735.5,638.5 " fill="#FBFB77" filter="url(#f18o2az3v919hq)" style="stroke: #A80036; stroke-width: 1.0;"/><path d="M1042.5,638.5 L1042.5,648.5 L1052.5,648.5 L1042.5,638.5 " fill="#FBFB77" style="stroke: #A80036; stroke-width: 1.0;"/><text fill="#000000" font-family="sans-serif" font-size="13" lengthAdjust="spacingAndGlyphs" textLength="296" x="741.5" y="657.397">Declaration holds information about a go symbol.</text><path d="M1121,930.5 L1121,958.206 A0,0 0 0 0 1121,958.206 L1269,958.206 L1273,1189.78 L1277,958.206 L1425,958.206 A0,0 0 0 0 1425,958.206 L1425,940.5 L1415,930.5 L1121,930.5 A0,0 0 0 0 1121,930.5 " fill="#FBFB77" filter="url(#f18o2az3v919hq)" style="stroke: #A80036; stroke-width: 1.0;"/><path d="M1415,930.5 L1415,940.5 L1425,940.5 L1415,930.5 " fill="#FBFB77" style="stroke: #A80036; stroke-width: 1.0;"/><text fill="#000000" font-family="sans-serif" font-size="13" lengthAdjust="spacingAndGlyphs" textLength="283" x="1127" y="949.397">DeclarationKind is an enum of go symbol types.</text><path d="M493.5,429 L493.5,456.706 L760.5,456.706 L760.5,439 L750.5,429 L493.5,429 " fill="#FBFB77" filter="url(#f18o2az3v919hq)" style="stroke: #A80036; stroke-width: 1.0;"/><path d="M750.5,429 L750.5,439 L760.5,439 L750.5,429 " fill="#FBFB77" style="stroke: #A80036; stroke-width: 1.0;"/><text fill="#000000" font-family="sans-serif" font-size="13" lengthAdjust="spacingAndGlyphs" textLength="246" x="499.5" y="447.897">DeclarationList holds a list of Go symbols.</text><path d="M247,182 L247,209.706 A0,0 0 0 0 247,209.706 L400.92,209.706 L391.57,373.83 L408.92,209.706 L565,209.706 A0,0 0 0 0 565,209.706 L565,192 L555,182 L247,182 A0,0 0 0 0 247,182 " fill="#FBFB77" filter="url(#f18o2az3v919hq)" style="stroke: #A80036; stroke-width: 1.0;"/><path d="M555,182 L555,192 L565,192 L555,182 " fill="#FBFB77" style="stroke: #A80036; stroke-width: 1.0;"/><text fill="#000000" font-family="sans-serif" font-size="13" lengthAdjust="spacingAndGlyphs" textLength="297" x="253" y="200.897">Definition holds all symbols defined for a Package.</text><path d="M910.5,1215 L910.5,1242.706 A0,0 0 0 0 910.5,1242.706 L1033.41,1242.706 L977.78,1361.83 L1041.41,1242.706 L1177.5,1242.706 A0,0 0 0 0 1177.5,1242.706 L1177.5,1225 L1167.5,1215 L910.5,1215 A0,0 0 0 0 910.5,1215 " fill="#FBFB77" filter="url(#f18o2az3v919hq)" style="stroke: #A80036; stroke-width: 1.0;"/><path d="M1167.5,1215 L1167.5,1225 L1177.5,1225 L1167.5,1215 " fill="#FBFB77" style="stroke: #A80036; stroke-width: 1.0;"/><text fill="#000000" font-family="sans-serif" font-size="13" lengthAdjust="spacingAndGlyphs" textLength="246" x="916.5" y="1233.897">Field holds details about a field definition.</text><path d="M854.5,930.5 L854.5,958.206 L1069.5,958.206 L1069.5,940.5 L1059.5,930.5 L854.5,930.5 " fill="#FBFB77" filter="url(#f18o2az3v919hq)" style="stroke: #A80036; stroke-width: 1.0;"/><path d="M1059.5,930.5 L1059.5,940.5 L1069.5,940.5 L1059.5,930.5 " fill="#FBFB77" style="stroke: #A80036; stroke-width: 1.0;"/><text fill="#000000" font-family="sans-serif" font-size="13" lengthAdjust="spacingAndGlyphs" textLength="194" x="860.5" y="949.397">FieldList contains all struct fields.</text><path d="M6,8 L6,35.706 A0,0 0 0 0 6,35.706 L130,35.706 L134,96.66 L138,35.706 L262,35.706 A0,0 0 0 0 262,35.706 L262,18 L252,8 L6,8 A0,0 0 0 0 6,8 " fill="#FBFB77" filter="url(#f18o2az3v919hq)" style="stroke: #A80036; stroke-width: 1.0;"/><path d="M252,8 L252,18 L262,18 L252,8 " fill="#FBFB77" style="stroke: #A80036; stroke-width: 1.0;"/><text fill="#000000" font-family="sans-serif" font-size="13" lengthAdjust="spacingAndGlyphs" textLength="235" x="12" y="26.897">Package holds go package information.</text><path d="M310,930.5 L310,958.206 L628,958.206 L628,940.5 L618,930.5 L310,930.5 " fill="#FBFB77" filter="url(#f18o2az3v919hq)" style="stroke: #A80036; stroke-width: 1.0;"/><path d="M618,930.5 L618,940.5 L628,940.5 L618,930.5 " fill="#FBFB77" style="stroke: #A80036; stroke-width: 1.0;"/><text fill="#000000" font-family="sans-serif" font-size="13" lengthAdjust="spacingAndGlyphs" textLength="297" x="316" y="949.397">StringSet provides a key based unique string slice.</text><!--MD5=[d9f78b9da14621c57381f59b7c8a7fdc]
link Declaration to DeclarationKind--><path d="M819.26,1081.46 C824.87,1086.75 830.78,1091.65 837,1096 C970.54,1189.35 1045.37,1110.5 1195,1175 C1202.72,1178.33 1210.48,1182.45 1217.95,1186.92 " fill="none" id="Declaration-&gt;DeclarationKind" style="stroke: #A80036; stroke-width: 1.0;"/><polygon fill="#A80036" points="1222.57,1189.74,1216.9817,1181.63,1218.3054,1187.1299,1212.8055,1188.4535,1222.57,1189.74" style="stroke: #A80036; stroke-width: 1.0;"/><text fill="#000000" font-family="sans-serif" font-size="13" lengthAdjust="spacingAndGlyphs" textLength="27" x="965" y="1140.897">Kind</text><!--MD5=[d721c22160e62944470777e4365534ba]
link Declaration to StringSet--><path d="M662.92,1069.03 C656.91,1078.19 650.89,1087.26 645,1096 C628.34,1120.7 609.38,1147.56 592.87,1170.56 " fill="none" id="Declaration-&gt;StringSet" style="stroke: #A80036; stroke-width: 1.0;"/><polygon fill="#A80036" points="589.81,1174.81,598.3209,1169.8537,592.7364,1170.7559,591.8342,1165.1714,589.81,1174.81" style="stroke: #A80036; stroke-width: 1.0;"/><text fill="#000000" font-family="sans-serif" font-size="13" lengthAdjust="spacingAndGlyphs" textLength="65" x="624" y="1140.897">References</text><!--MD5=[d721c22160e62944470777e4365534ba]
link Declaration to StringSet--><path d="M723.14,1096.15 C716.94,1113.61 708.76,1130.38 698,1145 C686.96,1159.99 672.35,1172.66 656.62,1183.22 " fill="none" id="Declaration-&gt;StringSet-1" style="stroke: #A80036; stroke-width: 1.0;"/><polygon fill="#A80036" points="652.15,1186.15,661.8676,1184.5476,656.3278,1183.403,657.4724,1177.8631,652.15,1186.15" style="stroke: #A80036; stroke-width: 1.0;"/><text fill="#000000" font-family="sans-serif" font-size="13" lengthAdjust="spacingAndGlyphs" textLength="44" x="711" y="1140.897">Globals</text><!--MD5=[fb26886f863d0c2d14a29bb11a9c8f0c]
link Declaration to FieldList--><path d="M787.43,1096.26 C798.55,1132.38 809.42,1167.66 817.1,1192.61 " fill="none" id="Declaration-&gt;FieldList" style="stroke: #A80036; stroke-width: 1.0;"/><polygon fill="#A80036" points="818.59,1197.46,819.7602,1187.6809,817.1166,1192.682,812.1154,1190.0384,818.59,1197.46" style="stroke: #A80036; stroke-width: 1.0;"/><text fill="#000000" font-family="sans-serif" font-size="13" lengthAdjust="spacingAndGlyphs" textLength="34" x="804" y="1140.897">Fields</text><!--MD5=[7e615e84b3537c1680515fc501ba3940]
link Declaration to Complexity--><path d="M662.81,1080.75 C657.18,1086.27 651.24,1091.41 645,1096 C604.19,1126.04 582.96,1109.63 535,1126 C471.62,1147.63 401.19,1177.3 351.81,1199.06 " fill="none" id="Declaration-&gt;Complexity" style="stroke: #A80036; stroke-width: 1.0;"/><polygon fill="#A80036" points="347.09,1201.14,356.9388,1201.1715,351.6655,1199.1239,353.7131,1193.8506,347.09,1201.14" style="stroke: #A80036; stroke-width: 1.0;"/><text fill="#000000" font-family="sans-serif" font-size="13" lengthAdjust="spacingAndGlyphs" textLength="68" x="536" y="1140.897">Complexity</text><!--MD5=[b9041fe517dc0921b8f46db285911730]
link DeclarationList to Declaration--><path d="M513.5,714.08 C509.61,731.32 510.11,749.16 521,763 C556.06,807.56 598.86,760.05 645,793 C649.93,796.52 654.66,800.38 659.2,804.5 " fill="none" id="DeclarationList-&gt;Declaration" style="stroke: #A80036; stroke-width: 1.0;"/><polygon fill="#A80036" points="662.97,808.02,659.121,798.9544,659.3152,804.6079,653.6617,804.8021,662.97,808.02" style="stroke: #A80036; stroke-width: 1.0;"/><text fill="#000000" font-family="sans-serif" font-size="13" lengthAdjust="spacingAndGlyphs" textLength="27" x="522" y="758.897">type</text><!--MD5=[b9041fe517dc0921b8f46db285911730]
link DeclarationList to Declaration--><path d="M560.32,714.27 C567.58,731.42 577.3,749.16 590,763 C608.82,783.52 624.65,774 645,793 C649.96,797.64 654.78,802.58 659.44,807.75 " fill="none" id="DeclarationList-&gt;Declaration-1" style="stroke: #A80036; stroke-width: 1.0;"/><polygon fill="#A80036" points="662.97,811.74,659.9982,802.3502,659.6553,807.9967,654.0088,807.6538,662.97,811.74" style="stroke: #A80036; stroke-width: 1.0;"/><text fill="#000000" font-family="sans-serif" font-size="13" lengthAdjust="spacingAndGlyphs" textLength="63" x="591" y="758.897">Exported()</text><!--MD5=[b9041fe517dc0921b8f46db285911730]
link DeclarationList to Declaration--><path d="M631.06,714.08 C641.27,723.34 650.91,733.38 659,744 C669.29,757.5 678.5,772.46 686.7,787.96 " fill="none" id="DeclarationList-&gt;Declaration-2" style="stroke: #A80036; stroke-width: 1.0;"/><polygon fill="#A80036" points="689.21,792.79,688.5867,782.9609,686.8942,788.3586,681.4965,786.6661,689.21,792.79" style="stroke: #A80036; stroke-width: 1.0;"/><text fill="#000000" font-family="sans-serif" font-size="13" lengthAdjust="spacingAndGlyphs" textLength="38" x="671" y="758.897">Filter()</text><!--MD5=[b9041fe517dc0921b8f46db285911730]
link DeclarationList to Declaration--><path d="M690.15,714.26 C700.75,722.97 710.28,732.84 718,744 C727.21,757.32 733.84,772.37 738.52,788.08 " fill="none" id="DeclarationList-&gt;Declaration-3" style="stroke: #A80036; stroke-width: 1.0;"/><polygon fill="#A80036" points="739.91,792.98,741.318,783.2323,738.5534,788.1676,733.6181,785.4029,739.91,792.98" style="stroke: #A80036; stroke-width: 1.0;"/><text fill="#000000" font-family="sans-serif" font-size="13" lengthAdjust="spacingAndGlyphs" textLength="34" x="730" y="758.897">Find()</text><!--MD5=[daed41ae2187719c20a62a0e702cd5c4]
link GMN23 to DeclarationList--><path d="M624.95,457.04 C621.21,479.09 612.22,524.86 597,561 C592.79,571 587.6,581.19 582.1,590.97 " fill="none" id="GMN23-DeclarationList" style="stroke: #A80036; stroke-width: 1.0; stroke-dasharray: 7.0,7.0;"/><!--MD5=[da7bc372dee29211e58209bfeeaf8008]
link Package to Definition--><path d="M212.24,278.32 C217.88,283.99 223.51,289.6 229,295 C251.28,316.9 275.77,340.19 298.64,361.62 " fill="none" id="Package-&gt;Definition" style="stroke: #A80036; stroke-width: 1.0;"/><polygon fill="none" points="303.56,356.63,313.4,375.4,294.01,366.86,303.56,356.63" style="stroke: #A80036; stroke-width: 1.0;"/><text fill="#000000" font-family="sans-serif" font-size="13" lengthAdjust="spacingAndGlyphs" textLength="75" x="277" y="339.897">embeded by</text><!--MD5=[f7f4336b1fb381e3517df5c361285d48]
link Definition to StringSet--><path d="M343.74,512.16 C338.88,521.93 334.44,532.04 331,542 C250.37,775.29 163.04,885.53 292,1096 C325.34,1150.41 388.92,1183.27 444.74,1202.6 " fill="none" id="Definition-&gt;StringSet" style="stroke: #A80036; stroke-width: 1.0;"/><polygon fill="#A80036" points="449.77,1204.31,442.5388,1197.6234,445.0367,1202.699,439.9611,1205.1968,449.77,1204.31" style="stroke: #A80036; stroke-width: 1.0;"/><text fill="#000000" font-family="sans-serif" font-size="13" lengthAdjust="spacingAndGlyphs" textLength="48" x="257" y="758.897">Imports</text><!--MD5=[31480ef542df25c1d1f73cd61f470346]
link Definition to DeclarationList--><path d="M382.75,512.05 C384.6,529.04 389,546.52 398,561 C403.89,570.48 411.19,579.14 419.34,587.01 " fill="none" id="Definition-&gt;DeclarationList" style="stroke: #A80036; stroke-width: 1.0;"/><polygon fill="#A80036" points="423.41,590.81,419.561,581.7444,419.7552,587.3979,414.1017,587.5921,423.41,590.81" style="stroke: #A80036; stroke-width: 1.0;"/><text fill="#000000" font-family="sans-serif" font-size="13" lengthAdjust="spacingAndGlyphs" textLength="35" x="399" y="556.897">Types</text><!--MD5=[31480ef542df25c1d1f73cd61f470346]
link Definition to DeclarationList--><path d="M437.3,512.23 C455.35,536.24 475.56,563.13 493.38,586.84 " fill="none" id="Definition-&gt;DeclarationList-1" style="stroke: #A80036; stroke-width: 1.0;"/><polygon fill="#A80036" points="496.45,590.92,494.25,581.32,493.45,586.92,487.85,586.12,496.45,590.92" style="stroke: #A80036; stroke-width: 1.0;"/><text fill="#000000" font-family="sans-serif" font-size="13" lengthAdjust="spacingAndGlyphs" textLength="41" x="475" y="556.897">Consts</text><!--MD5=[31480ef542df25c1d1f73cd61f470346]
link Definition to DeclarationList--><path d="M458.87,499.72 C464.63,503.93 470.39,508.06 476,512 C495.97,526.03 508.49,521.67 522,542 C530.56,554.87 535.72,570.38 538.77,585.63 " fill="none" id="Definition-&gt;DeclarationList-2" style="stroke: #A80036; stroke-width: 1.0;"/><polygon fill="#A80036" points="539.73,590.79,542.0163,581.2102,538.8155,585.8743,534.1513,582.6735,539.73,590.79" style="stroke: #A80036; stroke-width: 1.0;"/><text fill="#000000" font-family="sans-serif" font-size="13" lengthAdjust="spacingAndGlyphs" textLength="26" x="533" y="556.897">Vars</text><!--MD5=[31480ef542df25c1d1f73cd61f470346]
link Definition to DeclarationList--><path d="M341.72,512.09 C336.26,528.8 335.47,546.14 345,561 C354.02,575.07 365.84,586.98 379.21,597.06 " fill="none" id="Definition-&gt;DeclarationList-3" style="stroke: #A80036; stroke-width: 1.0;"/><polygon fill="#A80036" points="383.41,600.13,378.5218,591.5799,379.3793,597.1713,373.7879,598.0289,383.41,600.13" style="stroke: #A80036; stroke-width: 1.0;"/><text fill="#000000" font-family="sans-serif" font-size="13" lengthAdjust="spacingAndGlyphs" textLength="35" x="346" y="556.897">Funcs</text><!--MD5=[fabba1097c2ca551039803dc215a06d2]
link FieldList to Field--><path d="M843.47,1260.8 C856.14,1286.03 874.72,1323.01 891.91,1357.23 " fill="none" id="FieldList-&gt;Field" style="stroke: #A80036; stroke-width: 1.0;"/><polygon fill="#A80036" points="894.22,1361.82,893.7602,1351.9819,891.9782,1357.3507,886.6094,1355.5687,894.22,1361.82" style="stroke: #A80036; stroke-width: 1.0;"/><text fill="#000000" font-family="sans-serif" font-size="13" lengthAdjust="spacingAndGlyphs" textLength="27" x="880" y="1327.897">type</text><!--MD5=[81c760853b8aa7239f4a2283e029c430]
link GMN42 to FieldList--><path d="M964.22,958.88 C969.14,992.9 977.72,1084.34 940,1145 C926.91,1166.05 913.08,1160.48 893,1175 C883.44,1181.91 873.43,1189.75 864.2,1197.25 " fill="none" id="GMN42-FieldList" style="stroke: #A80036; stroke-width: 1.0; stroke-dasharray: 7.0,7.0;"/><!--MD5=[ca0441f23cfc34fc1c23efc044d9a232]
link Package to Complexity--><path d="M134,295.06 C134,339.86 134,393.62 134,442 C134,442 134,442 134,945.5 C134,1031.79 190.07,1116.8 234.55,1170.66 " fill="none" id="Package-&gt;Complexity" style="stroke: #A80036; stroke-width: 1.0;"/><polygon fill="#A80036" points="238,1174.81,235.3147,1165.3343,234.8005,1170.9677,229.167,1170.4535,238,1174.81" style="stroke: #A80036; stroke-width: 1.0;"/><text fill="#000000" font-family="sans-serif" font-size="13" lengthAdjust="spacingAndGlyphs" textLength="68" x="135" y="657.897">Complexity</text><!--MD5=[dd36c225b9a6ec68c9deafa3e3a8969b]
link GMN49 to StringSet--><path d="M467.96,958.66 C465.85,991.43 463.27,1078.81 489,1145 C492.98,1155.23 498.58,1165.29 504.8,1174.69 " fill="none" id="GMN49-StringSet" style="stroke: #A80036; stroke-width: 1.0; stroke-dasharray: 7.0,7.0;"/><!--MD5=[281bd9fb55bd33de3144ad682c306e7f]
@startuml

class Complexity {
  + Cognitive: int
  + Cyclomatic: int
  + Lines: int
  + Coverage: float64
}

class Declaration {
  + Kind: DeclarationKind
  + Type: string
  + File: string
  + SelfContained: bool
  + Imports: []string
  + References: StringSet
  + Globals: StringSet
  + Doc: string
  + Name: string
  + Names: []string
  + Receiver: string
  + Fields: FieldList
  + Arguments: []string
  + Returns: []string
  + Signature: string
  + Source: string
  + Complexity: *Complexity
}

class DeclarationKind {
  - type: string
  + String () string
}

class DeclarationList {
  - type: []*Declaration
  + Exported () []*Declaration
  + Filter (matchfn func(d *Declaration) bool) []*Declaration
  + Find (matchfn func(d *Declaration) bool) *Declaration
  + Walk (matchfn func(d *Declaration))
}

class Definition {
  + Doc: string
  + Imports: StringSet
  + Types: DeclarationList
  + Consts: DeclarationList
  + Vars: DeclarationList
  + Funcs: DeclarationList
}

class Field {
  + Name: string
  + Type: string
  + Path: string
  + Doc: string
  + Comment: string
  + Tag: string
  + JSONName: string
  + MapKey: string
}

class FieldList {
  - type: []*Field
}

class Package {
  + ID: string
  + Package: string
  + ImportPath: string
  + Path: string
  + TestPackage: bool
  + Complexity: *Complexity
  + Pkg: *packages.Package
  + Equal (in Package) bool
  + Name () string
  + String () string
}

class StringSet {
  - type: map[string][]string
  + All () []string
  + Get (key string) []string
  + Map () (map[string]string, []error)
}


Declaration - -> DeclarationKind : Kind
Declaration - -> StringSet : References
Declaration - -> StringSet : Globals
Declaration - -> FieldList : Fields
Declaration - -> Complexity : Complexity

note top of Declaration
Declaration holds information about a go symbol.
end note



note top of DeclarationKind
DeclarationKind is an enum of go symbol types.
end note


DeclarationList - -> Declaration : type

note top of DeclarationList
DeclarationList holds a list of Go symbols.
end note


DeclarationList - -> Declaration : Exported()
DeclarationList - -> Declaration : Filter()
DeclarationList - -> Declaration : Find()
Package - -|> Definition : embeded by
Definition - -> StringSet : Imports
Definition - -> DeclarationList : Types
Definition - -> DeclarationList : Consts
Definition - -> DeclarationList : Vars
Definition - -> DeclarationList : Funcs

note top of Definition
Definition holds all symbols defined for a Package.
end note



note top of Field
Field holds details about a field definition.
end note


FieldList - -> Field : type

note top of FieldList
FieldList contains all struct fields.
end note


Package - -> Complexity : Complexity

note top of Package
Package holds go package information.
end note



note top of StringSet
StringSet provides a key based unique string slice.
end note



@enduml

PlantUML version 1.2020.02(Sun Mar 01 11:22:07 CET 2020)
(GPL source distribution)
Java Runtime: OpenJDK Runtime Environment
JVM: OpenJDK 64-Bit Server VM
Java Version: 21.0.8+9-Ubuntu-0ubuntu125.04.1
Operating System: Linux
Default Encoding: UTF-8
Language: en
Country: US
--></g></svg>