<?xml version="1.0" encoding="UTF-8" standalone="no"?><svg xmlns="http://www.w3.org/2000/svg" xmlns:xlink="http://www.w3.org/1999/xlink" contentScriptType="application/ecmascript" contentStyleType="text/css" height="1341px" preserveAspectRatio="none" style="width:1094px;height:1341px;" version="1.1" viewBox="0 0 1094 1341" width="1094px" zoomAndPan="magnify"><defs><filter height="300%" id="fdggnkzh6h9os" width="300%" x="-1" y="-1"><feGaussianBlur result="blurOut" stdDeviation="2.0"/><feColorMatrix in="blurOut" result="blurOut2" type="matrix" values="0 0 0 0 0 0 0 0 0 0 0 0 0 0 0 0 0 0 .4 0"/><feOffset dx="4.0" dy="4.0" in="blurOut2" result="blurOut3"/><feBlend in="SourceGraphic" in2="blurOut3" mode="normal"/></filter></defs><g><!--MD5=[d80409f3576551ed6a455469f0519e41]
class Declaration--><rect fill="#FEFECE" filter="url(#fdggnkzh6h9os)" height="240.0703" id="Declaration" style="stroke: #A80036; stroke-width: 1.5;" width="205" x="522" y="712"/><ellipse cx="584.25" cy="728" fill="#ADD1B2" rx="11" ry="11" style="stroke: #A80036; stroke-width: 1.0;"/><path d="M587.2188,733.6406 Q586.6406,733.9375 586,734.0781 Q585.3594,734.2344 584.6563,734.2344 Q582.1563,734.2344 580.8281,732.5938 Q579.5156,730.9375 579.5156,727.8125 Q579.5156,724.6875 580.8281,723.0313 Q582.1563,721.375 584.6563,721.375 Q585.3594,721.375 586,721.5313 Q586.6563,721.6875 587.2188,721.9844 L587.2188,724.7031 Q586.5938,724.125 586,723.8594 Q585.4063,723.5781 584.7813,723.5781 Q583.4375,723.5781 582.75,724.6563 Q582.0625,725.7188 582.0625,727.8125 Q582.0625,729.9063 582.75,730.9844 Q583.4375,732.0469 584.7813,732.0469 Q585.4063,732.0469 586,731.7813 Q586.5938,731.5 587.2188,730.9219 L587.2188,733.6406 Z "/><text fill="#000000" font-family="sans-serif" font-size="12" lengthAdjust="spacingAndGlyphs" textLength="72" x="604.75" y="732.1543">Declaration</text><line style="stroke: #A80036; stroke-width: 1.5;" x1="523" x2="726" y1="744" y2="744"/><ellipse cx="533" cy="755" fill="none" rx="3" ry="3" style="stroke: #038048; stroke-width: 1.0;"/><text fill="#000000" font-family="sans-serif" font-size="11" lengthAdjust="spacingAndGlyphs" textLength="120" x="542" y="758.2104">Kind: DeclarationKind</text><ellipse cx="533" cy="767.8047" fill="none" rx="3" ry="3" style="stroke: #038048; stroke-width: 1.0;"/><text fill="#000000" font-family="sans-serif" font-size="11" lengthAdjust="spacingAndGlyphs" textLength="68" x="542" y="771.0151">Type: string</text><ellipse cx="533" cy="780.6094" fill="none" rx="3" ry="3" style="stroke: #038048; stroke-width: 1.0;"/><text fill="#000000" font-family="sans-serif" font-size="11" lengthAdjust="spacingAndGlyphs" textLength="60" x="542" y="783.8198">File: string</text><ellipse cx="533" cy="793.4141" fill="none" rx="3" ry="3" style="stroke: #038048; stroke-width: 1.0;"/><text fill="#000000" font-family="sans-serif" font-size="11" lengthAdjust="spacingAndGlyphs" textLength="111" x="542" y="796.6245">SelfContained: bool</text><ellipse cx="533" cy="806.2188" fill="none" rx="3" ry="3" style="stroke: #038048; stroke-width: 1.0;"/><text fill="#000000" font-family="sans-serif" font-size="11" lengthAdjust="spacingAndGlyphs" textLength="93" x="542" y="809.4292">Imports: []string</text><ellipse cx="533" cy="819.0234" fill="none" rx="3" ry="3" style="stroke: #038048; stroke-width: 1.0;"/><text fill="#000000" font-family="sans-serif" font-size="11" lengthAdjust="spacingAndGlyphs" textLength="179" x="542" y="822.2339">References: map[string][]string</text><ellipse cx="533" cy="831.8281" fill="none" rx="3" ry="3" style="stroke: #038048; stroke-width: 1.0;"/><text fill="#000000" font-family="sans-serif" font-size="11" lengthAdjust="spacingAndGlyphs" textLength="62" x="542" y="835.0386">Doc: string</text><ellipse cx="533" cy="844.6328" fill="none" rx="3" ry="3" style="stroke: #038048; stroke-width: 1.0;"/><text fill="#000000" font-family="sans-serif" font-size="11" lengthAdjust="spacingAndGlyphs" textLength="74" x="542" y="847.8433">Name: string</text><ellipse cx="533" cy="857.4375" fill="none" rx="3" ry="3" style="stroke: #038048; stroke-width: 1.0;"/><text fill="#000000" font-family="sans-serif" font-size="11" lengthAdjust="spacingAndGlyphs" textLength="89" x="542" y="860.6479">Names: []string</text><ellipse cx="533" cy="870.2422" fill="none" rx="3" ry="3" style="stroke: #038048; stroke-width: 1.0;"/><text fill="#000000" font-family="sans-serif" font-size="11" lengthAdjust="spacingAndGlyphs" textLength="89" x="542" y="873.4526">Receiver: string</text><ellipse cx="533" cy="883.0469" fill="none" rx="3" ry="3" style="stroke: #038048; stroke-width: 1.0;"/><text fill="#000000" font-family="sans-serif" font-size="11" lengthAdjust="spacingAndGlyphs" textLength="87" x="542" y="886.2573">Fields: FieldList</text><ellipse cx="533" cy="895.8516" fill="none" rx="3" ry="3" style="stroke: #038048; stroke-width: 1.0;"/><text fill="#000000" font-family="sans-serif" font-size="11" lengthAdjust="spacingAndGlyphs" textLength="111" x="542" y="899.062">Arguments: []string</text><ellipse cx="533" cy="908.6563" fill="none" rx="3" ry="3" style="stroke: #038048; stroke-width: 1.0;"/><text fill="#000000" font-family="sans-serif" font-size="11" lengthAdjust="spacingAndGlyphs" textLength="93" x="542" y="911.8667">Returns: []string</text><ellipse cx="533" cy="921.4609" fill="none" rx="3" ry="3" style="stroke: #038048; stroke-width: 1.0;"/><text fill="#000000" font-family="sans-serif" font-size="11" lengthAdjust="spacingAndGlyphs" textLength="96" x="542" y="924.6714">Signature: string</text><ellipse cx="533" cy="934.2656" fill="none" rx="3" ry="3" style="stroke: #038048; stroke-width: 1.0;"/><text fill="#000000" font-family="sans-serif" font-size="11" lengthAdjust="spacingAndGlyphs" textLength="81" x="542" y="937.4761">Source: string</text><line style="stroke: #A80036; stroke-width: 1.5;" x1="523" x2="726" y1="944.0703" y2="944.0703"/><!--MD5=[9c9e98b0eb5e2c68874d348a767e831d]
class DeclarationKind--><rect fill="#FEFECE" filter="url(#fdggnkzh6h9os)" height="73.6094" id="DeclarationKind" style="stroke: #A80036; stroke-width: 1.5;" width="130" x="281.5" y="1029"/><ellipse cx="296.5" cy="1045" fill="#ADD1B2" rx="11" ry="11" style="stroke: #A80036; stroke-width: 1.0;"/><path d="M299.4688,1050.6406 Q298.8906,1050.9375 298.25,1051.0781 Q297.6094,1051.2344 296.9063,1051.2344 Q294.4063,1051.2344 293.0781,1049.5938 Q291.7656,1047.9375 291.7656,1044.8125 Q291.7656,1041.6875 293.0781,1040.0313 Q294.4063,1038.375 296.9063,1038.375 Q297.6094,1038.375 298.25,1038.5313 Q298.9063,1038.6875 299.4688,1038.9844 L299.4688,1041.7031 Q298.8438,1041.125 298.25,1040.8594 Q297.6563,1040.5781 297.0313,1040.5781 Q295.6875,1040.5781 295,1041.6563 Q294.3125,1042.7188 294.3125,1044.8125 Q294.3125,1046.9063 295,1047.9844 Q295.6875,1049.0469 297.0313,1049.0469 Q297.6563,1049.0469 298.25,1048.7813 Q298.8438,1048.5 299.4688,1047.9219 L299.4688,1050.6406 Z "/><text fill="#000000" font-family="sans-serif" font-size="12" lengthAdjust="spacingAndGlyphs" textLength="98" x="310.5" y="1049.1543">DeclarationKind</text><line style="stroke: #A80036; stroke-width: 1.5;" x1="282.5" x2="410.5" y1="1061" y2="1061"/><rect fill="none" height="6" style="stroke: #C82930; stroke-width: 1.0;" width="6" x="289.5" y="1069"/><text fill="#000000" font-family="sans-serif" font-size="11" lengthAdjust="spacingAndGlyphs" textLength="65" x="301.5" y="1075.2104">type: string</text><line style="stroke: #A80036; stroke-width: 1.5;" x1="282.5" x2="410.5" y1="1081.8047" y2="1081.8047"/><ellipse cx="292.5" cy="1092.8047" fill="#84BE84" rx="3" ry="3" style="stroke: #038048; stroke-width: 1.0;"/><text fill="#000000" font-family="sans-serif" font-size="11" lengthAdjust="spacingAndGlyphs" textLength="83" x="301.5" y="1096.0151">String () string</text><!--MD5=[f8a408d8ad8712005ce2c3ad36fe1243]
class DeclarationList--><rect fill="#FEFECE" filter="url(#fdggnkzh6h9os)" height="99.2188" id="DeclarationList" style="stroke: #A80036; stroke-width: 1.5;" width="339" x="372" y="536"/><ellipse cx="490.75" cy="552" fill="#ADD1B2" rx="11" ry="11" style="stroke: #A80036; stroke-width: 1.0;"/><path d="M493.7188,557.6406 Q493.1406,557.9375 492.5,558.0781 Q491.8594,558.2344 491.1563,558.2344 Q488.6563,558.2344 487.3281,556.5938 Q486.0156,554.9375 486.0156,551.8125 Q486.0156,548.6875 487.3281,547.0313 Q488.6563,545.375 491.1563,545.375 Q491.8594,545.375 492.5,545.5313 Q493.1563,545.6875 493.7188,545.9844 L493.7188,548.7031 Q493.0938,548.125 492.5,547.8594 Q491.9063,547.5781 491.2813,547.5781 Q489.9375,547.5781 489.25,548.6563 Q488.5625,549.7188 488.5625,551.8125 Q488.5625,553.9063 489.25,554.9844 Q489.9375,556.0469 491.2813,556.0469 Q491.9063,556.0469 492.5,555.7813 Q493.0938,555.5 493.7188,554.9219 L493.7188,557.6406 Z "/><text fill="#000000" font-family="sans-serif" font-size="12" lengthAdjust="spacingAndGlyphs" textLength="93" x="511.25" y="556.1543">DeclarationList</text><line style="stroke: #A80036; stroke-width: 1.5;" x1="373" x2="710" y1="568" y2="568"/><rect fill="none" height="6" style="stroke: #C82930; stroke-width: 1.0;" width="6" x="380" y="576"/><text fill="#000000" font-family="sans-serif" font-size="11" lengthAdjust="spacingAndGlyphs" textLength="110" x="392" y="582.2104">type: []*Declaration</text><line style="stroke: #A80036; stroke-width: 1.5;" x1="373" x2="710" y1="588.8047" y2="588.8047"/><ellipse cx="383" cy="599.8047" fill="#84BE84" rx="3" ry="3" style="stroke: #038048; stroke-width: 1.0;"/><text fill="#000000" font-family="sans-serif" font-size="11" lengthAdjust="spacingAndGlyphs" textLength="144" x="392" y="603.0151">Exported () []*Declaration</text><ellipse cx="383" cy="612.6094" fill="#84BE84" rx="3" ry="3" style="stroke: #038048; stroke-width: 1.0;"/><text fill="#000000" font-family="sans-serif" font-size="11" lengthAdjust="spacingAndGlyphs" textLength="313" x="392" y="615.8198">Filter (matchfn func(d *Declaration) bool) []*Declaration</text><ellipse cx="383" cy="625.4141" fill="#84BE84" rx="3" ry="3" style="stroke: #038048; stroke-width: 1.0;"/><text fill="#000000" font-family="sans-serif" font-size="11" lengthAdjust="spacingAndGlyphs" textLength="300" x="392" y="628.6245">Find (matchfn func(d *Declaration) bool) *Declaration</text><!--MD5=[af22135d5be6ed11ccd2d02fa51653b3]
class Definition--><rect fill="#FEFECE" filter="url(#fdggnkzh6h9os)" height="124.8281" id="Definition" style="stroke: #A80036; stroke-width: 1.5;" width="158" x="383.5" y="334"/><ellipse cx="428.75" cy="350" fill="#ADD1B2" rx="11" ry="11" style="stroke: #A80036; stroke-width: 1.0;"/><path d="M431.7188,355.6406 Q431.1406,355.9375 430.5,356.0781 Q429.8594,356.2344 429.1563,356.2344 Q426.6563,356.2344 425.3281,354.5938 Q424.0156,352.9375 424.0156,349.8125 Q424.0156,346.6875 425.3281,345.0313 Q426.6563,343.375 429.1563,343.375 Q429.8594,343.375 430.5,343.5313 Q431.1563,343.6875 431.7188,343.9844 L431.7188,346.7031 Q431.0938,346.125 430.5,345.8594 Q429.9063,345.5781 429.2813,345.5781 Q427.9375,345.5781 427.25,346.6563 Q426.5625,347.7188 426.5625,349.8125 Q426.5625,351.9063 427.25,352.9844 Q427.9375,354.0469 429.2813,354.0469 Q429.9063,354.0469 430.5,353.7813 Q431.0938,353.5 431.7188,352.9219 L431.7188,355.6406 Z "/><text fill="#000000" font-family="sans-serif" font-size="12" lengthAdjust="spacingAndGlyphs" textLength="59" x="449.25" y="354.1543">Definition</text><line style="stroke: #A80036; stroke-width: 1.5;" x1="384.5" x2="540.5" y1="366" y2="366"/><ellipse cx="394.5" cy="377" fill="none" rx="3" ry="3" style="stroke: #038048; stroke-width: 1.0;"/><text fill="#000000" font-family="sans-serif" font-size="11" lengthAdjust="spacingAndGlyphs" textLength="62" x="403.5" y="380.2104">Doc: string</text><ellipse cx="394.5" cy="389.8047" fill="none" rx="3" ry="3" style="stroke: #038048; stroke-width: 1.0;"/><text fill="#000000" font-family="sans-serif" font-size="11" lengthAdjust="spacingAndGlyphs" textLength="105" x="403.5" y="393.0151">Imports: StringSet</text><ellipse cx="394.5" cy="402.6094" fill="none" rx="3" ry="3" style="stroke: #038048; stroke-width: 1.0;"/><text fill="#000000" font-family="sans-serif" font-size="11" lengthAdjust="spacingAndGlyphs" textLength="126" x="403.5" y="405.8198">Types: DeclarationList</text><ellipse cx="394.5" cy="415.4141" fill="none" rx="3" ry="3" style="stroke: #038048; stroke-width: 1.0;"/><text fill="#000000" font-family="sans-serif" font-size="11" lengthAdjust="spacingAndGlyphs" textLength="132" x="403.5" y="418.6245">Consts: DeclarationList</text><ellipse cx="394.5" cy="428.2188" fill="none" rx="3" ry="3" style="stroke: #038048; stroke-width: 1.0;"/><text fill="#000000" font-family="sans-serif" font-size="11" lengthAdjust="spacingAndGlyphs" textLength="118" x="403.5" y="431.4292">Vars: DeclarationList</text><ellipse cx="394.5" cy="441.0234" fill="none" rx="3" ry="3" style="stroke: #038048; stroke-width: 1.0;"/><text fill="#000000" font-family="sans-serif" font-size="11" lengthAdjust="spacingAndGlyphs" textLength="125" x="403.5" y="444.2339">Funcs: DeclarationList</text><line style="stroke: #A80036; stroke-width: 1.5;" x1="384.5" x2="540.5" y1="450.8281" y2="450.8281"/><!--MD5=[d9427b671d7d049aff2d6f2fe36a13b3]
class Field--><rect fill="#FEFECE" filter="url(#fdggnkzh6h9os)" height="150.4375" id="Field" style="stroke: #A80036; stroke-width: 1.5;" width="128" x="595.5" y="1180"/><ellipse cx="640.75" cy="1196" fill="#ADD1B2" rx="11" ry="11" style="stroke: #A80036; stroke-width: 1.0;"/><path d="M643.7188,1201.6406 Q643.1406,1201.9375 642.5,1202.0781 Q641.8594,1202.2344 641.1563,1202.2344 Q638.6563,1202.2344 637.3281,1200.5938 Q636.0156,1198.9375 636.0156,1195.8125 Q636.0156,1192.6875 637.3281,1191.0313 Q638.6563,1189.375 641.1563,1189.375 Q641.8594,1189.375 642.5,1189.5313 Q643.1563,1189.6875 643.7188,1189.9844 L643.7188,1192.7031 Q643.0938,1192.125 642.5,1191.8594 Q641.9063,1191.5781 641.2813,1191.5781 Q639.9375,1191.5781 639.25,1192.6563 Q638.5625,1193.7188 638.5625,1195.8125 Q638.5625,1197.9063 639.25,1198.9844 Q639.9375,1200.0469 641.2813,1200.0469 Q641.9063,1200.0469 642.5,1199.7813 Q643.0938,1199.5 643.7188,1198.9219 L643.7188,1201.6406 Z "/><text fill="#000000" font-family="sans-serif" font-size="12" lengthAdjust="spacingAndGlyphs" textLength="29" x="661.25" y="1200.1543">Field</text><line style="stroke: #A80036; stroke-width: 1.5;" x1="596.5" x2="722.5" y1="1212" y2="1212"/><ellipse cx="606.5" cy="1223" fill="none" rx="3" ry="3" style="stroke: #038048; stroke-width: 1.0;"/><text fill="#000000" font-family="sans-serif" font-size="11" lengthAdjust="spacingAndGlyphs" textLength="74" x="615.5" y="1226.2104">Name: string</text><ellipse cx="606.5" cy="1235.8047" fill="none" rx="3" ry="3" style="stroke: #038048; stroke-width: 1.0;"/><text fill="#000000" font-family="sans-serif" font-size="11" lengthAdjust="spacingAndGlyphs" textLength="68" x="615.5" y="1239.0151">Type: string</text><ellipse cx="606.5" cy="1248.6094" fill="none" rx="3" ry="3" style="stroke: #038048; stroke-width: 1.0;"/><text fill="#000000" font-family="sans-serif" font-size="11" lengthAdjust="spacingAndGlyphs" textLength="66" x="615.5" y="1251.8198">Path: string</text><ellipse cx="606.5" cy="1261.4141" fill="none" rx="3" ry="3" style="stroke: #038048; stroke-width: 1.0;"/><text fill="#000000" font-family="sans-serif" font-size="11" lengthAdjust="spacingAndGlyphs" textLength="62" x="615.5" y="1264.6245">Doc: string</text><ellipse cx="606.5" cy="1274.2188" fill="none" rx="3" ry="3" style="stroke: #038048; stroke-width: 1.0;"/><text fill="#000000" font-family="sans-serif" font-size="11" lengthAdjust="spacingAndGlyphs" textLength="96" x="615.5" y="1277.4292">Comment: string</text><ellipse cx="606.5" cy="1287.0234" fill="none" rx="3" ry="3" style="stroke: #038048; stroke-width: 1.0;"/><text fill="#000000" font-family="sans-serif" font-size="11" lengthAdjust="spacingAndGlyphs" textLength="62" x="615.5" y="1290.2339">Tag: string</text><ellipse cx="606.5" cy="1299.8281" fill="none" rx="3" ry="3" style="stroke: #038048; stroke-width: 1.0;"/><text fill="#000000" font-family="sans-serif" font-size="11" lengthAdjust="spacingAndGlyphs" textLength="102" x="615.5" y="1303.0386">JSONName: string</text><ellipse cx="606.5" cy="1312.6328" fill="none" rx="3" ry="3" style="stroke: #038048; stroke-width: 1.0;"/><text fill="#000000" font-family="sans-serif" font-size="11" lengthAdjust="spacingAndGlyphs" textLength="84" x="615.5" y="1315.8433">MapKey: string</text><line style="stroke: #A80036; stroke-width: 1.5;" x1="596.5" x2="722.5" y1="1322.4375" y2="1322.4375"/><!--MD5=[898b628376ee89e7bc81c09a0d440f56]
class FieldList--><rect fill="#FEFECE" filter="url(#fdggnkzh6h9os)" height="60.8047" id="FieldList" style="stroke: #A80036; stroke-width: 1.5;" width="98" x="807.5" y="1035.5"/><ellipse cx="829.7" cy="1051.5" fill="#ADD1B2" rx="11" ry="11" style="stroke: #A80036; stroke-width: 1.0;"/><path d="M832.6688,1057.1406 Q832.0906,1057.4375 831.45,1057.5781 Q830.8094,1057.7344 830.1063,1057.7344 Q827.6063,1057.7344 826.2781,1056.0938 Q824.9656,1054.4375 824.9656,1051.3125 Q824.9656,1048.1875 826.2781,1046.5313 Q827.6063,1044.875 830.1063,1044.875 Q830.8094,1044.875 831.45,1045.0313 Q832.1063,1045.1875 832.6688,1045.4844 L832.6688,1048.2031 Q832.0438,1047.625 831.45,1047.3594 Q830.8563,1047.0781 830.2313,1047.0781 Q828.8875,1047.0781 828.2,1048.1563 Q827.5125,1049.2188 827.5125,1051.3125 Q827.5125,1053.4063 828.2,1054.4844 Q828.8875,1055.5469 830.2313,1055.5469 Q830.8563,1055.5469 831.45,1055.2813 Q832.0438,1055 832.6688,1054.4219 L832.6688,1057.1406 Z "/><text fill="#000000" font-family="sans-serif" font-size="12" lengthAdjust="spacingAndGlyphs" textLength="50" x="845.3" y="1055.6543">FieldList</text><line style="stroke: #A80036; stroke-width: 1.5;" x1="808.5" x2="904.5" y1="1067.5" y2="1067.5"/><rect fill="none" height="6" style="stroke: #C82930; stroke-width: 1.0;" width="6" x="815.5" y="1075.5"/><text fill="#000000" font-family="sans-serif" font-size="11" lengthAdjust="spacingAndGlyphs" textLength="72" x="827.5" y="1081.7104">type: []*Field</text><line style="stroke: #A80036; stroke-width: 1.5;" x1="808.5" x2="904.5" y1="1088.3047" y2="1088.3047"/><!--MD5=[4e2ad48a1abc117fdc6f339da0f64213]
class Package--><rect fill="#FEFECE" filter="url(#fdggnkzh6h9os)" height="163.2422" id="Package" style="stroke: #A80036; stroke-width: 1.5;" width="165" x="190" y="94"/><ellipse cx="241.25" cy="110" fill="#ADD1B2" rx="11" ry="11" style="stroke: #A80036; stroke-width: 1.0;"/><path d="M244.2188,115.6406 Q243.6406,115.9375 243,116.0781 Q242.3594,116.2344 241.6563,116.2344 Q239.1563,116.2344 237.8281,114.5938 Q236.5156,112.9375 236.5156,109.8125 Q236.5156,106.6875 237.8281,105.0313 Q239.1563,103.375 241.6563,103.375 Q242.3594,103.375 243,103.5313 Q243.6563,103.6875 244.2188,103.9844 L244.2188,106.7031 Q243.5938,106.125 243,105.8594 Q242.4063,105.5781 241.7813,105.5781 Q240.4375,105.5781 239.75,106.6563 Q239.0625,107.7188 239.0625,109.8125 Q239.0625,111.9063 239.75,112.9844 Q240.4375,114.0469 241.7813,114.0469 Q242.4063,114.0469 243,113.7813 Q243.5938,113.5 244.2188,112.9219 L244.2188,115.6406 Z "/><text fill="#000000" font-family="sans-serif" font-size="12" lengthAdjust="spacingAndGlyphs" textLength="54" x="261.75" y="114.1543">Package</text><line style="stroke: #A80036; stroke-width: 1.5;" x1="191" x2="354" y1="126" y2="126"/><ellipse cx="201" cy="137" fill="none" rx="3" ry="3" style="stroke: #038048; stroke-width: 1.0;"/><text fill="#000000" font-family="sans-serif" font-size="11" lengthAdjust="spacingAndGlyphs" textLength="52" x="210" y="140.2104">ID: string</text><ellipse cx="201" cy="149.8047" fill="none" rx="3" ry="3" style="stroke: #038048; stroke-width: 1.0;"/><text fill="#000000" font-family="sans-serif" font-size="11" lengthAdjust="spacingAndGlyphs" textLength="88" x="210" y="153.0151">Package: string</text><ellipse cx="201" cy="162.6094" fill="none" rx="3" ry="3" style="stroke: #038048; stroke-width: 1.0;"/><text fill="#000000" font-family="sans-serif" font-size="11" lengthAdjust="spacingAndGlyphs" textLength="103" x="210" y="165.8198">ImportPath: string</text><ellipse cx="201" cy="175.4141" fill="none" rx="3" ry="3" style="stroke: #038048; stroke-width: 1.0;"/><text fill="#000000" font-family="sans-serif" font-size="11" lengthAdjust="spacingAndGlyphs" textLength="66" x="210" y="178.6245">Path: string</text><ellipse cx="201" cy="188.2188" fill="none" rx="3" ry="3" style="stroke: #038048; stroke-width: 1.0;"/><text fill="#000000" font-family="sans-serif" font-size="11" lengthAdjust="spacingAndGlyphs" textLength="104" x="210" y="191.4292">TestPackage: bool</text><ellipse cx="201" cy="201.0234" fill="none" rx="3" ry="3" style="stroke: #038048; stroke-width: 1.0;"/><text fill="#000000" font-family="sans-serif" font-size="11" lengthAdjust="spacingAndGlyphs" textLength="139" x="210" y="204.2339">Pkg: *packages.Package</text><line style="stroke: #A80036; stroke-width: 1.5;" x1="191" x2="354" y1="210.8281" y2="210.8281"/><ellipse cx="201" cy="221.8281" fill="#84BE84" rx="3" ry="3" style="stroke: #038048; stroke-width: 1.0;"/><text fill="#000000" font-family="sans-serif" font-size="11" lengthAdjust="spacingAndGlyphs" textLength="132" x="210" y="225.0386">Equal (in Package) bool</text><ellipse cx="201" cy="234.6328" fill="#84BE84" rx="3" ry="3" style="stroke: #038048; stroke-width: 1.0;"/><text fill="#000000" font-family="sans-serif" font-size="11" lengthAdjust="spacingAndGlyphs" textLength="82" x="210" y="237.8433">Name () string</text><ellipse cx="201" cy="247.4375" fill="#84BE84" rx="3" ry="3" style="stroke: #038048; stroke-width: 1.0;"/><text fill="#000000" font-family="sans-serif" font-size="11" lengthAdjust="spacingAndGlyphs" textLength="83" x="210" y="250.6479">String () string</text><!--MD5=[87fbbd40529fac58103832b10b21b03a]
class StringSet--><rect fill="#FEFECE" filter="url(#fdggnkzh6h9os)" height="99.2188" id="StringSet" style="stroke: #A80036; stroke-width: 1.5;" width="217" x="95" y="536"/><ellipse cx="170.25" cy="552" fill="#ADD1B2" rx="11" ry="11" style="stroke: #A80036; stroke-width: 1.0;"/><path d="M173.2188,557.6406 Q172.6406,557.9375 172,558.0781 Q171.3594,558.2344 170.6563,558.2344 Q168.1563,558.2344 166.8281,556.5938 Q165.5156,554.9375 165.5156,551.8125 Q165.5156,548.6875 166.8281,547.0313 Q168.1563,545.375 170.6563,545.375 Q171.3594,545.375 172,545.5313 Q172.6563,545.6875 173.2188,545.9844 L173.2188,548.7031 Q172.5938,548.125 172,547.8594 Q171.4063,547.5781 170.7813,547.5781 Q169.4375,547.5781 168.75,548.6563 Q168.0625,549.7188 168.0625,551.8125 Q168.0625,553.9063 168.75,554.9844 Q169.4375,556.0469 170.7813,556.0469 Q171.4063,556.0469 172,555.7813 Q172.5938,555.5 173.2188,554.9219 L173.2188,557.6406 Z "/><text fill="#000000" font-family="sans-serif" font-size="12" lengthAdjust="spacingAndGlyphs" textLength="58" x="190.75" y="556.1543">StringSet</text><line style="stroke: #A80036; stroke-width: 1.5;" x1="96" x2="311" y1="568" y2="568"/><rect fill="none" height="6" style="stroke: #C82930; stroke-width: 1.0;" width="6" x="103" y="576"/><text fill="#000000" font-family="sans-serif" font-size="11" lengthAdjust="spacingAndGlyphs" textLength="139" x="115" y="582.2104">type: map[string][]string</text><line style="stroke: #A80036; stroke-width: 1.5;" x1="96" x2="311" y1="588.8047" y2="588.8047"/><ellipse cx="106" cy="599.8047" fill="#84BE84" rx="3" ry="3" style="stroke: #038048; stroke-width: 1.0;"/><text fill="#000000" font-family="sans-serif" font-size="11" lengthAdjust="spacingAndGlyphs" textLength="70" x="115" y="603.0151">All () []string</text><ellipse cx="106" cy="612.6094" fill="#84BE84" rx="3" ry="3" style="stroke: #038048; stroke-width: 1.0;"/><text fill="#000000" font-family="sans-serif" font-size="11" lengthAdjust="spacingAndGlyphs" textLength="133" x="115" y="615.8198">Get (key string) []string</text><ellipse cx="106" cy="625.4141" fill="#84BE84" rx="3" ry="3" style="stroke: #038048; stroke-width: 1.0;"/><text fill="#000000" font-family="sans-serif" font-size="11" lengthAdjust="spacingAndGlyphs" textLength="191" x="115" y="628.6245">Map () (map[string]string, []error)</text><path d="M746.5,573 L746.5,598.1328 L1082.5,598.1328 L1082.5,583 L1072.5,573 L746.5,573 " fill="#FBFB77" filter="url(#fdggnkzh6h9os)" style="stroke: #A80036; stroke-width: 1.0;"/><path d="M1072.5,573 L1072.5,583 L1082.5,583 L1072.5,573 " fill="#FBFB77" style="stroke: #A80036; stroke-width: 1.0;"/><text fill="#000000" font-family="sans-serif" font-size="13" lengthAdjust="spacingAndGlyphs" textLength="315" x="752.5" y="590.0669">Declaration holds information about a go symbol.</text><path d="M162,819.5 L162,844.6328 A0,0 0 0 0 162,844.6328 L321.59,844.6328 L343.06,1028.72 L329.59,844.6328 L487,844.6328 A0,0 0 0 0 487,844.6328 L487,829.5 L477,819.5 L162,819.5 A0,0 0 0 0 162,819.5 " fill="#FBFB77" filter="url(#fdggnkzh6h9os)" style="stroke: #A80036; stroke-width: 1.0;"/><path d="M477,819.5 L477,829.5 L487,829.5 L477,819.5 " fill="#FBFB77" style="stroke: #A80036; stroke-width: 1.0;"/><text fill="#000000" font-family="sans-serif" font-size="13" lengthAdjust="spacingAndGlyphs" textLength="304" x="168" y="836.5669">DeclarationKind is an enum of go symbol types.</text><path d="M577,384 L577,409.1328 A0,0 0 0 0 577,409.1328 L705.3,409.1328 L588.17,535.75 L713.3,409.1328 L864,409.1328 A0,0 0 0 0 864,409.1328 L864,394 L854,384 L577,384 A0,0 0 0 0 577,384 " fill="#FBFB77" filter="url(#fdggnkzh6h9os)" style="stroke: #A80036; stroke-width: 1.0;"/><path d="M854,384 L854,394 L864,394 L854,384 " fill="#FBFB77" style="stroke: #A80036; stroke-width: 1.0;"/><text fill="#000000" font-family="sans-serif" font-size="13" lengthAdjust="spacingAndGlyphs" textLength="266" x="583" y="401.0669">DeclarationList holds a list of Go symbols.</text><path d="M390.5,163 L390.5,188.1328 A0,0 0 0 0 390.5,188.1328 L551.23,188.1328 L490.11,333.81 L559.23,188.1328 L730.5,188.1328 A0,0 0 0 0 730.5,188.1328 L730.5,173 L720.5,163 L390.5,163 A0,0 0 0 0 390.5,163 " fill="#FBFB77" filter="url(#fdggnkzh6h9os)" style="stroke: #A80036; stroke-width: 1.0;"/><path d="M720.5,163 L720.5,173 L730.5,173 L720.5,163 " fill="#FBFB77" style="stroke: #A80036; stroke-width: 1.0;"/><text fill="#000000" font-family="sans-serif" font-size="13" lengthAdjust="spacingAndGlyphs" textLength="319" x="396.5" y="180.0669">Definition holds all symbols defined for a Package.</text><path d="M489,1053.5 L489,1078.6328 A0,0 0 0 0 489,1078.6328 L628.31,1078.6328 L648.01,1179.88 L636.31,1078.6328 L772,1078.6328 A0,0 0 0 0 772,1078.6328 L772,1063.5 L762,1053.5 L489,1053.5 A0,0 0 0 0 489,1053.5 " fill="#FBFB77" filter="url(#fdggnkzh6h9os)" style="stroke: #A80036; stroke-width: 1.0;"/><path d="M762,1053.5 L762,1063.5 L772,1063.5 L762,1053.5 " fill="#FBFB77" style="stroke: #A80036; stroke-width: 1.0;"/><text fill="#000000" font-family="sans-serif" font-size="13" lengthAdjust="spacingAndGlyphs" textLength="262" x="495" y="1070.5669">Field holds details about a field definition.</text><path d="M762.5,819.5 L762.5,844.6328 A0,0 0 0 0 762.5,844.6328 L872.46,844.6328 L859.21,1035.11 L880.46,844.6328 L992.5,844.6328 A0,0 0 0 0 992.5,844.6328 L992.5,829.5 L982.5,819.5 L762.5,819.5 A0,0 0 0 0 762.5,819.5 " fill="#FBFB77" filter="url(#fdggnkzh6h9os)" style="stroke: #A80036; stroke-width: 1.0;"/><path d="M982.5,819.5 L982.5,829.5 L992.5,829.5 L982.5,819.5 " fill="#FBFB77" style="stroke: #A80036; stroke-width: 1.0;"/><text fill="#000000" font-family="sans-serif" font-size="13" lengthAdjust="spacingAndGlyphs" textLength="209" x="768.5" y="836.5669">FieldList contains all struct fields.</text><path d="M136.5,8 L136.5,33.1328 A0,0 0 0 0 136.5,33.1328 L268.5,33.1328 L272.5,93.97 L276.5,33.1328 L408.5,33.1328 A0,0 0 0 0 408.5,33.1328 L408.5,18 L398.5,8 L136.5,8 A0,0 0 0 0 136.5,8 " fill="#FBFB77" filter="url(#fdggnkzh6h9os)" style="stroke: #A80036; stroke-width: 1.0;"/><path d="M398.5,8 L398.5,18 L408.5,18 L398.5,8 " fill="#FBFB77" style="stroke: #A80036; stroke-width: 1.0;"/><text fill="#000000" font-family="sans-serif" font-size="13" lengthAdjust="spacingAndGlyphs" textLength="251" x="142.5" y="25.0669">Package holds go package information.</text><path d="M6,384 L6,409.1328 A0,0 0 0 0 6,409.1328 L175.13,409.1328 L196.72,535.75 L183.13,409.1328 L349,409.1328 A0,0 0 0 0 349,409.1328 L349,394 L339,384 L6,384 A0,0 0 0 0 6,384 " fill="#FBFB77" filter="url(#fdggnkzh6h9os)" style="stroke: #A80036; stroke-width: 1.0;"/><path d="M339,384 L339,394 L349,394 L339,384 " fill="#FBFB77" style="stroke: #A80036; stroke-width: 1.0;"/><text fill="#000000" font-family="sans-serif" font-size="13" lengthAdjust="spacingAndGlyphs" textLength="322" x="12" y="401.0669">StringSet provides a key based unique string slice.</text><!--MD5=[d9f78b9da14621c57381f59b7c8a7fdc]
link Declaration to DeclarationKind--><path d="M521.74,936.96 C515.99,942.13 510.22,947.17 504.5,952 C473.3,978.33 436.29,1005.02 405.92,1025.85 " fill="none" id="Declaration-&gt;DeclarationKind" style="stroke: #A80036; stroke-width: 1.0;"/><polygon fill="#A80036" points="401.49,1028.88,411.1754,1027.0931,405.6148,1026.054,406.6538,1020.4934,401.49,1028.88" style="stroke: #A80036; stroke-width: 1.0;"/><text fill="#000000" font-family="sans-serif" font-size="13" lengthAdjust="spacingAndGlyphs" textLength="27" x="464.5" y="995.0669">Kind</text><!--MD5=[fb26886f863d0c2d14a29bb11a9c8f0c]
link Declaration to FieldList--><path d="M727.27,935.77 C761.81,970.31 797.94,1006.44 823.18,1031.68 " fill="none" id="Declaration-&gt;FieldList" style="stroke: #A80036; stroke-width: 1.0;"/><polygon fill="#A80036" points="826.83,1035.33,823.2945,1026.1376,823.2945,1031.7945,817.6376,1031.7945,826.83,1035.33" style="stroke: #A80036; stroke-width: 1.0;"/><text fill="#000000" font-family="sans-serif" font-size="13" lengthAdjust="spacingAndGlyphs" textLength="36" x="788.5" y="995.0669">Fields</text><!--MD5=[5b224cfd99be7a1a4633285e57ab42e7]
link GMN12 to Declaration--><path d="M897.11,598.22 C865.79,619.59 798.25,666.85 745.5,712 C739.46,717.17 733.34,722.58 727.24,728.11 " fill="none" id="GMN12-Declaration" style="stroke: #A80036; stroke-width: 1.0; stroke-dasharray: 7.0,7.0;"/><!--MD5=[b9041fe517dc0921b8f46db285911730]
link DeclarationList to Declaration--><path d="M639.07,635.2 C648.8,643.83 657.35,653.72 663.5,665 C670.51,677.85 673.36,691.92 673.39,706.27 " fill="none" id="DeclarationList-&gt;Declaration" style="stroke: #A80036; stroke-width: 1.0;"/><polygon fill="#A80036" points="673.28,711.56,677.4597,702.642,673.3803,706.561,669.4613,702.4816,673.28,711.56" style="stroke: #A80036; stroke-width: 1.0;"/><text fill="#000000" font-family="sans-serif" font-size="13" lengthAdjust="spacingAndGlyphs" textLength="28" x="670.5" y="678.0669">type</text><!--MD5=[b9041fe517dc0921b8f46db285911730]
link DeclarationList to Declaration--><path d="M440.05,635.09 C424.93,648.81 417.82,664.75 429.5,682 C449.63,711.73 474.49,692.3 504.5,712 C509.01,714.96 513.49,718.11 517.92,721.4 " fill="none" id="DeclarationList-&gt;Declaration-1" style="stroke: #A80036; stroke-width: 1.0;"/><polygon fill="#A80036" points="521.97,724.46,517.2045,715.8409,517.982,721.444,512.3789,722.2216,521.97,724.46" style="stroke: #A80036; stroke-width: 1.0;"/><text fill="#000000" font-family="sans-serif" font-size="13" lengthAdjust="spacingAndGlyphs" textLength="67" x="430.5" y="678.0669">Exported()</text><!--MD5=[b9041fe517dc0921b8f46db285911730]
link DeclarationList to Declaration--><path d="M534.55,635.22 C533.81,650.42 534.51,667.1 538.5,682 C540.71,690.24 543.49,698.5 546.7,706.67 " fill="none" id="DeclarationList-&gt;Declaration-2" style="stroke: #A80036; stroke-width: 1.0;"/><polygon fill="#A80036" points="548.75,711.74,549.0848,701.8968,546.8758,707.1046,541.6681,704.8956,548.75,711.74" style="stroke: #A80036; stroke-width: 1.0;"/><text fill="#000000" font-family="sans-serif" font-size="13" lengthAdjust="spacingAndGlyphs" textLength="41" x="539.5" y="678.0669">Filter()</text><!--MD5=[b9041fe517dc0921b8f46db285911730]
link DeclarationList to Declaration--><path d="M571.61,635.31 C576.74,644.92 581.65,655.1 585.5,665 C590.7,678.39 595.34,692.66 599.43,707.01 " fill="none" id="DeclarationList-&gt;Declaration-3" style="stroke: #A80036; stroke-width: 1.0;"/><polygon fill="#A80036" points="600.79,711.87,602.2248,702.1262,599.4466,707.0538,594.519,704.2756,600.79,711.87" style="stroke: #A80036; stroke-width: 1.0;"/><text fill="#000000" font-family="sans-serif" font-size="13" lengthAdjust="spacingAndGlyphs" textLength="36" x="591.5" y="678.0669">Find()</text><!--MD5=[da7bc372dee29211e58209bfeeaf8008]
link Package to Definition--><path d="M342.44,257.11 C359.89,277.23 378.56,298.75 395.85,318.67 " fill="none" id="Package-&gt;Definition" style="stroke: #A80036; stroke-width: 1.0;"/><polygon fill="none" points="401.24,314.21,409.06,333.9,390.67,323.38,401.24,314.21" style="stroke: #A80036; stroke-width: 1.0;"/><text fill="#000000" font-family="sans-serif" font-size="13" lengthAdjust="spacingAndGlyphs" textLength="80" x="380.5" y="300.0669">embeded by</text><!--MD5=[f7f4336b1fb381e3517df5c361285d48]
link Definition to StringSet--><path d="M383.38,454.62 C348.79,479.6 308.51,508.68 274.85,532.98 " fill="none" id="Definition-&gt;StringSet" style="stroke: #A80036; stroke-width: 1.0;"/><polygon fill="#A80036" points="270.78,535.92,280.4186,533.8958,274.8341,532.9936,275.7363,527.4091,270.78,535.92" style="stroke: #A80036; stroke-width: 1.0;"/><text fill="#000000" font-family="sans-serif" font-size="13" lengthAdjust="spacingAndGlyphs" textLength="49" x="334.5" y="502.0669">Imports</text><!--MD5=[31480ef542df25c1d1f73cd61f470346]
link Definition to DeclarationList--><path d="M451.83,459.19 C451.49,474.96 453.32,491.53 459.5,506 C463.42,515.19 469.01,523.82 475.45,531.75 " fill="none" id="Definition-&gt;DeclarationList" style="stroke: #A80036; stroke-width: 1.0;"/><polygon fill="#A80036" points="478.67,535.58,475.9466,526.1152,475.455,531.7506,469.8196,531.2591,478.67,535.58" style="stroke: #A80036; stroke-width: 1.0;"/><text fill="#000000" font-family="sans-serif" font-size="13" lengthAdjust="spacingAndGlyphs" textLength="37" x="460.5" y="502.0669">Types</text><!--MD5=[31480ef542df25c1d1f73cd61f470346]
link Definition to DeclarationList--><path d="M489.82,459.43 C494.1,469.3 498.45,479.42 502.5,489 C508.21,502.52 514.26,517.16 519.85,530.83 " fill="none" id="Definition-&gt;DeclarationList-1" style="stroke: #A80036; stroke-width: 1.0;"/><polygon fill="#A80036" points="521.89,535.82,522.1987,525.976,520.0035,531.1895,514.79,528.9944,521.89,535.82" style="stroke: #A80036; stroke-width: 1.0;"/><text fill="#000000" font-family="sans-serif" font-size="13" lengthAdjust="spacingAndGlyphs" textLength="44" x="510.5" y="502.0669">Consts</text><!--MD5=[31480ef542df25c1d1f73cd61f470346]
link Definition to DeclarationList--><path d="M541.52,455.87 C550.42,465.9 558.18,477 563.5,489 C569.27,502.02 568.92,516.74 565.83,530.65 " fill="none" id="Definition-&gt;DeclarationList-2" style="stroke: #A80036; stroke-width: 1.0;"/><polygon fill="#A80036" points="564.57,535.74,570.6119,527.9621,565.7692,530.8859,562.8454,526.0433,564.57,535.74" style="stroke: #A80036; stroke-width: 1.0;"/><text fill="#000000" font-family="sans-serif" font-size="13" lengthAdjust="spacingAndGlyphs" textLength="29" x="569.5" y="502.0669">Vars</text><!--MD5=[31480ef542df25c1d1f73cd61f470346]
link Definition to DeclarationList--><path d="M408.74,459.2 C401.41,474.65 398.94,491.07 407.5,506 C413.09,515.75 420.41,524.41 428.75,532.07 " fill="none" id="Definition-&gt;DeclarationList-3" style="stroke: #A80036; stroke-width: 1.0;"/><polygon fill="#A80036" points="432.92,535.75,428.8338,526.7888,429.1767,532.4353,423.5302,532.7782,432.92,535.75" style="stroke: #A80036; stroke-width: 1.0;"/><text fill="#000000" font-family="sans-serif" font-size="13" lengthAdjust="spacingAndGlyphs" textLength="37" x="408.5" y="502.0669">Funcs</text><!--MD5=[fabba1097c2ca551039803dc215a06d2]
link FieldList to Field--><path d="M825.28,1096.63 C799.12,1121.47 760.81,1157.83 727.61,1189.34 " fill="none" id="FieldList-&gt;Field" style="stroke: #A80036; stroke-width: 1.0;"/><polygon fill="#A80036" points="723.59,1193.16,732.872,1189.867,727.2171,1189.7185,727.3656,1184.0636,723.59,1193.16" style="stroke: #A80036; stroke-width: 1.0;"/><text fill="#000000" font-family="sans-serif" font-size="13" lengthAdjust="spacingAndGlyphs" textLength="28" x="781.5" y="1146.0669">type</text><!--MD5=[473c12c357b90170413b2d1bffc02308]
@startuml

class Declaration {
  + Kind: DeclarationKind
  + Type: string
  + File: string
  + SelfContained: bool
  + Imports: []string
  + References: map[string][]string
  + Doc: string
  + Name: string
  + Names: []string
  + Receiver: string
  + Fields: FieldList
  + Arguments: []string
  + Returns: []string
  + Signature: string
  + Source: string
}

class DeclarationKind {
  - type: string
  + String () string
}

class DeclarationList {
  - type: []*Declaration
  + Exported () []*Declaration
  + Filter (matchfn func(d *Declaration) bool) []*Declaration
  + Find (matchfn func(d *Declaration) bool) *Declaration
}

class Definition {
  + Doc: string
  + Imports: StringSet
  + Types: DeclarationList
  + Consts: DeclarationList
  + Vars: DeclarationList
  + Funcs: DeclarationList
}

class Field {
  + Name: string
  + Type: string
  + Path: string
  + Doc: string
  + Comment: string
  + Tag: string
  + JSONName: string
  + MapKey: string
}

class FieldList {
  - type: []*Field
}

class Package {
  + ID: string
  + Package: string
  + ImportPath: string
  + Path: string
  + TestPackage: bool
  + Pkg: *packages.Package
  + Equal (in Package) bool
  + Name () string
  + String () string
}

class StringSet {
  - type: map[string][]string
  + All () []string
  + Get (key string) []string
  + Map () (map[string]string, []error)
}

Declaration - -> DeclarationKind : Kind
Declaration - -> FieldList : Fields

note top of Declaration
Declaration holds information about a go symbol.
end note



note top of DeclarationKind
DeclarationKind is an enum of go symbol types.
end note


DeclarationList - -> Declaration : type

note top of DeclarationList
DeclarationList holds a list of Go symbols.
end note


DeclarationList - -> Declaration : Exported()
DeclarationList - -> Declaration : Filter()
DeclarationList - -> Declaration : Find()
Package - -|> Definition : embeded by
Definition - -> StringSet : Imports
Definition - -> DeclarationList : Types
Definition - -> DeclarationList : Consts
Definition - -> DeclarationList : Vars
Definition - -> DeclarationList : Funcs

note top of Definition
Definition holds all symbols defined for a Package.
end note



note top of Field
Field holds details about a field definition.
end note


FieldList - -> Field : type

note top of FieldList
FieldList contains all struct fields.
end note



note top of Package
Package holds go package information.
end note



note top of StringSet
StringSet provides a key based unique string slice.
end note



@enduml

PlantUML version 1.2020.02(Sun Mar 01 10:22:07 UTC 2020)
(GPL source distribution)
Java Runtime: OpenJDK Runtime Environment
JVM: OpenJDK 64-Bit Server VM
Java Version: 11.0.27+6-post-Ubuntu-0ubuntu122.04
Operating System: Linux
Default Encoding: UTF-8
Language: en
Country: null
--></g></svg>