<?xml version="1.0" encoding="UTF-8" standalone="no"?><svg xmlns="http://www.w3.org/2000/svg" xmlns:xlink="http://www.w3.org/1999/xlink" contentScriptType="application/ecmascript" contentStyleType="text/css" height="1525px" preserveAspectRatio="none" style="width:1196px;height:1525px;" version="1.1" viewBox="0 0 1196 1525" width="1196px" zoomAndPan="magnify"><defs><filter height="300%" id="f1espuv8qd94sk" width="300%" x="-1" y="-1"><feGaussianBlur result="blurOut" stdDeviation="2.0"/><feColorMatrix in="blurOut" result="blurOut2" type="matrix" values="0 0 0 0 0 0 0 0 0 0 0 0 0 0 0 0 0 0 .4 0"/><feOffset dx="4.0" dy="4.0" in="blurOut2" result="blurOut3"/><feBlend in="SourceGraphic" in2="blurOut3" mode="normal"/></filter></defs><g><!--MD5=[e6494f7027ee119b87f8f5a248b6d22e]
class Complexity--><rect fill="#FEFECE" filter="url(#f1espuv8qd94sk)" height="107.9276" id="Complexity" style="stroke: #A80036; stroke-width: 1.5;" width="118" x="143" y="1160"/><ellipse cx="168.8" cy="1176" fill="#ADD1B2" rx="11" ry="11" style="stroke: #A80036; stroke-width: 1.0;"/><path d="M171.7688,1181.6406 Q171.1906,1181.9375 170.55,1182.0781 Q169.9094,1182.2344 169.2063,1182.2344 Q166.7063,1182.2344 165.3781,1180.5938 Q164.0656,1178.9375 164.0656,1175.8125 Q164.0656,1172.6875 165.3781,1171.0313 Q166.7063,1169.375 169.2063,1169.375 Q169.9094,1169.375 170.55,1169.5313 Q171.2063,1169.6875 171.7688,1169.9844 L171.7688,1172.7031 Q171.1438,1172.125 170.55,1171.8594 Q169.9563,1171.5781 169.3313,1171.5781 Q167.9875,1171.5781 167.3,1172.6563 Q166.6125,1173.7188 166.6125,1175.8125 Q166.6125,1177.9063 167.3,1178.9844 Q167.9875,1180.0469 169.3313,1180.0469 Q169.9563,1180.0469 170.55,1179.7813 Q171.1438,1179.5 171.7688,1178.9219 L171.7688,1181.6406 Z "/><text fill="#000000" font-family="sans-serif" font-size="12" lengthAdjust="spacingAndGlyphs" textLength="62" x="185.2" y="1180.656">Complexity</text><line style="stroke: #A80036; stroke-width: 1.5;" x1="144" x2="260" y1="1192" y2="1192"/><ellipse cx="154" cy="1203" fill="none" rx="3" ry="3" style="stroke: #038048; stroke-width: 1.0;"/><text fill="#000000" font-family="sans-serif" font-size="11" lengthAdjust="spacingAndGlyphs" textLength="70" x="163" y="1207.7589">Cognitive: int</text><ellipse cx="154" cy="1217.9819" fill="none" rx="3" ry="3" style="stroke: #038048; stroke-width: 1.0;"/><text fill="#000000" font-family="sans-serif" font-size="11" lengthAdjust="spacingAndGlyphs" textLength="76" x="163" y="1222.7408">Cyclomatic: int</text><ellipse cx="154" cy="1232.9638" fill="none" rx="3" ry="3" style="stroke: #038048; stroke-width: 1.0;"/><text fill="#000000" font-family="sans-serif" font-size="11" lengthAdjust="spacingAndGlyphs" textLength="47" x="163" y="1237.7227">Lines: int</text><ellipse cx="154" cy="1247.9457" fill="none" rx="3" ry="3" style="stroke: #038048; stroke-width: 1.0;"/><text fill="#000000" font-family="sans-serif" font-size="11" lengthAdjust="spacingAndGlyphs" textLength="92" x="163" y="1252.7046">Coverage: float64</text><line style="stroke: #A80036; stroke-width: 1.5;" x1="144" x2="260" y1="1259.9276" y2="1259.9276"/><!--MD5=[d80409f3576551ed6a455469f0519e41]
class Declaration--><rect fill="#FEFECE" filter="url(#f1espuv8qd94sk)" height="287.7102" id="Declaration" style="stroke: #A80036; stroke-width: 1.5;" width="190" x="446" y="793"/><ellipse cx="504.25" cy="809" fill="#ADD1B2" rx="11" ry="11" style="stroke: #A80036; stroke-width: 1.0;"/><path d="M507.2188,814.6406 Q506.6406,814.9375 506,815.0781 Q505.3594,815.2344 504.6563,815.2344 Q502.1563,815.2344 500.8281,813.5938 Q499.5156,811.9375 499.5156,808.8125 Q499.5156,805.6875 500.8281,804.0313 Q502.1563,802.375 504.6563,802.375 Q505.3594,802.375 506,802.5313 Q506.6563,802.6875 507.2188,802.9844 L507.2188,805.7031 Q506.5938,805.125 506,804.8594 Q505.4063,804.5781 504.7813,804.5781 Q503.4375,804.5781 502.75,805.6563 Q502.0625,806.7188 502.0625,808.8125 Q502.0625,810.9063 502.75,811.9844 Q503.4375,813.0469 504.7813,813.0469 Q505.4063,813.0469 506,812.7813 Q506.5938,812.5 507.2188,811.9219 L507.2188,814.6406 Z "/><text fill="#000000" font-family="sans-serif" font-size="12" lengthAdjust="spacingAndGlyphs" textLength="65" x="524.75" y="813.656">Declaration</text><line style="stroke: #A80036; stroke-width: 1.5;" x1="447" x2="635" y1="825" y2="825"/><ellipse cx="457" cy="836" fill="none" rx="3" ry="3" style="stroke: #038048; stroke-width: 1.0;"/><text fill="#000000" font-family="sans-serif" font-size="11" lengthAdjust="spacingAndGlyphs" textLength="114" x="466" y="840.7589">Kind: DeclarationKind</text><ellipse cx="457" cy="850.9819" fill="none" rx="3" ry="3" style="stroke: #038048; stroke-width: 1.0;"/><text fill="#000000" font-family="sans-serif" font-size="11" lengthAdjust="spacingAndGlyphs" textLength="62" x="466" y="855.7408">Type: string</text><ellipse cx="457" cy="865.9638" fill="none" rx="3" ry="3" style="stroke: #038048; stroke-width: 1.0;"/><text fill="#000000" font-family="sans-serif" font-size="11" lengthAdjust="spacingAndGlyphs" textLength="55" x="466" y="870.7227">File: string</text><ellipse cx="457" cy="880.9457" fill="none" rx="3" ry="3" style="stroke: #038048; stroke-width: 1.0;"/><text fill="#000000" font-family="sans-serif" font-size="11" lengthAdjust="spacingAndGlyphs" textLength="103" x="466" y="885.7046">SelfContained: bool</text><ellipse cx="457" cy="895.9276" fill="none" rx="3" ry="3" style="stroke: #038048; stroke-width: 1.0;"/><text fill="#000000" font-family="sans-serif" font-size="11" lengthAdjust="spacingAndGlyphs" textLength="87" x="466" y="900.6865">Imports: []string</text><ellipse cx="457" cy="910.9094" fill="none" rx="3" ry="3" style="stroke: #038048; stroke-width: 1.0;"/><text fill="#000000" font-family="sans-serif" font-size="11" lengthAdjust="spacingAndGlyphs" textLength="164" x="466" y="915.6684">References: map[string][]string</text><ellipse cx="457" cy="925.8913" fill="none" rx="3" ry="3" style="stroke: #038048; stroke-width: 1.0;"/><text fill="#000000" font-family="sans-serif" font-size="11" lengthAdjust="spacingAndGlyphs" textLength="57" x="466" y="930.6502">Doc: string</text><ellipse cx="457" cy="940.8732" fill="none" rx="3" ry="3" style="stroke: #038048; stroke-width: 1.0;"/><text fill="#000000" font-family="sans-serif" font-size="11" lengthAdjust="spacingAndGlyphs" textLength="67" x="466" y="945.6321">Name: string</text><ellipse cx="457" cy="955.8551" fill="none" rx="3" ry="3" style="stroke: #038048; stroke-width: 1.0;"/><text fill="#000000" font-family="sans-serif" font-size="11" lengthAdjust="spacingAndGlyphs" textLength="80" x="466" y="960.614">Names: []string</text><ellipse cx="457" cy="970.837" fill="none" rx="3" ry="3" style="stroke: #038048; stroke-width: 1.0;"/><text fill="#000000" font-family="sans-serif" font-size="11" lengthAdjust="spacingAndGlyphs" textLength="81" x="466" y="975.5959">Receiver: string</text><ellipse cx="457" cy="985.8189" fill="none" rx="3" ry="3" style="stroke: #038048; stroke-width: 1.0;"/><text fill="#000000" font-family="sans-serif" font-size="11" lengthAdjust="spacingAndGlyphs" textLength="79" x="466" y="990.5778">Fields: FieldList</text><ellipse cx="457" cy="1000.8008" fill="none" rx="3" ry="3" style="stroke: #038048; stroke-width: 1.0;"/><text fill="#000000" font-family="sans-serif" font-size="11" lengthAdjust="spacingAndGlyphs" textLength="103" x="466" y="1005.5597">Arguments: []string</text><ellipse cx="457" cy="1015.7827" fill="none" rx="3" ry="3" style="stroke: #038048; stroke-width: 1.0;"/><text fill="#000000" font-family="sans-serif" font-size="11" lengthAdjust="spacingAndGlyphs" textLength="86" x="466" y="1020.5416">Returns: []string</text><ellipse cx="457" cy="1030.7645" fill="none" rx="3" ry="3" style="stroke: #038048; stroke-width: 1.0;"/><text fill="#000000" font-family="sans-serif" font-size="11" lengthAdjust="spacingAndGlyphs" textLength="88" x="466" y="1035.5235">Signature: string</text><ellipse cx="457" cy="1045.7464" fill="none" rx="3" ry="3" style="stroke: #038048; stroke-width: 1.0;"/><text fill="#000000" font-family="sans-serif" font-size="11" lengthAdjust="spacingAndGlyphs" textLength="73" x="466" y="1050.5053">Source: string</text><ellipse cx="457" cy="1060.7283" fill="none" rx="3" ry="3" style="stroke: #038048; stroke-width: 1.0;"/><text fill="#000000" font-family="sans-serif" font-size="11" lengthAdjust="spacingAndGlyphs" textLength="130" x="466" y="1065.4872">Complexity: *Complexity</text><line style="stroke: #A80036; stroke-width: 1.5;" x1="447" x2="635" y1="1072.7102" y2="1072.7102"/><!--MD5=[9c9e98b0eb5e2c68874d348a767e831d]
class DeclarationKind--><rect fill="#FEFECE" filter="url(#f1espuv8qd94sk)" height="77.9638" id="DeclarationKind" style="stroke: #A80036; stroke-width: 1.5;" width="121" x="390.5" y="1175"/><ellipse cx="405.5" cy="1191" fill="#ADD1B2" rx="11" ry="11" style="stroke: #A80036; stroke-width: 1.0;"/><path d="M408.4688,1196.6406 Q407.8906,1196.9375 407.25,1197.0781 Q406.6094,1197.2344 405.9063,1197.2344 Q403.4063,1197.2344 402.0781,1195.5938 Q400.7656,1193.9375 400.7656,1190.8125 Q400.7656,1187.6875 402.0781,1186.0313 Q403.4063,1184.375 405.9063,1184.375 Q406.6094,1184.375 407.25,1184.5313 Q407.9063,1184.6875 408.4688,1184.9844 L408.4688,1187.7031 Q407.8438,1187.125 407.25,1186.8594 Q406.6563,1186.5781 406.0313,1186.5781 Q404.6875,1186.5781 404,1187.6563 Q403.3125,1188.7188 403.3125,1190.8125 Q403.3125,1192.9063 404,1193.9844 Q404.6875,1195.0469 406.0313,1195.0469 Q406.6563,1195.0469 407.25,1194.7813 Q407.8438,1194.5 408.4688,1193.9219 L408.4688,1196.6406 Z "/><text fill="#000000" font-family="sans-serif" font-size="12" lengthAdjust="spacingAndGlyphs" textLength="89" x="419.5" y="1195.656">DeclarationKind</text><line style="stroke: #A80036; stroke-width: 1.5;" x1="391.5" x2="510.5" y1="1207" y2="1207"/><rect fill="none" height="6" style="stroke: #C82930; stroke-width: 1.0;" width="6" x="398.5" y="1215"/><text fill="#000000" font-family="sans-serif" font-size="11" lengthAdjust="spacingAndGlyphs" textLength="60" x="410.5" y="1222.7589">type: string</text><line style="stroke: #A80036; stroke-width: 1.5;" x1="391.5" x2="510.5" y1="1229.9819" y2="1229.9819"/><ellipse cx="401.5" cy="1240.9819" fill="#84BE84" rx="3" ry="3" style="stroke: #038048; stroke-width: 1.0;"/><text fill="#000000" font-family="sans-serif" font-size="11" lengthAdjust="spacingAndGlyphs" textLength="75" x="410.5" y="1245.7408">String () string</text><!--MD5=[f8a408d8ad8712005ce2c3ad36fe1243]
class DeclarationList--><rect fill="#FEFECE" filter="url(#f1espuv8qd94sk)" height="122.9094" id="DeclarationList" style="stroke: #A80036; stroke-width: 1.5;" width="317" x="277.5" y="591"/><ellipse cx="389.75" cy="607" fill="#ADD1B2" rx="11" ry="11" style="stroke: #A80036; stroke-width: 1.0;"/><path d="M392.7188,612.6406 Q392.1406,612.9375 391.5,613.0781 Q390.8594,613.2344 390.1563,613.2344 Q387.6563,613.2344 386.3281,611.5938 Q385.0156,609.9375 385.0156,606.8125 Q385.0156,603.6875 386.3281,602.0313 Q387.6563,600.375 390.1563,600.375 Q390.8594,600.375 391.5,600.5313 Q392.1563,600.6875 392.7188,600.9844 L392.7188,603.7031 Q392.0938,603.125 391.5,602.8594 Q390.9063,602.5781 390.2813,602.5781 Q388.9375,602.5781 388.25,603.6563 Q387.5625,604.7188 387.5625,606.8125 Q387.5625,608.9063 388.25,609.9844 Q388.9375,611.0469 390.2813,611.0469 Q390.9063,611.0469 391.5,610.7813 Q392.0938,610.5 392.7188,609.9219 L392.7188,612.6406 Z "/><text fill="#000000" font-family="sans-serif" font-size="12" lengthAdjust="spacingAndGlyphs" textLength="84" x="410.25" y="611.656">DeclarationList</text><line style="stroke: #A80036; stroke-width: 1.5;" x1="278.5" x2="593.5" y1="623" y2="623"/><rect fill="none" height="6" style="stroke: #C82930; stroke-width: 1.0;" width="6" x="285.5" y="631"/><text fill="#000000" font-family="sans-serif" font-size="11" lengthAdjust="spacingAndGlyphs" textLength="103" x="297.5" y="638.7589">type: []*Declaration</text><line style="stroke: #A80036; stroke-width: 1.5;" x1="278.5" x2="593.5" y1="645.9819" y2="645.9819"/><ellipse cx="288.5" cy="656.9819" fill="#84BE84" rx="3" ry="3" style="stroke: #038048; stroke-width: 1.0;"/><text fill="#000000" font-family="sans-serif" font-size="11" lengthAdjust="spacingAndGlyphs" textLength="134" x="297.5" y="661.7408">Exported () []*Declaration</text><ellipse cx="288.5" cy="671.9638" fill="#84BE84" rx="3" ry="3" style="stroke: #038048; stroke-width: 1.0;"/><text fill="#000000" font-family="sans-serif" font-size="11" lengthAdjust="spacingAndGlyphs" textLength="291" x="297.5" y="676.7227">Filter (matchfn func(d *Declaration) bool) []*Declaration</text><ellipse cx="288.5" cy="686.9457" fill="#84BE84" rx="3" ry="3" style="stroke: #038048; stroke-width: 1.0;"/><text fill="#000000" font-family="sans-serif" font-size="11" lengthAdjust="spacingAndGlyphs" textLength="279" x="297.5" y="691.7046">Find (matchfn func(d *Declaration) bool) *Declaration</text><ellipse cx="288.5" cy="701.9276" fill="#84BE84" rx="3" ry="3" style="stroke: #038048; stroke-width: 1.0;"/><text fill="#000000" font-family="sans-serif" font-size="11" lengthAdjust="spacingAndGlyphs" textLength="185" x="297.5" y="706.6865">Walk (matchfn func(d *Declaration))</text><!--MD5=[af22135d5be6ed11ccd2d02fa51653b3]
class Definition--><rect fill="#FEFECE" filter="url(#f1espuv8qd94sk)" height="137.8913" id="Definition" style="stroke: #A80036; stroke-width: 1.5;" width="145" x="412.5" y="374"/><ellipse cx="454.05" cy="390" fill="#ADD1B2" rx="11" ry="11" style="stroke: #A80036; stroke-width: 1.0;"/><path d="M457.0188,395.6406 Q456.4406,395.9375 455.8,396.0781 Q455.1594,396.2344 454.4563,396.2344 Q451.9563,396.2344 450.6281,394.5938 Q449.3156,392.9375 449.3156,389.8125 Q449.3156,386.6875 450.6281,385.0313 Q451.9563,383.375 454.4563,383.375 Q455.1594,383.375 455.8,383.5313 Q456.4563,383.6875 457.0188,383.9844 L457.0188,386.7031 Q456.3938,386.125 455.8,385.8594 Q455.2063,385.5781 454.5813,385.5781 Q453.2375,385.5781 452.55,386.6563 Q451.8625,387.7188 451.8625,389.8125 Q451.8625,391.9063 452.55,392.9844 Q453.2375,394.0469 454.5813,394.0469 Q455.2063,394.0469 455.8,393.7813 Q456.3938,393.5 457.0188,392.9219 L457.0188,395.6406 Z "/><text fill="#000000" font-family="sans-serif" font-size="12" lengthAdjust="spacingAndGlyphs" textLength="54" x="473.95" y="394.656">Definition</text><line style="stroke: #A80036; stroke-width: 1.5;" x1="413.5" x2="556.5" y1="406" y2="406"/><ellipse cx="423.5" cy="417" fill="none" rx="3" ry="3" style="stroke: #038048; stroke-width: 1.0;"/><text fill="#000000" font-family="sans-serif" font-size="11" lengthAdjust="spacingAndGlyphs" textLength="57" x="432.5" y="421.7589">Doc: string</text><ellipse cx="423.5" cy="431.9819" fill="none" rx="3" ry="3" style="stroke: #038048; stroke-width: 1.0;"/><text fill="#000000" font-family="sans-serif" font-size="11" lengthAdjust="spacingAndGlyphs" textLength="96" x="432.5" y="436.7408">Imports: StringSet</text><ellipse cx="423.5" cy="446.9638" fill="none" rx="3" ry="3" style="stroke: #038048; stroke-width: 1.0;"/><text fill="#000000" font-family="sans-serif" font-size="11" lengthAdjust="spacingAndGlyphs" textLength="114" x="432.5" y="451.7227">Types: DeclarationList</text><ellipse cx="423.5" cy="461.9457" fill="none" rx="3" ry="3" style="stroke: #038048; stroke-width: 1.0;"/><text fill="#000000" font-family="sans-serif" font-size="11" lengthAdjust="spacingAndGlyphs" textLength="119" x="432.5" y="466.7046">Consts: DeclarationList</text><ellipse cx="423.5" cy="476.9276" fill="none" rx="3" ry="3" style="stroke: #038048; stroke-width: 1.0;"/><text fill="#000000" font-family="sans-serif" font-size="11" lengthAdjust="spacingAndGlyphs" textLength="107" x="432.5" y="481.6865">Vars: DeclarationList</text><ellipse cx="423.5" cy="491.9094" fill="none" rx="3" ry="3" style="stroke: #038048; stroke-width: 1.0;"/><text fill="#000000" font-family="sans-serif" font-size="11" lengthAdjust="spacingAndGlyphs" textLength="114" x="432.5" y="496.6684">Funcs: DeclarationList</text><line style="stroke: #A80036; stroke-width: 1.5;" x1="413.5" x2="556.5" y1="503.8913" y2="503.8913"/><!--MD5=[d9427b671d7d049aff2d6f2fe36a13b3]
class Field--><rect fill="#FEFECE" filter="url(#f1espuv8qd94sk)" height="167.8551" id="Field" style="stroke: #A80036; stroke-width: 1.5;" width="119" x="689.5" y="1347"/><ellipse cx="731.95" cy="1363" fill="#ADD1B2" rx="11" ry="11" style="stroke: #A80036; stroke-width: 1.0;"/><path d="M734.9188,1368.6406 Q734.3406,1368.9375 733.7,1369.0781 Q733.0594,1369.2344 732.3563,1369.2344 Q729.8563,1369.2344 728.5281,1367.5938 Q727.2156,1365.9375 727.2156,1362.8125 Q727.2156,1359.6875 728.5281,1358.0313 Q729.8563,1356.375 732.3563,1356.375 Q733.0594,1356.375 733.7,1356.5313 Q734.3563,1356.6875 734.9188,1356.9844 L734.9188,1359.7031 Q734.2938,1359.125 733.7,1358.8594 Q733.1063,1358.5781 732.4813,1358.5781 Q731.1375,1358.5781 730.45,1359.6563 Q729.7625,1360.7188 729.7625,1362.8125 Q729.7625,1364.9063 730.45,1365.9844 Q731.1375,1367.0469 732.4813,1367.0469 Q733.1063,1367.0469 733.7,1366.7813 Q734.2938,1366.5 734.9188,1365.9219 L734.9188,1368.6406 Z "/><text fill="#000000" font-family="sans-serif" font-size="12" lengthAdjust="spacingAndGlyphs" textLength="26" x="752.05" y="1367.656">Field</text><line style="stroke: #A80036; stroke-width: 1.5;" x1="690.5" x2="807.5" y1="1379" y2="1379"/><ellipse cx="700.5" cy="1390" fill="none" rx="3" ry="3" style="stroke: #038048; stroke-width: 1.0;"/><text fill="#000000" font-family="sans-serif" font-size="11" lengthAdjust="spacingAndGlyphs" textLength="67" x="709.5" y="1394.7589">Name: string</text><ellipse cx="700.5" cy="1404.9819" fill="none" rx="3" ry="3" style="stroke: #038048; stroke-width: 1.0;"/><text fill="#000000" font-family="sans-serif" font-size="11" lengthAdjust="spacingAndGlyphs" textLength="62" x="709.5" y="1409.7408">Type: string</text><ellipse cx="700.5" cy="1419.9638" fill="none" rx="3" ry="3" style="stroke: #038048; stroke-width: 1.0;"/><text fill="#000000" font-family="sans-serif" font-size="11" lengthAdjust="spacingAndGlyphs" textLength="61" x="709.5" y="1424.7227">Path: string</text><ellipse cx="700.5" cy="1434.9457" fill="none" rx="3" ry="3" style="stroke: #038048; stroke-width: 1.0;"/><text fill="#000000" font-family="sans-serif" font-size="11" lengthAdjust="spacingAndGlyphs" textLength="57" x="709.5" y="1439.7046">Doc: string</text><ellipse cx="700.5" cy="1449.9276" fill="none" rx="3" ry="3" style="stroke: #038048; stroke-width: 1.0;"/><text fill="#000000" font-family="sans-serif" font-size="11" lengthAdjust="spacingAndGlyphs" textLength="88" x="709.5" y="1454.6865">Comment: string</text><ellipse cx="700.5" cy="1464.9094" fill="none" rx="3" ry="3" style="stroke: #038048; stroke-width: 1.0;"/><text fill="#000000" font-family="sans-serif" font-size="11" lengthAdjust="spacingAndGlyphs" textLength="56" x="709.5" y="1469.6684">Tag: string</text><ellipse cx="700.5" cy="1479.8913" fill="none" rx="3" ry="3" style="stroke: #038048; stroke-width: 1.0;"/><text fill="#000000" font-family="sans-serif" font-size="11" lengthAdjust="spacingAndGlyphs" textLength="93" x="709.5" y="1484.6502">JSONName: string</text><ellipse cx="700.5" cy="1494.8732" fill="none" rx="3" ry="3" style="stroke: #038048; stroke-width: 1.0;"/><text fill="#000000" font-family="sans-serif" font-size="11" lengthAdjust="spacingAndGlyphs" textLength="79" x="709.5" y="1499.6321">MapKey: string</text><line style="stroke: #A80036; stroke-width: 1.5;" x1="690.5" x2="807.5" y1="1506.8551" y2="1506.8551"/><!--MD5=[898b628376ee89e7bc81c09a0d440f56]
class FieldList--><rect fill="#FEFECE" filter="url(#f1espuv8qd94sk)" height="62.9819" id="FieldList" style="stroke: #A80036; stroke-width: 1.5;" width="94" x="594" y="1182.5"/><ellipse cx="616.65" cy="1198.5" fill="#ADD1B2" rx="11" ry="11" style="stroke: #A80036; stroke-width: 1.0;"/><path d="M619.6188,1204.1406 Q619.0406,1204.4375 618.4,1204.5781 Q617.7594,1204.7344 617.0563,1204.7344 Q614.5563,1204.7344 613.2281,1203.0938 Q611.9156,1201.4375 611.9156,1198.3125 Q611.9156,1195.1875 613.2281,1193.5313 Q614.5563,1191.875 617.0563,1191.875 Q617.7594,1191.875 618.4,1192.0313 Q619.0563,1192.1875 619.6188,1192.4844 L619.6188,1195.2031 Q618.9938,1194.625 618.4,1194.3594 Q617.8063,1194.0781 617.1813,1194.0781 Q615.8375,1194.0781 615.15,1195.1563 Q614.4625,1196.2188 614.4625,1198.3125 Q614.4625,1200.4063 615.15,1201.4844 Q615.8375,1202.5469 617.1813,1202.5469 Q617.8063,1202.5469 618.4,1202.2813 Q618.9938,1202 619.6188,1201.4219 L619.6188,1204.1406 Z "/><text fill="#000000" font-family="sans-serif" font-size="12" lengthAdjust="spacingAndGlyphs" textLength="45" x="632.35" y="1203.156">FieldList</text><line style="stroke: #A80036; stroke-width: 1.5;" x1="595" x2="687" y1="1214.5" y2="1214.5"/><rect fill="none" height="6" style="stroke: #C82930; stroke-width: 1.0;" width="6" x="602" y="1222.5"/><text fill="#000000" font-family="sans-serif" font-size="11" lengthAdjust="spacingAndGlyphs" textLength="68" x="614" y="1230.2589">type: []*Field</text><line style="stroke: #A80036; stroke-width: 1.5;" x1="595" x2="687" y1="1237.4819" y2="1237.4819"/><!--MD5=[4e2ad48a1abc117fdc6f339da0f64213]
class Package--><rect fill="#FEFECE" filter="url(#f1espuv8qd94sk)" height="197.8189" id="Package" style="stroke: #A80036; stroke-width: 1.5;" width="156" x="56" y="97"/><ellipse cx="106.25" cy="113" fill="#ADD1B2" rx="11" ry="11" style="stroke: #A80036; stroke-width: 1.0;"/><path d="M109.2188,118.6406 Q108.6406,118.9375 108,119.0781 Q107.3594,119.2344 106.6563,119.2344 Q104.1563,119.2344 102.8281,117.5938 Q101.5156,115.9375 101.5156,112.8125 Q101.5156,109.6875 102.8281,108.0313 Q104.1563,106.375 106.6563,106.375 Q107.3594,106.375 108,106.5313 Q108.6563,106.6875 109.2188,106.9844 L109.2188,109.7031 Q108.5938,109.125 108,108.8594 Q107.4063,108.5781 106.7813,108.5781 Q105.4375,108.5781 104.75,109.6563 Q104.0625,110.7188 104.0625,112.8125 Q104.0625,114.9063 104.75,115.9844 Q105.4375,117.0469 106.7813,117.0469 Q107.4063,117.0469 108,116.7813 Q108.5938,116.5 109.2188,115.9219 L109.2188,118.6406 Z "/><text fill="#000000" font-family="sans-serif" font-size="12" lengthAdjust="spacingAndGlyphs" textLength="47" x="126.75" y="117.656">Package</text><line style="stroke: #A80036; stroke-width: 1.5;" x1="57" x2="211" y1="129" y2="129"/><ellipse cx="67" cy="140" fill="none" rx="3" ry="3" style="stroke: #038048; stroke-width: 1.0;"/><text fill="#000000" font-family="sans-serif" font-size="11" lengthAdjust="spacingAndGlyphs" textLength="49" x="76" y="144.7589">ID: string</text><ellipse cx="67" cy="154.9819" fill="none" rx="3" ry="3" style="stroke: #038048; stroke-width: 1.0;"/><text fill="#000000" font-family="sans-serif" font-size="11" lengthAdjust="spacingAndGlyphs" textLength="80" x="76" y="159.7408">Package: string</text><ellipse cx="67" cy="169.9638" fill="none" rx="3" ry="3" style="stroke: #038048; stroke-width: 1.0;"/><text fill="#000000" font-family="sans-serif" font-size="11" lengthAdjust="spacingAndGlyphs" textLength="98" x="76" y="174.7227">ImportPath: string</text><ellipse cx="67" cy="184.9457" fill="none" rx="3" ry="3" style="stroke: #038048; stroke-width: 1.0;"/><text fill="#000000" font-family="sans-serif" font-size="11" lengthAdjust="spacingAndGlyphs" textLength="61" x="76" y="189.7046">Path: string</text><ellipse cx="67" cy="199.9276" fill="none" rx="3" ry="3" style="stroke: #038048; stroke-width: 1.0;"/><text fill="#000000" font-family="sans-serif" font-size="11" lengthAdjust="spacingAndGlyphs" textLength="94" x="76" y="204.6865">TestPackage: bool</text><ellipse cx="67" cy="214.9094" fill="none" rx="3" ry="3" style="stroke: #038048; stroke-width: 1.0;"/><text fill="#000000" font-family="sans-serif" font-size="11" lengthAdjust="spacingAndGlyphs" textLength="130" x="76" y="219.6684">Complexity: *Complexity</text><ellipse cx="67" cy="229.8913" fill="none" rx="3" ry="3" style="stroke: #038048; stroke-width: 1.0;"/><text fill="#000000" font-family="sans-serif" font-size="11" lengthAdjust="spacingAndGlyphs" textLength="126" x="76" y="234.6502">Pkg: *packages.Package</text><line style="stroke: #A80036; stroke-width: 1.5;" x1="57" x2="211" y1="241.8732" y2="241.8732"/><ellipse cx="67" cy="252.8732" fill="#84BE84" rx="3" ry="3" style="stroke: #038048; stroke-width: 1.0;"/><text fill="#000000" font-family="sans-serif" font-size="11" lengthAdjust="spacingAndGlyphs" textLength="121" x="76" y="257.6321">Equal (in Package) bool</text><ellipse cx="67" cy="267.8551" fill="#84BE84" rx="3" ry="3" style="stroke: #038048; stroke-width: 1.0;"/><text fill="#000000" font-family="sans-serif" font-size="11" lengthAdjust="spacingAndGlyphs" textLength="73" x="76" y="272.614">Name () string</text><ellipse cx="67" cy="282.837" fill="#84BE84" rx="3" ry="3" style="stroke: #038048; stroke-width: 1.0;"/><text fill="#000000" font-family="sans-serif" font-size="11" lengthAdjust="spacingAndGlyphs" textLength="75" x="76" y="287.5959">String () string</text><!--MD5=[87fbbd40529fac58103832b10b21b03a]
class StringSet--><rect fill="#FEFECE" filter="url(#f1espuv8qd94sk)" height="107.9276" id="StringSet" style="stroke: #A80036; stroke-width: 1.5;" width="202" x="630" y="598.5"/><ellipse cx="701.25" cy="614.5" fill="#ADD1B2" rx="11" ry="11" style="stroke: #A80036; stroke-width: 1.0;"/><path d="M704.2188,620.1406 Q703.6406,620.4375 703,620.5781 Q702.3594,620.7344 701.6563,620.7344 Q699.1563,620.7344 697.8281,619.0938 Q696.5156,617.4375 696.5156,614.3125 Q696.5156,611.1875 697.8281,609.5313 Q699.1563,607.875 701.6563,607.875 Q702.3594,607.875 703,608.0313 Q703.6563,608.1875 704.2188,608.4844 L704.2188,611.2031 Q703.5938,610.625 703,610.3594 Q702.4063,610.0781 701.7813,610.0781 Q700.4375,610.0781 699.75,611.1563 Q699.0625,612.2188 699.0625,614.3125 Q699.0625,616.4063 699.75,617.4844 Q700.4375,618.5469 701.7813,618.5469 Q702.4063,618.5469 703,618.2813 Q703.5938,618 704.2188,617.4219 L704.2188,620.1406 Z "/><text fill="#000000" font-family="sans-serif" font-size="12" lengthAdjust="spacingAndGlyphs" textLength="51" x="721.75" y="619.156">StringSet</text><line style="stroke: #A80036; stroke-width: 1.5;" x1="631" x2="831" y1="630.5" y2="630.5"/><rect fill="none" height="6" style="stroke: #C82930; stroke-width: 1.0;" width="6" x="638" y="638.5"/><text fill="#000000" font-family="sans-serif" font-size="11" lengthAdjust="spacingAndGlyphs" textLength="130" x="650" y="646.2589">type: map[string][]string</text><line style="stroke: #A80036; stroke-width: 1.5;" x1="631" x2="831" y1="653.4819" y2="653.4819"/><ellipse cx="641" cy="664.4819" fill="#84BE84" rx="3" ry="3" style="stroke: #038048; stroke-width: 1.0;"/><text fill="#000000" font-family="sans-serif" font-size="11" lengthAdjust="spacingAndGlyphs" textLength="64" x="650" y="669.2408">All () []string</text><ellipse cx="641" cy="679.4638" fill="#84BE84" rx="3" ry="3" style="stroke: #038048; stroke-width: 1.0;"/><text fill="#000000" font-family="sans-serif" font-size="11" lengthAdjust="spacingAndGlyphs" textLength="121" x="650" y="684.2227">Get (key string) []string</text><ellipse cx="641" cy="694.4457" fill="#84BE84" rx="3" ry="3" style="stroke: #038048; stroke-width: 1.0;"/><text fill="#000000" font-family="sans-serif" font-size="11" lengthAdjust="spacingAndGlyphs" textLength="176" x="650" y="699.2046">Map () (map[string]string, []error)</text><path d="M867.5,638.5 L867.5,666.206 L1184.5,666.206 L1184.5,648.5 L1174.5,638.5 L867.5,638.5 " fill="#FBFB77" filter="url(#f1espuv8qd94sk)" style="stroke: #A80036; stroke-width: 1.0;"/><path d="M1174.5,638.5 L1174.5,648.5 L1184.5,648.5 L1174.5,638.5 " fill="#FBFB77" style="stroke: #A80036; stroke-width: 1.0;"/><text fill="#000000" font-family="sans-serif" font-size="13" lengthAdjust="spacingAndGlyphs" textLength="296" x="873.5" y="657.397">Declaration holds information about a go symbol.</text><path d="M107,923 L107,950.706 L411,950.706 L411,933 L401,923 L107,923 " fill="#FBFB77" filter="url(#f1espuv8qd94sk)" style="stroke: #A80036; stroke-width: 1.0;"/><path d="M401,923 L401,933 L411,933 L401,923 " fill="#FBFB77" style="stroke: #A80036; stroke-width: 1.0;"/><text fill="#000000" font-family="sans-serif" font-size="13" lengthAdjust="spacingAndGlyphs" textLength="283" x="113" y="941.897">DeclarationKind is an enum of go symbol types.</text><path d="M110.5,429 L110.5,456.706 L377.5,456.706 L377.5,439 L367.5,429 L110.5,429 " fill="#FBFB77" filter="url(#f1espuv8qd94sk)" style="stroke: #A80036; stroke-width: 1.0;"/><path d="M367.5,429 L367.5,439 L377.5,439 L367.5,429 " fill="#FBFB77" style="stroke: #A80036; stroke-width: 1.0;"/><text fill="#000000" font-family="sans-serif" font-size="13" lengthAdjust="spacingAndGlyphs" textLength="246" x="116.5" y="447.897">DeclarationList holds a list of Go symbols.</text><path d="M326,182 L326,209.706 A0,0 0 0 0 326,209.706 L481,209.706 L485,373.83 L489,209.706 L644,209.706 A0,0 0 0 0 644,209.706 L644,192 L634,182 L326,182 A0,0 0 0 0 326,182 " fill="#FBFB77" filter="url(#f1espuv8qd94sk)" style="stroke: #A80036; stroke-width: 1.0;"/><path d="M634,182 L634,192 L644,192 L634,182 " fill="#FBFB77" style="stroke: #A80036; stroke-width: 1.0;"/><text fill="#000000" font-family="sans-serif" font-size="13" lengthAdjust="spacingAndGlyphs" textLength="297" x="332" y="200.897">Definition holds all symbols defined for a Package.</text><path d="M723.5,1200 L723.5,1227.706 A0,0 0 0 0 723.5,1227.706 L846.41,1227.706 L790.78,1346.83 L854.41,1227.706 L990.5,1227.706 A0,0 0 0 0 990.5,1227.706 L990.5,1210 L980.5,1200 L723.5,1200 A0,0 0 0 0 723.5,1200 " fill="#FBFB77" filter="url(#f1espuv8qd94sk)" style="stroke: #A80036; stroke-width: 1.0;"/><path d="M980.5,1200 L980.5,1210 L990.5,1210 L980.5,1200 " fill="#FBFB77" style="stroke: #A80036; stroke-width: 1.0;"/><text fill="#000000" font-family="sans-serif" font-size="13" lengthAdjust="spacingAndGlyphs" textLength="246" x="729.5" y="1218.897">Field holds details about a field definition.</text><path d="M671.5,923 L671.5,950.706 A0,0 0 0 0 671.5,950.706 L768.34,950.706 L656.47,1182.17 L776.34,950.706 L886.5,950.706 A0,0 0 0 0 886.5,950.706 L886.5,933 L876.5,923 L671.5,923 A0,0 0 0 0 671.5,923 " fill="#FBFB77" filter="url(#f1espuv8qd94sk)" style="stroke: #A80036; stroke-width: 1.0;"/><path d="M876.5,923 L876.5,933 L886.5,933 L876.5,923 " fill="#FBFB77" style="stroke: #A80036; stroke-width: 1.0;"/><text fill="#000000" font-family="sans-serif" font-size="13" lengthAdjust="spacingAndGlyphs" textLength="194" x="677.5" y="941.897">FieldList contains all struct fields.</text><path d="M6,8 L6,35.706 A0,0 0 0 0 6,35.706 L130,35.706 L134,96.66 L138,35.706 L262,35.706 A0,0 0 0 0 262,35.706 L262,18 L252,8 L6,8 A0,0 0 0 0 6,8 " fill="#FBFB77" filter="url(#f1espuv8qd94sk)" style="stroke: #A80036; stroke-width: 1.0;"/><path d="M252,8 L252,18 L262,18 L252,8 " fill="#FBFB77" style="stroke: #A80036; stroke-width: 1.0;"/><text fill="#000000" font-family="sans-serif" font-size="13" lengthAdjust="spacingAndGlyphs" textLength="235" x="12" y="26.897">Package holds go package information.</text><path d="M593,429 L593,456.706 A0,0 0 0 0 593,456.706 L746.65,456.706 L736.41,598.07 L754.65,456.706 L911,456.706 A0,0 0 0 0 911,456.706 L911,439 L901,429 L593,429 A0,0 0 0 0 593,429 " fill="#FBFB77" filter="url(#f1espuv8qd94sk)" style="stroke: #A80036; stroke-width: 1.0;"/><path d="M901,429 L901,439 L911,439 L901,429 " fill="#FBFB77" style="stroke: #A80036; stroke-width: 1.0;"/><text fill="#000000" font-family="sans-serif" font-size="13" lengthAdjust="spacingAndGlyphs" textLength="297" x="599" y="447.897">StringSet provides a key based unique string slice.</text><!--MD5=[d9f78b9da14621c57381f59b7c8a7fdc]
link Declaration to DeclarationKind--><path d="M494.15,1081.14 C483.5,1113.68 472.99,1145.81 465.01,1170.2 " fill="none" id="Declaration-&gt;DeclarationKind" style="stroke: #A80036; stroke-width: 1.0;"/><polygon fill="#A80036" points="463.45,1174.97,470.0379,1167.6488,464.9967,1170.2153,462.4303,1165.1741,463.45,1174.97" style="stroke: #A80036; stroke-width: 1.0;"/><text fill="#000000" font-family="sans-serif" font-size="13" lengthAdjust="spacingAndGlyphs" textLength="27" x="484" y="1125.897">Kind</text><!--MD5=[fb26886f863d0c2d14a29bb11a9c8f0c]
link Declaration to FieldList--><path d="M593.05,1081.14 C606.09,1116.99 618.94,1152.32 628.05,1177.38 " fill="none" id="Declaration-&gt;FieldList" style="stroke: #A80036; stroke-width: 1.0;"/><polygon fill="#A80036" points="629.82,1182.25,630.4843,1172.4236,628.1021,1177.5544,622.9713,1175.1722,629.82,1182.25" style="stroke: #A80036; stroke-width: 1.0;"/><text fill="#000000" font-family="sans-serif" font-size="13" lengthAdjust="spacingAndGlyphs" textLength="34" x="610" y="1125.897">Fields</text><!--MD5=[7e615e84b3537c1680515fc501ba3940]
link Declaration to Complexity--><path d="M445.95,1064.16 C440.09,1070.05 434.09,1075.71 428,1081 C378.66,1123.87 313.4,1160.24 265.7,1183.88 " fill="none" id="Declaration-&gt;Complexity" style="stroke: #A80036; stroke-width: 1.0;"/><polygon fill="#A80036" points="261.14,1186.13,270.9809,1185.7331,265.6235,1183.9168,267.4397,1178.5595,261.14,1186.13" style="stroke: #A80036; stroke-width: 1.0;"/><text fill="#000000" font-family="sans-serif" font-size="13" lengthAdjust="spacingAndGlyphs" textLength="68" x="390" y="1125.897">Complexity</text><!--MD5=[ca8ed51628b5a8f08cd2666defba5d2f]
link GMN14 to Declaration--><path d="M987.75,666.53 C898.55,697.11 682.21,772.42 654,793 C647.87,797.48 641.89,802.37 636.09,807.56 " fill="none" id="GMN14-Declaration" style="stroke: #A80036; stroke-width: 1.0; stroke-dasharray: 7.0,7.0;"/><!--MD5=[3c0e9557b355ad9d3349c259e3dccfcd]
link GMN17 to DeclarationKind--><path d="M260.63,951.02 C265.35,984.1 281.61,1072.83 326,1130 C343.01,1151.91 367.51,1169.96 390.31,1183.56 " fill="none" id="GMN17-DeclarationKind" style="stroke: #A80036; stroke-width: 1.0; stroke-dasharray: 7.0,7.0;"/><!--MD5=[b9041fe517dc0921b8f46db285911730]
link DeclarationList to Declaration--><path d="M533.6,714.11 C542.14,723.1 549.58,733.07 555,744 C561.77,757.65 565.68,772.53 567.54,787.77 " fill="none" id="DeclarationList-&gt;Declaration" style="stroke: #A80036; stroke-width: 1.0;"/><polygon fill="#A80036" points="568.1,792.95,571.126,783.5775,567.5714,787.978,563.1709,784.4233,568.1,792.95" style="stroke: #A80036; stroke-width: 1.0;"/><text fill="#000000" font-family="sans-serif" font-size="13" lengthAdjust="spacingAndGlyphs" textLength="27" x="562" y="758.897">type</text><!--MD5=[b9041fe517dc0921b8f46db285911730]
link DeclarationList to Declaration--><path d="M336.23,714.05 C322.91,729.33 317.57,746.2 330,763 C357.09,799.62 390.39,767.3 428,793 C432.7,796.21 437.3,799.68 441.78,803.35 " fill="none" id="DeclarationList-&gt;Declaration-1" style="stroke: #A80036; stroke-width: 1.0;"/><polygon fill="#A80036" points="445.87,806.78,441.5135,797.947,442.0277,803.5805,436.3943,804.0947,445.87,806.78" style="stroke: #A80036; stroke-width: 1.0;"/><text fill="#000000" font-family="sans-serif" font-size="13" lengthAdjust="spacingAndGlyphs" textLength="63" x="331" y="758.897">Exported()</text><!--MD5=[b9041fe517dc0921b8f46db285911730]
link DeclarationList to Declaration--><path d="M429.38,714.27 C429.27,730.35 430.64,747.54 435,763 C437.46,771.72 440.5,780.44 443.97,789.07 " fill="none" id="DeclarationList-&gt;Declaration-2" style="stroke: #A80036; stroke-width: 1.0;"/><polygon fill="#A80036" points="445.94,793.85,446.1859,784.0042,444.024,789.2317,438.7966,787.0698,445.94,793.85" style="stroke: #A80036; stroke-width: 1.0;"/><text fill="#000000" font-family="sans-serif" font-size="13" lengthAdjust="spacingAndGlyphs" textLength="38" x="436" y="758.897">Filter()</text><!--MD5=[b9041fe517dc0921b8f46db285911730]
link DeclarationList to Declaration--><path d="M466.25,714.36 C470.74,724.17 475.15,734.3 479,744 C484.6,758.11 490.09,772.95 495.33,787.87 " fill="none" id="DeclarationList-&gt;Declaration-3" style="stroke: #A80036; stroke-width: 1.0;"/><polygon fill="#A80036" points="497.1,792.93,497.9155,783.115,495.4546,788.2085,490.3611,785.7476,497.1,792.93" style="stroke: #A80036; stroke-width: 1.0;"/><text fill="#000000" font-family="sans-serif" font-size="13" lengthAdjust="spacingAndGlyphs" textLength="34" x="486" y="758.897">Find()</text><!--MD5=[282ddf5b50bc45f1601ec8bac76fcb6c]
link GMN21 to DeclarationList--><path d="M250.87,457.25 C263.04,480.02 290.07,527.34 321,561 C330.45,571.29 341.15,581.34 352.13,590.77 " fill="none" id="GMN21-DeclarationList" style="stroke: #A80036; stroke-width: 1.0; stroke-dasharray: 7.0,7.0;"/><!--MD5=[da7bc372dee29211e58209bfeeaf8008]
link Package to Definition--><path d="M212.09,248.44 C264.33,283.23 334.35,330.57 395,374 C395.26,374.19 395.52,374.37 395.78,374.56 " fill="none" id="Package-&gt;Definition" style="stroke: #A80036; stroke-width: 1.0;"/><polygon fill="none" points="399.99,368.96,412.05,386.39,391.75,380.29,399.99,368.96" style="stroke: #A80036; stroke-width: 1.0;"/><text fill="#000000" font-family="sans-serif" font-size="13" lengthAdjust="spacingAndGlyphs" textLength="75" x="347" y="339.897">embeded by</text><!--MD5=[f7f4336b1fb381e3517df5c361285d48]
link Definition to StringSet--><path d="M557.81,505.41 C591.44,533.78 631.11,567.24 663.99,594.98 " fill="none" id="Definition-&gt;StringSet" style="stroke: #A80036; stroke-width: 1.0;"/><polygon fill="#A80036" points="667.96,598.33,663.6748,589.4623,664.1436,595.0996,658.5062,595.5685,667.96,598.33" style="stroke: #A80036; stroke-width: 1.0;"/><text fill="#000000" font-family="sans-serif" font-size="13" lengthAdjust="spacingAndGlyphs" textLength="48" x="624" y="556.897">Imports</text><!--MD5=[31480ef542df25c1d1f73cd61f470346]
link Definition to DeclarationList--><path d="M412.38,500.67 C406.59,504.63 400.75,508.46 395,512 C369.28,527.84 349.97,516.35 334,542 C324.36,557.49 327.68,572.72 337.59,586.67 " fill="none" id="Definition-&gt;DeclarationList" style="stroke: #A80036; stroke-width: 1.0;"/><polygon fill="#A80036" points="340.86,590.96,338.5832,581.3779,337.8281,586.9842,332.2218,586.229,340.86,590.96" style="stroke: #A80036; stroke-width: 1.0;"/><text fill="#000000" font-family="sans-serif" font-size="13" lengthAdjust="spacingAndGlyphs" textLength="35" x="335" y="556.897">Types</text><!--MD5=[31480ef542df25c1d1f73cd61f470346]
link Definition to DeclarationList--><path d="M425.29,512.05 C419.47,521.6 414.46,531.69 411,542 C406.3,556.04 406.58,571.38 409.31,586.02 " fill="none" id="Definition-&gt;DeclarationList-1" style="stroke: #A80036; stroke-width: 1.0;"/><polygon fill="#A80036" points="410.32,590.95,412.4396,581.3319,409.3202,586.051,404.6011,582.9316,410.32,590.95" style="stroke: #A80036; stroke-width: 1.0;"/><text fill="#000000" font-family="sans-serif" font-size="13" lengthAdjust="spacingAndGlyphs" textLength="41" x="412" y="556.897">Consts</text><!--MD5=[31480ef542df25c1d1f73cd61f470346]
link Definition to DeclarationList--><path d="M469.43,512.09 C465.72,528.14 461.75,545.18 458,561 C456.12,568.95 454.12,577.28 452.13,585.54 " fill="none" id="Definition-&gt;DeclarationList-2" style="stroke: #A80036; stroke-width: 1.0;"/><polygon fill="#A80036" points="450.89,590.67,456.8886,582.8587,452.0623,585.8094,449.1116,580.983,450.89,590.67" style="stroke: #A80036; stroke-width: 1.0;"/><text fill="#000000" font-family="sans-serif" font-size="13" lengthAdjust="spacingAndGlyphs" textLength="26" x="463" y="556.897">Vars</text><!--MD5=[31480ef542df25c1d1f73cd61f470346]
link Definition to DeclarationList--><path d="M501.87,512.02 C503.37,528.32 502.81,545.48 498,561 C495.34,569.6 491.55,578.1 487.13,586.26 " fill="none" id="Definition-&gt;DeclarationList-3" style="stroke: #A80036; stroke-width: 1.0;"/><polygon fill="#A80036" points="484.62,590.75,492.5022,584.8448,487.0591,586.3853,485.5186,580.9422,484.62,590.75" style="stroke: #A80036; stroke-width: 1.0;"/><text fill="#000000" font-family="sans-serif" font-size="13" lengthAdjust="spacingAndGlyphs" textLength="35" x="503" y="556.897">Funcs</text><!--MD5=[fabba1097c2ca551039803dc215a06d2]
link FieldList to Field--><path d="M656.47,1245.8 C669.14,1271.03 687.72,1308.01 704.91,1342.23 " fill="none" id="FieldList-&gt;Field" style="stroke: #A80036; stroke-width: 1.0;"/><polygon fill="#A80036" points="707.22,1346.82,706.7602,1336.9819,704.9782,1342.3507,699.6094,1340.5687,707.22,1346.82" style="stroke: #A80036; stroke-width: 1.0;"/><text fill="#000000" font-family="sans-serif" font-size="13" lengthAdjust="spacingAndGlyphs" textLength="27" x="693" y="1312.897">type</text><!--MD5=[ca0441f23cfc34fc1c23efc044d9a232]
link Package to Complexity--><path d="M86.42,295.07 C69.24,338.96 54,392 54,442 C54,442 54,442 54,938 C54,1003.43 59.13,1022.78 89,1081 C102.86,1108.02 123.3,1134.21 142.99,1156.03 " fill="none" id="Package-&gt;Complexity" style="stroke: #A80036; stroke-width: 1.0;"/><polygon fill="#A80036" points="146.4,1159.77,143.2949,1150.4234,143.0324,1156.0742,137.3816,1155.8116,146.4,1159.77" style="stroke: #A80036; stroke-width: 1.0;"/><text fill="#000000" font-family="sans-serif" font-size="13" lengthAdjust="spacingAndGlyphs" textLength="68" x="55" y="657.897">Complexity</text><!--MD5=[949a4670dec9cd4c44d59ffa15e0f3e2]
@startuml

class Complexity {
  + Cognitive: int
  + Cyclomatic: int
  + Lines: int
  + Coverage: float64
}

class Declaration {
  + Kind: DeclarationKind
  + Type: string
  + File: string
  + SelfContained: bool
  + Imports: []string
  + References: map[string][]string
  + Doc: string
  + Name: string
  + Names: []string
  + Receiver: string
  + Fields: FieldList
  + Arguments: []string
  + Returns: []string
  + Signature: string
  + Source: string
  + Complexity: *Complexity
}

class DeclarationKind {
  - type: string
  + String () string
}

class DeclarationList {
  - type: []*Declaration
  + Exported () []*Declaration
  + Filter (matchfn func(d *Declaration) bool) []*Declaration
  + Find (matchfn func(d *Declaration) bool) *Declaration
  + Walk (matchfn func(d *Declaration))
}

class Definition {
  + Doc: string
  + Imports: StringSet
  + Types: DeclarationList
  + Consts: DeclarationList
  + Vars: DeclarationList
  + Funcs: DeclarationList
}

class Field {
  + Name: string
  + Type: string
  + Path: string
  + Doc: string
  + Comment: string
  + Tag: string
  + JSONName: string
  + MapKey: string
}

class FieldList {
  - type: []*Field
}

class Package {
  + ID: string
  + Package: string
  + ImportPath: string
  + Path: string
  + TestPackage: bool
  + Complexity: *Complexity
  + Pkg: *packages.Package
  + Equal (in Package) bool
  + Name () string
  + String () string
}

class StringSet {
  - type: map[string][]string
  + All () []string
  + Get (key string) []string
  + Map () (map[string]string, []error)
}


Declaration - -> DeclarationKind : Kind
Declaration - -> FieldList : Fields
Declaration - -> Complexity : Complexity

note top of Declaration
Declaration holds information about a go symbol.
end note



note top of DeclarationKind
DeclarationKind is an enum of go symbol types.
end note


DeclarationList - -> Declaration : type

note top of DeclarationList
DeclarationList holds a list of Go symbols.
end note


DeclarationList - -> Declaration : Exported()
DeclarationList - -> Declaration : Filter()
DeclarationList - -> Declaration : Find()
Package - -|> Definition : embeded by
Definition - -> StringSet : Imports
Definition - -> DeclarationList : Types
Definition - -> DeclarationList : Consts
Definition - -> DeclarationList : Vars
Definition - -> DeclarationList : Funcs

note top of Definition
Definition holds all symbols defined for a Package.
end note



note top of Field
Field holds details about a field definition.
end note


FieldList - -> Field : type

note top of FieldList
FieldList contains all struct fields.
end note


Package - -> Complexity : Complexity

note top of Package
Package holds go package information.
end note



note top of StringSet
StringSet provides a key based unique string slice.
end note



@enduml

PlantUML version 1.2020.02(Sun Mar 01 11:22:07 CET 2020)
(GPL source distribution)
Java Runtime: OpenJDK Runtime Environment
JVM: OpenJDK 64-Bit Server VM
Java Version: 21.0.8+9-Ubuntu-0ubuntu125.04.1
Operating System: Linux
Default Encoding: UTF-8
Language: en
Country: US
--></g></svg>