<?xml version="1.0" encoding="UTF-8" standalone="no"?><svg xmlns="http://www.w3.org/2000/svg" xmlns:xlink="http://www.w3.org/1999/xlink" contentScriptType="application/ecmascript" contentStyleType="text/css" height="1540px" preserveAspectRatio="none" style="width:1184px;height:1540px;" version="1.1" viewBox="0 0 1184 1540" width="1184px" zoomAndPan="magnify"><defs><filter height="300%" id="fir4evce8nvu6" width="300%" x="-1" y="-1"><feGaussianBlur result="blurOut" stdDeviation="2.0"/><feColorMatrix in="blurOut" result="blurOut2" type="matrix" values="0 0 0 0 0 0 0 0 0 0 0 0 0 0 0 0 0 0 .4 0"/><feOffset dx="4.0" dy="4.0" in="blurOut2" result="blurOut3"/><feBlend in="SourceGraphic" in2="blurOut3" mode="normal"/></filter></defs><g><!--MD5=[e6494f7027ee119b87f8f5a248b6d22e]
class Complexity--><rect fill="#FEFECE" filter="url(#fir4evce8nvu6)" height="107.9276" id="Complexity" style="stroke: #A80036; stroke-width: 1.5;" width="118" x="132" y="1175"/><ellipse cx="157.8" cy="1191" fill="#ADD1B2" rx="11" ry="11" style="stroke: #A80036; stroke-width: 1.0;"/><path d="M160.7688,1196.6406 Q160.1906,1196.9375 159.55,1197.0781 Q158.9094,1197.2344 158.2063,1197.2344 Q155.7063,1197.2344 154.3781,1195.5938 Q153.0656,1193.9375 153.0656,1190.8125 Q153.0656,1187.6875 154.3781,1186.0313 Q155.7063,1184.375 158.2063,1184.375 Q158.9094,1184.375 159.55,1184.5313 Q160.2063,1184.6875 160.7688,1184.9844 L160.7688,1187.7031 Q160.1438,1187.125 159.55,1186.8594 Q158.9563,1186.5781 158.3313,1186.5781 Q156.9875,1186.5781 156.3,1187.6563 Q155.6125,1188.7188 155.6125,1190.8125 Q155.6125,1192.9063 156.3,1193.9844 Q156.9875,1195.0469 158.3313,1195.0469 Q158.9563,1195.0469 159.55,1194.7813 Q160.1438,1194.5 160.7688,1193.9219 L160.7688,1196.6406 Z "/><text fill="#000000" font-family="sans-serif" font-size="12" lengthAdjust="spacingAndGlyphs" textLength="62" x="174.2" y="1195.656">Complexity</text><line style="stroke: #A80036; stroke-width: 1.5;" x1="133" x2="249" y1="1207" y2="1207"/><ellipse cx="143" cy="1218" fill="none" rx="3" ry="3" style="stroke: #038048; stroke-width: 1.0;"/><text fill="#000000" font-family="sans-serif" font-size="11" lengthAdjust="spacingAndGlyphs" textLength="70" x="152" y="1222.7589">Cognitive: int</text><ellipse cx="143" cy="1232.9819" fill="none" rx="3" ry="3" style="stroke: #038048; stroke-width: 1.0;"/><text fill="#000000" font-family="sans-serif" font-size="11" lengthAdjust="spacingAndGlyphs" textLength="76" x="152" y="1237.7408">Cyclomatic: int</text><ellipse cx="143" cy="1247.9638" fill="none" rx="3" ry="3" style="stroke: #038048; stroke-width: 1.0;"/><text fill="#000000" font-family="sans-serif" font-size="11" lengthAdjust="spacingAndGlyphs" textLength="47" x="152" y="1252.7227">Lines: int</text><ellipse cx="143" cy="1262.9457" fill="none" rx="3" ry="3" style="stroke: #038048; stroke-width: 1.0;"/><text fill="#000000" font-family="sans-serif" font-size="11" lengthAdjust="spacingAndGlyphs" textLength="92" x="152" y="1267.7046">Coverage: float64</text><line style="stroke: #A80036; stroke-width: 1.5;" x1="133" x2="249" y1="1274.9276" y2="1274.9276"/><!--MD5=[d80409f3576551ed6a455469f0519e41]
class Declaration--><rect fill="#FEFECE" filter="url(#fir4evce8nvu6)" height="287.7102" id="Declaration" style="stroke: #A80036; stroke-width: 1.5;" width="190" x="435" y="808"/><ellipse cx="493.25" cy="824" fill="#ADD1B2" rx="11" ry="11" style="stroke: #A80036; stroke-width: 1.0;"/><path d="M496.2188,829.6406 Q495.6406,829.9375 495,830.0781 Q494.3594,830.2344 493.6563,830.2344 Q491.1563,830.2344 489.8281,828.5938 Q488.5156,826.9375 488.5156,823.8125 Q488.5156,820.6875 489.8281,819.0313 Q491.1563,817.375 493.6563,817.375 Q494.3594,817.375 495,817.5313 Q495.6563,817.6875 496.2188,817.9844 L496.2188,820.7031 Q495.5938,820.125 495,819.8594 Q494.4063,819.5781 493.7813,819.5781 Q492.4375,819.5781 491.75,820.6563 Q491.0625,821.7188 491.0625,823.8125 Q491.0625,825.9063 491.75,826.9844 Q492.4375,828.0469 493.7813,828.0469 Q494.4063,828.0469 495,827.7813 Q495.5938,827.5 496.2188,826.9219 L496.2188,829.6406 Z "/><text fill="#000000" font-family="sans-serif" font-size="12" lengthAdjust="spacingAndGlyphs" textLength="65" x="513.75" y="828.656">Declaration</text><line style="stroke: #A80036; stroke-width: 1.5;" x1="436" x2="624" y1="840" y2="840"/><ellipse cx="446" cy="851" fill="none" rx="3" ry="3" style="stroke: #038048; stroke-width: 1.0;"/><text fill="#000000" font-family="sans-serif" font-size="11" lengthAdjust="spacingAndGlyphs" textLength="114" x="455" y="855.7589">Kind: DeclarationKind</text><ellipse cx="446" cy="865.9819" fill="none" rx="3" ry="3" style="stroke: #038048; stroke-width: 1.0;"/><text fill="#000000" font-family="sans-serif" font-size="11" lengthAdjust="spacingAndGlyphs" textLength="62" x="455" y="870.7408">Type: string</text><ellipse cx="446" cy="880.9638" fill="none" rx="3" ry="3" style="stroke: #038048; stroke-width: 1.0;"/><text fill="#000000" font-family="sans-serif" font-size="11" lengthAdjust="spacingAndGlyphs" textLength="55" x="455" y="885.7227">File: string</text><ellipse cx="446" cy="895.9457" fill="none" rx="3" ry="3" style="stroke: #038048; stroke-width: 1.0;"/><text fill="#000000" font-family="sans-serif" font-size="11" lengthAdjust="spacingAndGlyphs" textLength="103" x="455" y="900.7046">SelfContained: bool</text><ellipse cx="446" cy="910.9276" fill="none" rx="3" ry="3" style="stroke: #038048; stroke-width: 1.0;"/><text fill="#000000" font-family="sans-serif" font-size="11" lengthAdjust="spacingAndGlyphs" textLength="87" x="455" y="915.6865">Imports: []string</text><ellipse cx="446" cy="925.9094" fill="none" rx="3" ry="3" style="stroke: #038048; stroke-width: 1.0;"/><text fill="#000000" font-family="sans-serif" font-size="11" lengthAdjust="spacingAndGlyphs" textLength="164" x="455" y="930.6684">References: map[string][]string</text><ellipse cx="446" cy="940.8913" fill="none" rx="3" ry="3" style="stroke: #038048; stroke-width: 1.0;"/><text fill="#000000" font-family="sans-serif" font-size="11" lengthAdjust="spacingAndGlyphs" textLength="57" x="455" y="945.6502">Doc: string</text><ellipse cx="446" cy="955.8732" fill="none" rx="3" ry="3" style="stroke: #038048; stroke-width: 1.0;"/><text fill="#000000" font-family="sans-serif" font-size="11" lengthAdjust="spacingAndGlyphs" textLength="67" x="455" y="960.6321">Name: string</text><ellipse cx="446" cy="970.8551" fill="none" rx="3" ry="3" style="stroke: #038048; stroke-width: 1.0;"/><text fill="#000000" font-family="sans-serif" font-size="11" lengthAdjust="spacingAndGlyphs" textLength="80" x="455" y="975.614">Names: []string</text><ellipse cx="446" cy="985.837" fill="none" rx="3" ry="3" style="stroke: #038048; stroke-width: 1.0;"/><text fill="#000000" font-family="sans-serif" font-size="11" lengthAdjust="spacingAndGlyphs" textLength="81" x="455" y="990.5959">Receiver: string</text><ellipse cx="446" cy="1000.8189" fill="none" rx="3" ry="3" style="stroke: #038048; stroke-width: 1.0;"/><text fill="#000000" font-family="sans-serif" font-size="11" lengthAdjust="spacingAndGlyphs" textLength="79" x="455" y="1005.5778">Fields: FieldList</text><ellipse cx="446" cy="1015.8008" fill="none" rx="3" ry="3" style="stroke: #038048; stroke-width: 1.0;"/><text fill="#000000" font-family="sans-serif" font-size="11" lengthAdjust="spacingAndGlyphs" textLength="103" x="455" y="1020.5597">Arguments: []string</text><ellipse cx="446" cy="1030.7827" fill="none" rx="3" ry="3" style="stroke: #038048; stroke-width: 1.0;"/><text fill="#000000" font-family="sans-serif" font-size="11" lengthAdjust="spacingAndGlyphs" textLength="86" x="455" y="1035.5416">Returns: []string</text><ellipse cx="446" cy="1045.7645" fill="none" rx="3" ry="3" style="stroke: #038048; stroke-width: 1.0;"/><text fill="#000000" font-family="sans-serif" font-size="11" lengthAdjust="spacingAndGlyphs" textLength="88" x="455" y="1050.5235">Signature: string</text><ellipse cx="446" cy="1060.7464" fill="none" rx="3" ry="3" style="stroke: #038048; stroke-width: 1.0;"/><text fill="#000000" font-family="sans-serif" font-size="11" lengthAdjust="spacingAndGlyphs" textLength="73" x="455" y="1065.5053">Source: string</text><ellipse cx="446" cy="1075.7283" fill="none" rx="3" ry="3" style="stroke: #038048; stroke-width: 1.0;"/><text fill="#000000" font-family="sans-serif" font-size="11" lengthAdjust="spacingAndGlyphs" textLength="130" x="455" y="1080.4872">Complexity: *Complexity</text><line style="stroke: #A80036; stroke-width: 1.5;" x1="436" x2="624" y1="1087.7102" y2="1087.7102"/><!--MD5=[9c9e98b0eb5e2c68874d348a767e831d]
class DeclarationKind--><rect fill="#FEFECE" filter="url(#fir4evce8nvu6)" height="77.9638" id="DeclarationKind" style="stroke: #A80036; stroke-width: 1.5;" width="121" x="379.5" y="1190"/><ellipse cx="394.5" cy="1206" fill="#ADD1B2" rx="11" ry="11" style="stroke: #A80036; stroke-width: 1.0;"/><path d="M397.4688,1211.6406 Q396.8906,1211.9375 396.25,1212.0781 Q395.6094,1212.2344 394.9063,1212.2344 Q392.4063,1212.2344 391.0781,1210.5938 Q389.7656,1208.9375 389.7656,1205.8125 Q389.7656,1202.6875 391.0781,1201.0313 Q392.4063,1199.375 394.9063,1199.375 Q395.6094,1199.375 396.25,1199.5313 Q396.9063,1199.6875 397.4688,1199.9844 L397.4688,1202.7031 Q396.8438,1202.125 396.25,1201.8594 Q395.6563,1201.5781 395.0313,1201.5781 Q393.6875,1201.5781 393,1202.6563 Q392.3125,1203.7188 392.3125,1205.8125 Q392.3125,1207.9063 393,1208.9844 Q393.6875,1210.0469 395.0313,1210.0469 Q395.6563,1210.0469 396.25,1209.7813 Q396.8438,1209.5 397.4688,1208.9219 L397.4688,1211.6406 Z "/><text fill="#000000" font-family="sans-serif" font-size="12" lengthAdjust="spacingAndGlyphs" textLength="89" x="408.5" y="1210.656">DeclarationKind</text><line style="stroke: #A80036; stroke-width: 1.5;" x1="380.5" x2="499.5" y1="1222" y2="1222"/><rect fill="none" height="6" style="stroke: #C82930; stroke-width: 1.0;" width="6" x="387.5" y="1230"/><text fill="#000000" font-family="sans-serif" font-size="11" lengthAdjust="spacingAndGlyphs" textLength="60" x="399.5" y="1237.7589">type: string</text><line style="stroke: #A80036; stroke-width: 1.5;" x1="380.5" x2="499.5" y1="1244.9819" y2="1244.9819"/><ellipse cx="390.5" cy="1255.9819" fill="#84BE84" rx="3" ry="3" style="stroke: #038048; stroke-width: 1.0;"/><text fill="#000000" font-family="sans-serif" font-size="11" lengthAdjust="spacingAndGlyphs" textLength="75" x="399.5" y="1260.7408">String () string</text><!--MD5=[f8a408d8ad8712005ce2c3ad36fe1243]
class DeclarationList--><rect fill="#FEFECE" filter="url(#fir4evce8nvu6)" height="122.9094" id="DeclarationList" style="stroke: #A80036; stroke-width: 1.5;" width="317" x="265.5" y="606"/><ellipse cx="377.75" cy="622" fill="#ADD1B2" rx="11" ry="11" style="stroke: #A80036; stroke-width: 1.0;"/><path d="M380.7188,627.6406 Q380.1406,627.9375 379.5,628.0781 Q378.8594,628.2344 378.1563,628.2344 Q375.6563,628.2344 374.3281,626.5938 Q373.0156,624.9375 373.0156,621.8125 Q373.0156,618.6875 374.3281,617.0313 Q375.6563,615.375 378.1563,615.375 Q378.8594,615.375 379.5,615.5313 Q380.1563,615.6875 380.7188,615.9844 L380.7188,618.7031 Q380.0938,618.125 379.5,617.8594 Q378.9063,617.5781 378.2813,617.5781 Q376.9375,617.5781 376.25,618.6563 Q375.5625,619.7188 375.5625,621.8125 Q375.5625,623.9063 376.25,624.9844 Q376.9375,626.0469 378.2813,626.0469 Q378.9063,626.0469 379.5,625.7813 Q380.0938,625.5 380.7188,624.9219 L380.7188,627.6406 Z "/><text fill="#000000" font-family="sans-serif" font-size="12" lengthAdjust="spacingAndGlyphs" textLength="84" x="398.25" y="626.656">DeclarationList</text><line style="stroke: #A80036; stroke-width: 1.5;" x1="266.5" x2="581.5" y1="638" y2="638"/><rect fill="none" height="6" style="stroke: #C82930; stroke-width: 1.0;" width="6" x="273.5" y="646"/><text fill="#000000" font-family="sans-serif" font-size="11" lengthAdjust="spacingAndGlyphs" textLength="103" x="285.5" y="653.7589">type: []*Declaration</text><line style="stroke: #A80036; stroke-width: 1.5;" x1="266.5" x2="581.5" y1="660.9819" y2="660.9819"/><ellipse cx="276.5" cy="671.9819" fill="#84BE84" rx="3" ry="3" style="stroke: #038048; stroke-width: 1.0;"/><text fill="#000000" font-family="sans-serif" font-size="11" lengthAdjust="spacingAndGlyphs" textLength="134" x="285.5" y="676.7408">Exported () []*Declaration</text><ellipse cx="276.5" cy="686.9638" fill="#84BE84" rx="3" ry="3" style="stroke: #038048; stroke-width: 1.0;"/><text fill="#000000" font-family="sans-serif" font-size="11" lengthAdjust="spacingAndGlyphs" textLength="291" x="285.5" y="691.7227">Filter (matchfn func(d *Declaration) bool) []*Declaration</text><ellipse cx="276.5" cy="701.9457" fill="#84BE84" rx="3" ry="3" style="stroke: #038048; stroke-width: 1.0;"/><text fill="#000000" font-family="sans-serif" font-size="11" lengthAdjust="spacingAndGlyphs" textLength="279" x="285.5" y="706.7046">Find (matchfn func(d *Declaration) bool) *Declaration</text><ellipse cx="276.5" cy="716.9276" fill="#84BE84" rx="3" ry="3" style="stroke: #038048; stroke-width: 1.0;"/><text fill="#000000" font-family="sans-serif" font-size="11" lengthAdjust="spacingAndGlyphs" textLength="185" x="285.5" y="721.6865">Walk (matchfn func(d *Declaration))</text><!--MD5=[af22135d5be6ed11ccd2d02fa51653b3]
class Definition--><rect fill="#FEFECE" filter="url(#fir4evce8nvu6)" height="152.8732" id="Definition" style="stroke: #A80036; stroke-width: 1.5;" width="145" x="423.5" y="374"/><ellipse cx="465.05" cy="390" fill="#ADD1B2" rx="11" ry="11" style="stroke: #A80036; stroke-width: 1.0;"/><path d="M468.0188,395.6406 Q467.4406,395.9375 466.8,396.0781 Q466.1594,396.2344 465.4563,396.2344 Q462.9563,396.2344 461.6281,394.5938 Q460.3156,392.9375 460.3156,389.8125 Q460.3156,386.6875 461.6281,385.0313 Q462.9563,383.375 465.4563,383.375 Q466.1594,383.375 466.8,383.5313 Q467.4563,383.6875 468.0188,383.9844 L468.0188,386.7031 Q467.3938,386.125 466.8,385.8594 Q466.2063,385.5781 465.5813,385.5781 Q464.2375,385.5781 463.55,386.6563 Q462.8625,387.7188 462.8625,389.8125 Q462.8625,391.9063 463.55,392.9844 Q464.2375,394.0469 465.5813,394.0469 Q466.2063,394.0469 466.8,393.7813 Q467.3938,393.5 468.0188,392.9219 L468.0188,395.6406 Z "/><text fill="#000000" font-family="sans-serif" font-size="12" lengthAdjust="spacingAndGlyphs" textLength="54" x="484.95" y="394.656">Definition</text><line style="stroke: #A80036; stroke-width: 1.5;" x1="424.5" x2="567.5" y1="406" y2="406"/><ellipse cx="434.5" cy="417" fill="none" rx="3" ry="3" style="stroke: #038048; stroke-width: 1.0;"/><text fill="#000000" font-family="sans-serif" font-size="11" lengthAdjust="spacingAndGlyphs" textLength="111" x="443.5" y="421.7589">References: StringSet</text><ellipse cx="434.5" cy="431.9819" fill="none" rx="3" ry="3" style="stroke: #038048; stroke-width: 1.0;"/><text fill="#000000" font-family="sans-serif" font-size="11" lengthAdjust="spacingAndGlyphs" textLength="57" x="443.5" y="436.7408">Doc: string</text><ellipse cx="434.5" cy="446.9638" fill="none" rx="3" ry="3" style="stroke: #038048; stroke-width: 1.0;"/><text fill="#000000" font-family="sans-serif" font-size="11" lengthAdjust="spacingAndGlyphs" textLength="96" x="443.5" y="451.7227">Imports: StringSet</text><ellipse cx="434.5" cy="461.9457" fill="none" rx="3" ry="3" style="stroke: #038048; stroke-width: 1.0;"/><text fill="#000000" font-family="sans-serif" font-size="11" lengthAdjust="spacingAndGlyphs" textLength="114" x="443.5" y="466.7046">Types: DeclarationList</text><ellipse cx="434.5" cy="476.9276" fill="none" rx="3" ry="3" style="stroke: #038048; stroke-width: 1.0;"/><text fill="#000000" font-family="sans-serif" font-size="11" lengthAdjust="spacingAndGlyphs" textLength="119" x="443.5" y="481.6865">Consts: DeclarationList</text><ellipse cx="434.5" cy="491.9094" fill="none" rx="3" ry="3" style="stroke: #038048; stroke-width: 1.0;"/><text fill="#000000" font-family="sans-serif" font-size="11" lengthAdjust="spacingAndGlyphs" textLength="107" x="443.5" y="496.6684">Vars: DeclarationList</text><ellipse cx="434.5" cy="506.8913" fill="none" rx="3" ry="3" style="stroke: #038048; stroke-width: 1.0;"/><text fill="#000000" font-family="sans-serif" font-size="11" lengthAdjust="spacingAndGlyphs" textLength="114" x="443.5" y="511.6502">Funcs: DeclarationList</text><line style="stroke: #A80036; stroke-width: 1.5;" x1="424.5" x2="567.5" y1="518.8732" y2="518.8732"/><!--MD5=[d9427b671d7d049aff2d6f2fe36a13b3]
class Field--><rect fill="#FEFECE" filter="url(#fir4evce8nvu6)" height="167.8551" id="Field" style="stroke: #A80036; stroke-width: 1.5;" width="119" x="678.5" y="1362"/><ellipse cx="720.95" cy="1378" fill="#ADD1B2" rx="11" ry="11" style="stroke: #A80036; stroke-width: 1.0;"/><path d="M723.9188,1383.6406 Q723.3406,1383.9375 722.7,1384.0781 Q722.0594,1384.2344 721.3563,1384.2344 Q718.8563,1384.2344 717.5281,1382.5938 Q716.2156,1380.9375 716.2156,1377.8125 Q716.2156,1374.6875 717.5281,1373.0313 Q718.8563,1371.375 721.3563,1371.375 Q722.0594,1371.375 722.7,1371.5313 Q723.3563,1371.6875 723.9188,1371.9844 L723.9188,1374.7031 Q723.2938,1374.125 722.7,1373.8594 Q722.1063,1373.5781 721.4813,1373.5781 Q720.1375,1373.5781 719.45,1374.6563 Q718.7625,1375.7188 718.7625,1377.8125 Q718.7625,1379.9063 719.45,1380.9844 Q720.1375,1382.0469 721.4813,1382.0469 Q722.1063,1382.0469 722.7,1381.7813 Q723.2938,1381.5 723.9188,1380.9219 L723.9188,1383.6406 Z "/><text fill="#000000" font-family="sans-serif" font-size="12" lengthAdjust="spacingAndGlyphs" textLength="26" x="741.05" y="1382.656">Field</text><line style="stroke: #A80036; stroke-width: 1.5;" x1="679.5" x2="796.5" y1="1394" y2="1394"/><ellipse cx="689.5" cy="1405" fill="none" rx="3" ry="3" style="stroke: #038048; stroke-width: 1.0;"/><text fill="#000000" font-family="sans-serif" font-size="11" lengthAdjust="spacingAndGlyphs" textLength="67" x="698.5" y="1409.7589">Name: string</text><ellipse cx="689.5" cy="1419.9819" fill="none" rx="3" ry="3" style="stroke: #038048; stroke-width: 1.0;"/><text fill="#000000" font-family="sans-serif" font-size="11" lengthAdjust="spacingAndGlyphs" textLength="62" x="698.5" y="1424.7408">Type: string</text><ellipse cx="689.5" cy="1434.9638" fill="none" rx="3" ry="3" style="stroke: #038048; stroke-width: 1.0;"/><text fill="#000000" font-family="sans-serif" font-size="11" lengthAdjust="spacingAndGlyphs" textLength="61" x="698.5" y="1439.7227">Path: string</text><ellipse cx="689.5" cy="1449.9457" fill="none" rx="3" ry="3" style="stroke: #038048; stroke-width: 1.0;"/><text fill="#000000" font-family="sans-serif" font-size="11" lengthAdjust="spacingAndGlyphs" textLength="57" x="698.5" y="1454.7046">Doc: string</text><ellipse cx="689.5" cy="1464.9276" fill="none" rx="3" ry="3" style="stroke: #038048; stroke-width: 1.0;"/><text fill="#000000" font-family="sans-serif" font-size="11" lengthAdjust="spacingAndGlyphs" textLength="88" x="698.5" y="1469.6865">Comment: string</text><ellipse cx="689.5" cy="1479.9094" fill="none" rx="3" ry="3" style="stroke: #038048; stroke-width: 1.0;"/><text fill="#000000" font-family="sans-serif" font-size="11" lengthAdjust="spacingAndGlyphs" textLength="56" x="698.5" y="1484.6684">Tag: string</text><ellipse cx="689.5" cy="1494.8913" fill="none" rx="3" ry="3" style="stroke: #038048; stroke-width: 1.0;"/><text fill="#000000" font-family="sans-serif" font-size="11" lengthAdjust="spacingAndGlyphs" textLength="93" x="698.5" y="1499.6502">JSONName: string</text><ellipse cx="689.5" cy="1509.8732" fill="none" rx="3" ry="3" style="stroke: #038048; stroke-width: 1.0;"/><text fill="#000000" font-family="sans-serif" font-size="11" lengthAdjust="spacingAndGlyphs" textLength="79" x="698.5" y="1514.6321">MapKey: string</text><line style="stroke: #A80036; stroke-width: 1.5;" x1="679.5" x2="796.5" y1="1521.8551" y2="1521.8551"/><!--MD5=[898b628376ee89e7bc81c09a0d440f56]
class FieldList--><rect fill="#FEFECE" filter="url(#fir4evce8nvu6)" height="62.9819" id="FieldList" style="stroke: #A80036; stroke-width: 1.5;" width="94" x="583" y="1197.5"/><ellipse cx="605.65" cy="1213.5" fill="#ADD1B2" rx="11" ry="11" style="stroke: #A80036; stroke-width: 1.0;"/><path d="M608.6188,1219.1406 Q608.0406,1219.4375 607.4,1219.5781 Q606.7594,1219.7344 606.0563,1219.7344 Q603.5563,1219.7344 602.2281,1218.0938 Q600.9156,1216.4375 600.9156,1213.3125 Q600.9156,1210.1875 602.2281,1208.5313 Q603.5563,1206.875 606.0563,1206.875 Q606.7594,1206.875 607.4,1207.0313 Q608.0563,1207.1875 608.6188,1207.4844 L608.6188,1210.2031 Q607.9938,1209.625 607.4,1209.3594 Q606.8063,1209.0781 606.1813,1209.0781 Q604.8375,1209.0781 604.15,1210.1563 Q603.4625,1211.2188 603.4625,1213.3125 Q603.4625,1215.4063 604.15,1216.4844 Q604.8375,1217.5469 606.1813,1217.5469 Q606.8063,1217.5469 607.4,1217.2813 Q607.9938,1217 608.6188,1216.4219 L608.6188,1219.1406 Z "/><text fill="#000000" font-family="sans-serif" font-size="12" lengthAdjust="spacingAndGlyphs" textLength="45" x="621.35" y="1218.156">FieldList</text><line style="stroke: #A80036; stroke-width: 1.5;" x1="584" x2="676" y1="1229.5" y2="1229.5"/><rect fill="none" height="6" style="stroke: #C82930; stroke-width: 1.0;" width="6" x="591" y="1237.5"/><text fill="#000000" font-family="sans-serif" font-size="11" lengthAdjust="spacingAndGlyphs" textLength="68" x="603" y="1245.2589">type: []*Field</text><line style="stroke: #A80036; stroke-width: 1.5;" x1="584" x2="676" y1="1252.4819" y2="1252.4819"/><!--MD5=[4e2ad48a1abc117fdc6f339da0f64213]
class Package--><rect fill="#FEFECE" filter="url(#fir4evce8nvu6)" height="197.8189" id="Package" style="stroke: #A80036; stroke-width: 1.5;" width="156" x="56" y="97"/><ellipse cx="106.25" cy="113" fill="#ADD1B2" rx="11" ry="11" style="stroke: #A80036; stroke-width: 1.0;"/><path d="M109.2188,118.6406 Q108.6406,118.9375 108,119.0781 Q107.3594,119.2344 106.6563,119.2344 Q104.1563,119.2344 102.8281,117.5938 Q101.5156,115.9375 101.5156,112.8125 Q101.5156,109.6875 102.8281,108.0313 Q104.1563,106.375 106.6563,106.375 Q107.3594,106.375 108,106.5313 Q108.6563,106.6875 109.2188,106.9844 L109.2188,109.7031 Q108.5938,109.125 108,108.8594 Q107.4063,108.5781 106.7813,108.5781 Q105.4375,108.5781 104.75,109.6563 Q104.0625,110.7188 104.0625,112.8125 Q104.0625,114.9063 104.75,115.9844 Q105.4375,117.0469 106.7813,117.0469 Q107.4063,117.0469 108,116.7813 Q108.5938,116.5 109.2188,115.9219 L109.2188,118.6406 Z "/><text fill="#000000" font-family="sans-serif" font-size="12" lengthAdjust="spacingAndGlyphs" textLength="47" x="126.75" y="117.656">Package</text><line style="stroke: #A80036; stroke-width: 1.5;" x1="57" x2="211" y1="129" y2="129"/><ellipse cx="67" cy="140" fill="none" rx="3" ry="3" style="stroke: #038048; stroke-width: 1.0;"/><text fill="#000000" font-family="sans-serif" font-size="11" lengthAdjust="spacingAndGlyphs" textLength="49" x="76" y="144.7589">ID: string</text><ellipse cx="67" cy="154.9819" fill="none" rx="3" ry="3" style="stroke: #038048; stroke-width: 1.0;"/><text fill="#000000" font-family="sans-serif" font-size="11" lengthAdjust="spacingAndGlyphs" textLength="80" x="76" y="159.7408">Package: string</text><ellipse cx="67" cy="169.9638" fill="none" rx="3" ry="3" style="stroke: #038048; stroke-width: 1.0;"/><text fill="#000000" font-family="sans-serif" font-size="11" lengthAdjust="spacingAndGlyphs" textLength="98" x="76" y="174.7227">ImportPath: string</text><ellipse cx="67" cy="184.9457" fill="none" rx="3" ry="3" style="stroke: #038048; stroke-width: 1.0;"/><text fill="#000000" font-family="sans-serif" font-size="11" lengthAdjust="spacingAndGlyphs" textLength="61" x="76" y="189.7046">Path: string</text><ellipse cx="67" cy="199.9276" fill="none" rx="3" ry="3" style="stroke: #038048; stroke-width: 1.0;"/><text fill="#000000" font-family="sans-serif" font-size="11" lengthAdjust="spacingAndGlyphs" textLength="94" x="76" y="204.6865">TestPackage: bool</text><ellipse cx="67" cy="214.9094" fill="none" rx="3" ry="3" style="stroke: #038048; stroke-width: 1.0;"/><text fill="#000000" font-family="sans-serif" font-size="11" lengthAdjust="spacingAndGlyphs" textLength="130" x="76" y="219.6684">Complexity: *Complexity</text><ellipse cx="67" cy="229.8913" fill="none" rx="3" ry="3" style="stroke: #038048; stroke-width: 1.0;"/><text fill="#000000" font-family="sans-serif" font-size="11" lengthAdjust="spacingAndGlyphs" textLength="126" x="76" y="234.6502">Pkg: *packages.Package</text><line style="stroke: #A80036; stroke-width: 1.5;" x1="57" x2="211" y1="241.8732" y2="241.8732"/><ellipse cx="67" cy="252.8732" fill="#84BE84" rx="3" ry="3" style="stroke: #038048; stroke-width: 1.0;"/><text fill="#000000" font-family="sans-serif" font-size="11" lengthAdjust="spacingAndGlyphs" textLength="121" x="76" y="257.6321">Equal (in Package) bool</text><ellipse cx="67" cy="267.8551" fill="#84BE84" rx="3" ry="3" style="stroke: #038048; stroke-width: 1.0;"/><text fill="#000000" font-family="sans-serif" font-size="11" lengthAdjust="spacingAndGlyphs" textLength="73" x="76" y="272.614">Name () string</text><ellipse cx="67" cy="282.837" fill="#84BE84" rx="3" ry="3" style="stroke: #038048; stroke-width: 1.0;"/><text fill="#000000" font-family="sans-serif" font-size="11" lengthAdjust="spacingAndGlyphs" textLength="75" x="76" y="287.5959">String () string</text><!--MD5=[87fbbd40529fac58103832b10b21b03a]
class StringSet--><rect fill="#FEFECE" filter="url(#fir4evce8nvu6)" height="107.9276" id="StringSet" style="stroke: #A80036; stroke-width: 1.5;" width="202" x="618" y="613.5"/><ellipse cx="689.25" cy="629.5" fill="#ADD1B2" rx="11" ry="11" style="stroke: #A80036; stroke-width: 1.0;"/><path d="M692.2188,635.1406 Q691.6406,635.4375 691,635.5781 Q690.3594,635.7344 689.6563,635.7344 Q687.1563,635.7344 685.8281,634.0938 Q684.5156,632.4375 684.5156,629.3125 Q684.5156,626.1875 685.8281,624.5313 Q687.1563,622.875 689.6563,622.875 Q690.3594,622.875 691,623.0313 Q691.6563,623.1875 692.2188,623.4844 L692.2188,626.2031 Q691.5938,625.625 691,625.3594 Q690.4063,625.0781 689.7813,625.0781 Q688.4375,625.0781 687.75,626.1563 Q687.0625,627.2188 687.0625,629.3125 Q687.0625,631.4063 687.75,632.4844 Q688.4375,633.5469 689.7813,633.5469 Q690.4063,633.5469 691,633.2813 Q691.5938,633 692.2188,632.4219 L692.2188,635.1406 Z "/><text fill="#000000" font-family="sans-serif" font-size="12" lengthAdjust="spacingAndGlyphs" textLength="51" x="709.75" y="634.156">StringSet</text><line style="stroke: #A80036; stroke-width: 1.5;" x1="619" x2="819" y1="645.5" y2="645.5"/><rect fill="none" height="6" style="stroke: #C82930; stroke-width: 1.0;" width="6" x="626" y="653.5"/><text fill="#000000" font-family="sans-serif" font-size="11" lengthAdjust="spacingAndGlyphs" textLength="130" x="638" y="661.2589">type: map[string][]string</text><line style="stroke: #A80036; stroke-width: 1.5;" x1="619" x2="819" y1="668.4819" y2="668.4819"/><ellipse cx="629" cy="679.4819" fill="#84BE84" rx="3" ry="3" style="stroke: #038048; stroke-width: 1.0;"/><text fill="#000000" font-family="sans-serif" font-size="11" lengthAdjust="spacingAndGlyphs" textLength="64" x="638" y="684.2408">All () []string</text><ellipse cx="629" cy="694.4638" fill="#84BE84" rx="3" ry="3" style="stroke: #038048; stroke-width: 1.0;"/><text fill="#000000" font-family="sans-serif" font-size="11" lengthAdjust="spacingAndGlyphs" textLength="121" x="638" y="699.2227">Get (key string) []string</text><ellipse cx="629" cy="709.4457" fill="#84BE84" rx="3" ry="3" style="stroke: #038048; stroke-width: 1.0;"/><text fill="#000000" font-family="sans-serif" font-size="11" lengthAdjust="spacingAndGlyphs" textLength="176" x="638" y="714.2046">Map () (map[string]string, []error)</text><path d="M855.5,653.5 L855.5,681.206 L1172.5,681.206 L1172.5,663.5 L1162.5,653.5 L855.5,653.5 " fill="#FBFB77" filter="url(#fir4evce8nvu6)" style="stroke: #A80036; stroke-width: 1.0;"/><path d="M1162.5,653.5 L1162.5,663.5 L1172.5,663.5 L1162.5,653.5 " fill="#FBFB77" style="stroke: #A80036; stroke-width: 1.0;"/><text fill="#000000" font-family="sans-serif" font-size="13" lengthAdjust="spacingAndGlyphs" textLength="296" x="861.5" y="672.397">Declaration holds information about a go symbol.</text><path d="M96,938 L96,965.706 L400,965.706 L400,948 L390,938 L96,938 " fill="#FBFB77" filter="url(#fir4evce8nvu6)" style="stroke: #A80036; stroke-width: 1.0;"/><path d="M390,938 L390,948 L400,948 L390,938 " fill="#FBFB77" style="stroke: #A80036; stroke-width: 1.0;"/><text fill="#000000" font-family="sans-serif" font-size="13" lengthAdjust="spacingAndGlyphs" textLength="283" x="102" y="956.897">DeclarationKind is an enum of go symbol types.</text><path d="M121.5,436.5 L121.5,464.206 L388.5,464.206 L388.5,446.5 L378.5,436.5 L121.5,436.5 " fill="#FBFB77" filter="url(#fir4evce8nvu6)" style="stroke: #A80036; stroke-width: 1.0;"/><path d="M378.5,436.5 L378.5,446.5 L388.5,446.5 L378.5,436.5 " fill="#FBFB77" style="stroke: #A80036; stroke-width: 1.0;"/><text fill="#000000" font-family="sans-serif" font-size="13" lengthAdjust="spacingAndGlyphs" textLength="246" x="127.5" y="455.397">DeclarationList holds a list of Go symbols.</text><path d="M337,182 L337,209.706 A0,0 0 0 0 337,209.706 L492,209.706 L496,373.71 L500,209.706 L655,209.706 A0,0 0 0 0 655,209.706 L655,192 L645,182 L337,182 A0,0 0 0 0 337,182 " fill="#FBFB77" filter="url(#fir4evce8nvu6)" style="stroke: #A80036; stroke-width: 1.0;"/><path d="M645,182 L645,192 L655,192 L645,182 " fill="#FBFB77" style="stroke: #A80036; stroke-width: 1.0;"/><text fill="#000000" font-family="sans-serif" font-size="13" lengthAdjust="spacingAndGlyphs" textLength="297" x="343" y="200.897">Definition holds all symbols defined for a Package.</text><path d="M712.5,1215 L712.5,1242.706 A0,0 0 0 0 712.5,1242.706 L835.41,1242.706 L779.78,1361.83 L843.41,1242.706 L979.5,1242.706 A0,0 0 0 0 979.5,1242.706 L979.5,1225 L969.5,1215 L712.5,1215 A0,0 0 0 0 712.5,1215 " fill="#FBFB77" filter="url(#fir4evce8nvu6)" style="stroke: #A80036; stroke-width: 1.0;"/><path d="M969.5,1215 L969.5,1225 L979.5,1225 L969.5,1215 " fill="#FBFB77" style="stroke: #A80036; stroke-width: 1.0;"/><text fill="#000000" font-family="sans-serif" font-size="13" lengthAdjust="spacingAndGlyphs" textLength="246" x="718.5" y="1233.897">Field holds details about a field definition.</text><path d="M660.5,938 L660.5,965.706 A0,0 0 0 0 660.5,965.706 L757.34,965.706 L645.47,1197.17 L765.34,965.706 L875.5,965.706 A0,0 0 0 0 875.5,965.706 L875.5,948 L865.5,938 L660.5,938 A0,0 0 0 0 660.5,938 " fill="#FBFB77" filter="url(#fir4evce8nvu6)" style="stroke: #A80036; stroke-width: 1.0;"/><path d="M865.5,938 L865.5,948 L875.5,948 L865.5,938 " fill="#FBFB77" style="stroke: #A80036; stroke-width: 1.0;"/><text fill="#000000" font-family="sans-serif" font-size="13" lengthAdjust="spacingAndGlyphs" textLength="194" x="666.5" y="956.897">FieldList contains all struct fields.</text><path d="M6,8 L6,35.706 A0,0 0 0 0 6,35.706 L130,35.706 L134,96.66 L138,35.706 L262,35.706 A0,0 0 0 0 262,35.706 L262,18 L252,8 L6,8 A0,0 0 0 0 6,8 " fill="#FBFB77" filter="url(#fir4evce8nvu6)" style="stroke: #A80036; stroke-width: 1.0;"/><path d="M252,8 L252,18 L262,18 L252,8 " fill="#FBFB77" style="stroke: #A80036; stroke-width: 1.0;"/><text fill="#000000" font-family="sans-serif" font-size="13" lengthAdjust="spacingAndGlyphs" textLength="235" x="12" y="26.897">Package holds go package information.</text><path d="M650,436.5 L650,464.206 L968,464.206 L968,446.5 L958,436.5 L650,436.5 " fill="#FBFB77" filter="url(#fir4evce8nvu6)" style="stroke: #A80036; stroke-width: 1.0;"/><path d="M958,436.5 L958,446.5 L968,446.5 L958,436.5 " fill="#FBFB77" style="stroke: #A80036; stroke-width: 1.0;"/><text fill="#000000" font-family="sans-serif" font-size="13" lengthAdjust="spacingAndGlyphs" textLength="297" x="656" y="455.397">StringSet provides a key based unique string slice.</text><!--MD5=[d9f78b9da14621c57381f59b7c8a7fdc]
link Declaration to DeclarationKind--><path d="M483.15,1096.14 C472.5,1128.68 461.99,1160.81 454.01,1185.2 " fill="none" id="Declaration-&gt;DeclarationKind" style="stroke: #A80036; stroke-width: 1.0;"/><polygon fill="#A80036" points="452.45,1189.97,459.0379,1182.6488,453.9967,1185.2153,451.4303,1180.1741,452.45,1189.97" style="stroke: #A80036; stroke-width: 1.0;"/><text fill="#000000" font-family="sans-serif" font-size="13" lengthAdjust="spacingAndGlyphs" textLength="27" x="473" y="1140.897">Kind</text><!--MD5=[fb26886f863d0c2d14a29bb11a9c8f0c]
link Declaration to FieldList--><path d="M582.05,1096.14 C595.09,1131.99 607.94,1167.32 617.05,1192.38 " fill="none" id="Declaration-&gt;FieldList" style="stroke: #A80036; stroke-width: 1.0;"/><polygon fill="#A80036" points="618.82,1197.25,619.4843,1187.4236,617.1021,1192.5544,611.9713,1190.1722,618.82,1197.25" style="stroke: #A80036; stroke-width: 1.0;"/><text fill="#000000" font-family="sans-serif" font-size="13" lengthAdjust="spacingAndGlyphs" textLength="34" x="599" y="1140.897">Fields</text><!--MD5=[7e615e84b3537c1680515fc501ba3940]
link Declaration to Complexity--><path d="M434.95,1079.16 C429.09,1085.05 423.09,1090.71 417,1096 C367.66,1138.87 302.4,1175.24 254.7,1198.88 " fill="none" id="Declaration-&gt;Complexity" style="stroke: #A80036; stroke-width: 1.0;"/><polygon fill="#A80036" points="250.14,1201.13,259.9809,1200.7331,254.6235,1198.9168,256.4397,1193.5595,250.14,1201.13" style="stroke: #A80036; stroke-width: 1.0;"/><text fill="#000000" font-family="sans-serif" font-size="13" lengthAdjust="spacingAndGlyphs" textLength="68" x="379" y="1140.897">Complexity</text><!--MD5=[ca8ed51628b5a8f08cd2666defba5d2f]
link GMN14 to Declaration--><path d="M975.85,681.54 C886.89,712.13 671.13,787.45 643,808 C636.87,812.48 630.89,817.38 625.1,822.57 " fill="none" id="GMN14-Declaration" style="stroke: #A80036; stroke-width: 1.0; stroke-dasharray: 7.0,7.0;"/><!--MD5=[3c0e9557b355ad9d3349c259e3dccfcd]
link GMN17 to DeclarationKind--><path d="M249.63,966.02 C254.35,999.1 270.61,1087.83 315,1145 C332.01,1166.91 356.51,1184.96 379.31,1198.56 " fill="none" id="GMN17-DeclarationKind" style="stroke: #A80036; stroke-width: 1.0; stroke-dasharray: 7.0,7.0;"/><!--MD5=[b9041fe517dc0921b8f46db285911730]
link DeclarationList to Declaration--><path d="M531.69,729.24 C540.54,738.12 548.27,748.03 554,759 C561.09,772.58 564.89,787.41 566.36,802.62 " fill="none" id="DeclarationList-&gt;Declaration" style="stroke: #A80036; stroke-width: 1.0;"/><polygon fill="#A80036" points="566.76,807.79,570.0274,798.4989,566.3601,802.806,562.0531,799.1387,566.76,807.79" style="stroke: #A80036; stroke-width: 1.0;"/><text fill="#000000" font-family="sans-serif" font-size="13" lengthAdjust="spacingAndGlyphs" textLength="27" x="563" y="773.897">type</text><!--MD5=[b9041fe517dc0921b8f46db285911730]
link DeclarationList to Declaration--><path d="M334.65,729.1 C322.23,744.58 317.21,761.52 329,778 C353.05,811.6 383.26,784.15 417,808 C421.65,811.29 426.2,814.82 430.65,818.54 " fill="none" id="DeclarationList-&gt;Declaration-1" style="stroke: #A80036; stroke-width: 1.0;"/><polygon fill="#A80036" points="434.71,822.01,430.4799,813.1159,430.9137,818.756,425.2735,819.1899,434.71,822.01" style="stroke: #A80036; stroke-width: 1.0;"/><text fill="#000000" font-family="sans-serif" font-size="13" lengthAdjust="spacingAndGlyphs" textLength="63" x="330" y="773.897">Exported()</text><!--MD5=[b9041fe517dc0921b8f46db285911730]
link DeclarationList to Declaration--><path d="M425.03,729.04 C426.52,745.21 429.22,762.49 434,778 C436.51,786.16 439.44,794.36 442.68,802.52 " fill="none" id="DeclarationList-&gt;Declaration-2" style="stroke: #A80036; stroke-width: 1.0;"/><polygon fill="#A80036" points="444.74,807.6,445.0487,797.756,442.8535,802.9695,437.64,800.7744,444.74,807.6" style="stroke: #A80036; stroke-width: 1.0;"/><text fill="#000000" font-family="sans-serif" font-size="13" lengthAdjust="spacingAndGlyphs" textLength="38" x="435" y="773.897">Filter()</text><!--MD5=[b9041fe517dc0921b8f46db285911730]
link DeclarationList to Declaration--><path d="M463.23,729.14 C468.64,738.9 473.78,749.06 478,759 C483.94,773 489.37,787.86 494.3,802.87 " fill="none" id="DeclarationList-&gt;Declaration-3" style="stroke: #A80036; stroke-width: 1.0;"/><polygon fill="#A80036" points="495.95,807.97,496.9783,798.175,494.4075,803.2139,489.3686,800.643,495.95,807.97" style="stroke: #A80036; stroke-width: 1.0;"/><text fill="#000000" font-family="sans-serif" font-size="13" lengthAdjust="spacingAndGlyphs" textLength="34" x="486" y="773.897">Find()</text><!--MD5=[282ddf5b50bc45f1601ec8bac76fcb6c]
link GMN21 to DeclarationList--><path d="M258.09,464.64 C264.23,488.67 279.78,540.49 307,576 C315.12,586.6 324.78,596.62 335,605.87 " fill="none" id="GMN21-DeclarationList" style="stroke: #A80036; stroke-width: 1.0; stroke-dasharray: 7.0,7.0;"/><!--MD5=[da7bc372dee29211e58209bfeeaf8008]
link Package to Definition--><path d="M212.18,244.36 C267.48,278.7 342.73,327.14 406,374 C406.45,374.33 406.9,374.67 407.35,375 " fill="none" id="Package-&gt;Definition" style="stroke: #A80036; stroke-width: 1.0;"/><polygon fill="none" points="411.82,369.61,423.41,387.35,403.29,380.71,411.82,369.61" style="stroke: #A80036; stroke-width: 1.0;"/><text fill="#000000" font-family="sans-serif" font-size="13" lengthAdjust="spacingAndGlyphs" textLength="75" x="364" y="339.897">embeded by</text><!--MD5=[f7f4336b1fb381e3517df5c361285d48]
link Definition to StringSet--><path d="M568.66,491.63 C618.26,519.28 675.76,551.92 680,557 C692.24,571.65 700.76,590.43 706.64,608.28 " fill="none" id="Definition-&gt;StringSet" style="stroke: #A80036; stroke-width: 1.0;"/><polygon fill="#A80036" points="708.23,613.28,709.3117,603.4907,706.7134,608.5156,701.6886,605.9173,708.23,613.28" style="stroke: #A80036; stroke-width: 1.0;"/><text fill="#000000" font-family="sans-serif" font-size="13" lengthAdjust="spacingAndGlyphs" textLength="65" x="694" y="571.897">References</text><!--MD5=[f7f4336b1fb381e3517df5c361285d48]
link Definition to StringSet--><path d="M568.61,523.95 C586.01,541.11 604.59,559.28 622,576 C633.52,587.06 645.91,598.77 657.86,609.96 " fill="none" id="Definition-&gt;StringSet-1" style="stroke: #A80036; stroke-width: 1.0;"/><polygon fill="#A80036" points="661.55,613.41,657.7187,604.3369,657.9019,609.9908,652.248,610.1739,661.55,613.41" style="stroke: #A80036; stroke-width: 1.0;"/><text fill="#000000" font-family="sans-serif" font-size="13" lengthAdjust="spacingAndGlyphs" textLength="48" x="623" y="571.897">Imports</text><!--MD5=[31480ef542df25c1d1f73cd61f470346]
link Definition to DeclarationList--><path d="M423.41,515.97 C417.68,519.93 411.85,523.66 406,527 C371.21,546.86 344.14,524.3 321,557 C310.11,572.39 313.57,587.8 324.13,602.01 " fill="none" id="Definition-&gt;DeclarationList" style="stroke: #A80036; stroke-width: 1.0;"/><polygon fill="#A80036" points="327.29,605.99,324.8167,596.4567,324.177,602.0773,318.5564,601.4376,327.29,605.99" style="stroke: #A80036; stroke-width: 1.0;"/><text fill="#000000" font-family="sans-serif" font-size="13" lengthAdjust="spacingAndGlyphs" textLength="35" x="322" y="571.897">Types</text><!--MD5=[31480ef542df25c1d1f73cd61f470346]
link Definition to DeclarationList--><path d="M423.42,515.09 C413.04,527.85 403.9,541.99 398,557 C392.54,570.89 392.66,586.23 395.5,600.93 " fill="none" id="Definition-&gt;DeclarationList-1" style="stroke: #A80036; stroke-width: 1.0;"/><polygon fill="#A80036" points="396.57,605.89,398.5762,596.2476,395.5126,601.0031,390.7571,597.9395,396.57,605.89" style="stroke: #A80036; stroke-width: 1.0;"/><text fill="#000000" font-family="sans-serif" font-size="13" lengthAdjust="spacingAndGlyphs" textLength="41" x="399" y="571.897">Consts</text><!--MD5=[31480ef542df25c1d1f73cd61f470346]
link Definition to DeclarationList--><path d="M470.62,527.3 C462.56,551.34 453.74,577.71 445.95,600.96 " fill="none" id="Definition-&gt;DeclarationList-2" style="stroke: #A80036; stroke-width: 1.0;"/><polygon fill="#A80036" points="444.3,605.88,450.9474,598.6128,445.8854,601.138,443.3602,596.0761,444.3,605.88" style="stroke: #A80036; stroke-width: 1.0;"/><text fill="#000000" font-family="sans-serif" font-size="13" lengthAdjust="spacingAndGlyphs" textLength="26" x="461" y="571.897">Vars</text><!--MD5=[31480ef542df25c1d1f73cd61f470346]
link Definition to DeclarationList--><path d="M504.02,527.25 C503.56,543.67 501.35,560.7 496,576 C492.96,584.72 488.68,593.22 483.72,601.31 " fill="none" id="Definition-&gt;DeclarationList-3" style="stroke: #A80036; stroke-width: 1.0;"/><polygon fill="#A80036" points="480.89,605.76,489.1001,600.3199,483.5772,601.5435,482.3536,596.0205,480.89,605.76" style="stroke: #A80036; stroke-width: 1.0;"/><text fill="#000000" font-family="sans-serif" font-size="13" lengthAdjust="spacingAndGlyphs" textLength="35" x="502" y="571.897">Funcs</text><!--MD5=[fabba1097c2ca551039803dc215a06d2]
link FieldList to Field--><path d="M645.47,1260.8 C658.14,1286.03 676.72,1323.01 693.91,1357.23 " fill="none" id="FieldList-&gt;Field" style="stroke: #A80036; stroke-width: 1.0;"/><polygon fill="#A80036" points="696.22,1361.82,695.7602,1351.9819,693.9782,1357.3507,688.6094,1355.5687,696.22,1361.82" style="stroke: #A80036; stroke-width: 1.0;"/><text fill="#000000" font-family="sans-serif" font-size="13" lengthAdjust="spacingAndGlyphs" textLength="27" x="682" y="1327.897">type</text><!--MD5=[ca0441f23cfc34fc1c23efc044d9a232]
link Package to Complexity--><path d="M80.93,295.15 C60.97,340.74 43,396.5 43,449.5 C43,449.5 43,449.5 43,953 C43,1018.43 48.13,1037.78 78,1096 C91.86,1123.02 112.3,1149.21 131.99,1171.03 " fill="none" id="Package-&gt;Complexity" style="stroke: #A80036; stroke-width: 1.0;"/><polygon fill="#A80036" points="135.4,1174.77,132.2949,1165.4234,132.0324,1171.0742,126.3816,1170.8116,135.4,1174.77" style="stroke: #A80036; stroke-width: 1.0;"/><text fill="#000000" font-family="sans-serif" font-size="13" lengthAdjust="spacingAndGlyphs" textLength="68" x="44" y="672.897">Complexity</text><!--MD5=[1089e74e04b56f3181536d95667d4ea8]
link GMN48 to StringSet--><path d="M808.66,464.8 C807.64,488.22 803.52,537.95 787,576 C781.44,588.8 773.74,601.46 765.5,613.07 " fill="none" id="GMN48-StringSet" style="stroke: #A80036; stroke-width: 1.0; stroke-dasharray: 7.0,7.0;"/><!--MD5=[2c855abd21cd27fb8c942f0ccfd6cf49]
@startuml

class Complexity {
  + Cognitive: int
  + Cyclomatic: int
  + Lines: int
  + Coverage: float64
}

class Declaration {
  + Kind: DeclarationKind
  + Type: string
  + File: string
  + SelfContained: bool
  + Imports: []string
  + References: map[string][]string
  + Doc: string
  + Name: string
  + Names: []string
  + Receiver: string
  + Fields: FieldList
  + Arguments: []string
  + Returns: []string
  + Signature: string
  + Source: string
  + Complexity: *Complexity
}

class DeclarationKind {
  - type: string
  + String () string
}

class DeclarationList {
  - type: []*Declaration
  + Exported () []*Declaration
  + Filter (matchfn func(d *Declaration) bool) []*Declaration
  + Find (matchfn func(d *Declaration) bool) *Declaration
  + Walk (matchfn func(d *Declaration))
}

class Definition {
  + References: StringSet
  + Doc: string
  + Imports: StringSet
  + Types: DeclarationList
  + Consts: DeclarationList
  + Vars: DeclarationList
  + Funcs: DeclarationList
}

class Field {
  + Name: string
  + Type: string
  + Path: string
  + Doc: string
  + Comment: string
  + Tag: string
  + JSONName: string
  + MapKey: string
}

class FieldList {
  - type: []*Field
}

class Package {
  + ID: string
  + Package: string
  + ImportPath: string
  + Path: string
  + TestPackage: bool
  + Complexity: *Complexity
  + Pkg: *packages.Package
  + Equal (in Package) bool
  + Name () string
  + String () string
}

class StringSet {
  - type: map[string][]string
  + All () []string
  + Get (key string) []string
  + Map () (map[string]string, []error)
}


Declaration - -> DeclarationKind : Kind
Declaration - -> FieldList : Fields
Declaration - -> Complexity : Complexity

note top of Declaration
Declaration holds information about a go symbol.
end note



note top of DeclarationKind
DeclarationKind is an enum of go symbol types.
end note


DeclarationList - -> Declaration : type

note top of DeclarationList
DeclarationList holds a list of Go symbols.
end note


DeclarationList - -> Declaration : Exported()
DeclarationList - -> Declaration : Filter()
DeclarationList - -> Declaration : Find()
Package - -|> Definition : embeded by
Definition - -> StringSet : References
Definition - -> StringSet : Imports
Definition - -> DeclarationList : Types
Definition - -> DeclarationList : Consts
Definition - -> DeclarationList : Vars
Definition - -> DeclarationList : Funcs

note top of Definition
Definition holds all symbols defined for a Package.
end note



note top of Field
Field holds details about a field definition.
end note


FieldList - -> Field : type

note top of FieldList
FieldList contains all struct fields.
end note


Package - -> Complexity : Complexity

note top of Package
Package holds go package information.
end note



note top of StringSet
StringSet provides a key based unique string slice.
end note



@enduml

PlantUML version 1.2020.02(Sun Mar 01 11:22:07 CET 2020)
(GPL source distribution)
Java Runtime: OpenJDK Runtime Environment
JVM: OpenJDK 64-Bit Server VM
Java Version: 21.0.8+9-Ubuntu-0ubuntu125.04.1
Operating System: Linux
Default Encoding: UTF-8
Language: en
Country: US
--></g></svg>