<?xml version="1.0" encoding="UTF-8" standalone="no"?><svg xmlns="http://www.w3.org/2000/svg" xmlns:xlink="http://www.w3.org/1999/xlink" contentScriptType="application/ecmascript" contentStyleType="text/css" height="1207px" preserveAspectRatio="none" style="width:751px;height:1207px;" version="1.1" viewBox="0 0 751 1207" width="751px" zoomAndPan="magnify"><defs><filter height="300%" id="f6hj0tvjyte66" width="300%" x="-1" y="-1"><feGaussianBlur result="blurOut" stdDeviation="2.0"/><feColorMatrix in="blurOut" result="blurOut2" type="matrix" values="0 0 0 0 0 0 0 0 0 0 0 0 0 0 0 0 0 0 .4 0"/><feOffset dx="4.0" dy="4.0" in="blurOut2" result="blurOut3"/><feBlend in="SourceGraphic" in2="blurOut3" mode="normal"/></filter></defs><g><!--MD5=[d80409f3576551ed6a455469f0519e41]
class Declaration--><rect fill="#FEFECE" filter="url(#f6hj0tvjyte66)" height="316.8984" id="Declaration" style="stroke: #A80036; stroke-width: 1.5;" width="205" x="44.5" y="501"/><ellipse cx="106.75" cy="517" fill="#ADD1B2" rx="11" ry="11" style="stroke: #A80036; stroke-width: 1.0;"/><path d="M109.7188,522.6406 Q109.1406,522.9375 108.5,523.0781 Q107.8594,523.2344 107.1563,523.2344 Q104.6563,523.2344 103.3281,521.5938 Q102.0156,519.9375 102.0156,516.8125 Q102.0156,513.6875 103.3281,512.0313 Q104.6563,510.375 107.1563,510.375 Q107.8594,510.375 108.5,510.5313 Q109.1563,510.6875 109.7188,510.9844 L109.7188,513.7031 Q109.0938,513.125 108.5,512.8594 Q107.9063,512.5781 107.2813,512.5781 Q105.9375,512.5781 105.25,513.6563 Q104.5625,514.7188 104.5625,516.8125 Q104.5625,518.9063 105.25,519.9844 Q105.9375,521.0469 107.2813,521.0469 Q107.9063,521.0469 108.5,520.7813 Q109.0938,520.5 109.7188,519.9219 L109.7188,522.6406 Z "/><text fill="#000000" font-family="sans-serif" font-size="12" lengthAdjust="spacingAndGlyphs" textLength="72" x="127.25" y="521.1543">Declaration</text><line style="stroke: #A80036; stroke-width: 1.5;" x1="45.5" x2="248.5" y1="533" y2="533"/><ellipse cx="55.5" cy="544" fill="none" rx="3" ry="3" style="stroke: #038048; stroke-width: 1.0;"/><text fill="#000000" font-family="sans-serif" font-size="11" lengthAdjust="spacingAndGlyphs" textLength="120" x="64.5" y="547.2104">Kind: DeclarationKind</text><ellipse cx="55.5" cy="556.8047" fill="none" rx="3" ry="3" style="stroke: #038048; stroke-width: 1.0;"/><text fill="#000000" font-family="sans-serif" font-size="11" lengthAdjust="spacingAndGlyphs" textLength="68" x="64.5" y="560.0151">Type: string</text><ellipse cx="55.5" cy="569.6094" fill="none" rx="3" ry="3" style="stroke: #038048; stroke-width: 1.0;"/><text fill="#000000" font-family="sans-serif" font-size="11" lengthAdjust="spacingAndGlyphs" textLength="60" x="64.5" y="572.8198">File: string</text><ellipse cx="55.5" cy="582.4141" fill="none" rx="3" ry="3" style="stroke: #038048; stroke-width: 1.0;"/><text fill="#000000" font-family="sans-serif" font-size="11" lengthAdjust="spacingAndGlyphs" textLength="111" x="64.5" y="585.6245">SelfContained: bool</text><ellipse cx="55.5" cy="595.2188" fill="none" rx="3" ry="3" style="stroke: #038048; stroke-width: 1.0;"/><text fill="#000000" font-family="sans-serif" font-size="11" lengthAdjust="spacingAndGlyphs" textLength="93" x="64.5" y="598.4292">Imports: []string</text><ellipse cx="55.5" cy="608.0234" fill="none" rx="3" ry="3" style="stroke: #038048; stroke-width: 1.0;"/><text fill="#000000" font-family="sans-serif" font-size="11" lengthAdjust="spacingAndGlyphs" textLength="179" x="64.5" y="611.2339">References: map[string][]string</text><ellipse cx="55.5" cy="620.8281" fill="none" rx="3" ry="3" style="stroke: #038048; stroke-width: 1.0;"/><text fill="#000000" font-family="sans-serif" font-size="11" lengthAdjust="spacingAndGlyphs" textLength="62" x="64.5" y="624.0386">Doc: string</text><ellipse cx="55.5" cy="633.6328" fill="none" rx="3" ry="3" style="stroke: #038048; stroke-width: 1.0;"/><text fill="#000000" font-family="sans-serif" font-size="11" lengthAdjust="spacingAndGlyphs" textLength="74" x="64.5" y="636.8433">Name: string</text><ellipse cx="55.5" cy="646.4375" fill="none" rx="3" ry="3" style="stroke: #038048; stroke-width: 1.0;"/><text fill="#000000" font-family="sans-serif" font-size="11" lengthAdjust="spacingAndGlyphs" textLength="89" x="64.5" y="649.6479">Names: []string</text><ellipse cx="55.5" cy="659.2422" fill="none" rx="3" ry="3" style="stroke: #038048; stroke-width: 1.0;"/><text fill="#000000" font-family="sans-serif" font-size="11" lengthAdjust="spacingAndGlyphs" textLength="89" x="64.5" y="662.4526">Receiver: string</text><ellipse cx="55.5" cy="672.0469" fill="none" rx="3" ry="3" style="stroke: #038048; stroke-width: 1.0;"/><text fill="#000000" font-family="sans-serif" font-size="11" lengthAdjust="spacingAndGlyphs" textLength="87" x="64.5" y="675.2573">Fields: FieldList</text><ellipse cx="55.5" cy="684.8516" fill="none" rx="3" ry="3" style="stroke: #038048; stroke-width: 1.0;"/><text fill="#000000" font-family="sans-serif" font-size="11" lengthAdjust="spacingAndGlyphs" textLength="111" x="64.5" y="688.062">Arguments: []string</text><ellipse cx="55.5" cy="697.6563" fill="none" rx="3" ry="3" style="stroke: #038048; stroke-width: 1.0;"/><text fill="#000000" font-family="sans-serif" font-size="11" lengthAdjust="spacingAndGlyphs" textLength="93" x="64.5" y="700.8667">Returns: []string</text><ellipse cx="55.5" cy="710.4609" fill="none" rx="3" ry="3" style="stroke: #038048; stroke-width: 1.0;"/><text fill="#000000" font-family="sans-serif" font-size="11" lengthAdjust="spacingAndGlyphs" textLength="96" x="64.5" y="713.6714">Signature: string</text><ellipse cx="55.5" cy="723.2656" fill="none" rx="3" ry="3" style="stroke: #038048; stroke-width: 1.0;"/><text fill="#000000" font-family="sans-serif" font-size="11" lengthAdjust="spacingAndGlyphs" textLength="81" x="64.5" y="726.4761">Source: string</text><line style="stroke: #A80036; stroke-width: 1.5;" x1="45.5" x2="248.5" y1="733.0703" y2="733.0703"/><ellipse cx="55.5" cy="744.0703" fill="#84BE84" rx="3" ry="3" style="stroke: #038048; stroke-width: 1.0;"/><text fill="#000000" font-family="sans-serif" font-size="11" lengthAdjust="spacingAndGlyphs" textLength="155" x="64.5" y="747.2808">Equal (in *Declaration) bool</text><ellipse cx="55.5" cy="756.875" fill="#84BE84" rx="3" ry="3" style="stroke: #038048; stroke-width: 1.0;"/><text fill="#000000" font-family="sans-serif" font-size="11" lengthAdjust="spacingAndGlyphs" textLength="153" x="64.5" y="760.0854">HasName (find string) bool</text><ellipse cx="55.5" cy="769.6797" fill="#84BE84" rx="3" ry="3" style="stroke: #038048; stroke-width: 1.0;"/><text fill="#000000" font-family="sans-serif" font-size="11" lengthAdjust="spacingAndGlyphs" textLength="100" x="64.5" y="772.8901">IsExported () bool</text><ellipse cx="55.5" cy="782.4844" fill="#84BE84" rx="3" ry="3" style="stroke: #038048; stroke-width: 1.0;"/><text fill="#000000" font-family="sans-serif" font-size="11" lengthAdjust="spacingAndGlyphs" textLength="84" x="64.5" y="785.6948">Keys () []string</text><ellipse cx="55.5" cy="795.2891" fill="#84BE84" rx="3" ry="3" style="stroke: #038048; stroke-width: 1.0;"/><text fill="#000000" font-family="sans-serif" font-size="11" lengthAdjust="spacingAndGlyphs" textLength="142" x="64.5" y="798.4995">ReceiverTypeRef () string</text><ellipse cx="55.5" cy="808.0938" fill="#84BE84" rx="3" ry="3" style="stroke: #038048; stroke-width: 1.0;"/><text fill="#000000" font-family="sans-serif" font-size="11" lengthAdjust="spacingAndGlyphs" textLength="94" x="64.5" y="811.3042">TypeRef () string</text><!--MD5=[9c9e98b0eb5e2c68874d348a767e831d]
class DeclarationKind--><rect fill="#FEFECE" filter="url(#f6hj0tvjyte66)" height="73.6094" id="DeclarationKind" style="stroke: #A80036; stroke-width: 1.5;" width="130" x="44" y="895"/><ellipse cx="59" cy="911" fill="#ADD1B2" rx="11" ry="11" style="stroke: #A80036; stroke-width: 1.0;"/><path d="M61.9688,916.6406 Q61.3906,916.9375 60.75,917.0781 Q60.1094,917.2344 59.4063,917.2344 Q56.9063,917.2344 55.5781,915.5938 Q54.2656,913.9375 54.2656,910.8125 Q54.2656,907.6875 55.5781,906.0313 Q56.9063,904.375 59.4063,904.375 Q60.1094,904.375 60.75,904.5313 Q61.4063,904.6875 61.9688,904.9844 L61.9688,907.7031 Q61.3438,907.125 60.75,906.8594 Q60.1563,906.5781 59.5313,906.5781 Q58.1875,906.5781 57.5,907.6563 Q56.8125,908.7188 56.8125,910.8125 Q56.8125,912.9063 57.5,913.9844 Q58.1875,915.0469 59.5313,915.0469 Q60.1563,915.0469 60.75,914.7813 Q61.3438,914.5 61.9688,913.9219 L61.9688,916.6406 Z "/><text fill="#000000" font-family="sans-serif" font-size="12" lengthAdjust="spacingAndGlyphs" textLength="98" x="73" y="915.1543">DeclarationKind</text><line style="stroke: #A80036; stroke-width: 1.5;" x1="45" x2="173" y1="927" y2="927"/><rect fill="none" height="6" style="stroke: #C82930; stroke-width: 1.0;" width="6" x="52" y="935"/><text fill="#000000" font-family="sans-serif" font-size="11" lengthAdjust="spacingAndGlyphs" textLength="66" x="64" y="941.2104">item: string</text><line style="stroke: #A80036; stroke-width: 1.5;" x1="45" x2="173" y1="947.8047" y2="947.8047"/><ellipse cx="55" cy="958.8047" fill="#84BE84" rx="3" ry="3" style="stroke: #038048; stroke-width: 1.0;"/><text fill="#000000" font-family="sans-serif" font-size="11" lengthAdjust="spacingAndGlyphs" textLength="83" x="64" y="962.0151">String () string</text><!--MD5=[f8a408d8ad8712005ce2c3ad36fe1243]
class DeclarationList--><rect fill="#FEFECE" filter="url(#f6hj0tvjyte66)" height="163.2422" id="DeclarationList" style="stroke: #A80036; stroke-width: 1.5;" width="282" x="6" y="261"/><ellipse cx="96.25" cy="277" fill="#ADD1B2" rx="11" ry="11" style="stroke: #A80036; stroke-width: 1.0;"/><path d="M99.2188,282.6406 Q98.6406,282.9375 98,283.0781 Q97.3594,283.2344 96.6563,283.2344 Q94.1563,283.2344 92.8281,281.5938 Q91.5156,279.9375 91.5156,276.8125 Q91.5156,273.6875 92.8281,272.0313 Q94.1563,270.375 96.6563,270.375 Q97.3594,270.375 98,270.5313 Q98.6563,270.6875 99.2188,270.9844 L99.2188,273.7031 Q98.5938,273.125 98,272.8594 Q97.4063,272.5781 96.7813,272.5781 Q95.4375,272.5781 94.75,273.6563 Q94.0625,274.7188 94.0625,276.8125 Q94.0625,278.9063 94.75,279.9844 Q95.4375,281.0469 96.7813,281.0469 Q97.4063,281.0469 98,280.7813 Q98.5938,280.5 99.2188,279.9219 L99.2188,282.6406 Z "/><text fill="#000000" font-family="sans-serif" font-size="12" lengthAdjust="spacingAndGlyphs" textLength="93" x="116.75" y="281.1543">DeclarationList</text><line style="stroke: #A80036; stroke-width: 1.5;" x1="7" x2="287" y1="293" y2="293"/><rect fill="none" height="6" style="stroke: #C82930; stroke-width: 1.0;" width="6" x="14" y="301"/><text fill="#000000" font-family="sans-serif" font-size="11" lengthAdjust="spacingAndGlyphs" textLength="111" x="26" y="307.2104">item: []*Declaration</text><line style="stroke: #A80036; stroke-width: 1.5;" x1="7" x2="287" y1="313.8047" y2="313.8047"/><ellipse cx="17" cy="324.8047" fill="#84BE84" rx="3" ry="3" style="stroke: #038048; stroke-width: 1.0;"/><text fill="#000000" font-family="sans-serif" font-size="11" lengthAdjust="spacingAndGlyphs" textLength="150" x="26" y="328.0151">Append (in ...*Declaration)</text><ellipse cx="17" cy="337.6094" fill="#84BE84" rx="3" ry="3" style="stroke: #038048; stroke-width: 1.0;"/><text fill="#000000" font-family="sans-serif" font-size="11" lengthAdjust="spacingAndGlyphs" textLength="189" x="26" y="340.8198">AppendUnique (in ...*Declaration)</text><ellipse cx="17" cy="350.4141" fill="#84BE84" rx="3" ry="3" style="stroke: #038048; stroke-width: 1.0;"/><text fill="#000000" font-family="sans-serif" font-size="11" lengthAdjust="spacingAndGlyphs" textLength="115" x="26" y="353.6245">ClearNonTestFiles ()</text><ellipse cx="17" cy="363.2188" fill="#84BE84" rx="3" ry="3" style="stroke: #038048; stroke-width: 1.0;"/><text fill="#000000" font-family="sans-serif" font-size="11" lengthAdjust="spacingAndGlyphs" textLength="82" x="26" y="366.4292">ClearSource ()</text><ellipse cx="17" cy="376.0234" fill="#84BE84" rx="3" ry="3" style="stroke: #038048; stroke-width: 1.0;"/><text fill="#000000" font-family="sans-serif" font-size="11" lengthAdjust="spacingAndGlyphs" textLength="93" x="26" y="379.2339">ClearTestFiles ()</text><ellipse cx="17" cy="388.8281" fill="#84BE84" rx="3" ry="3" style="stroke: #038048; stroke-width: 1.0;"/><text fill="#000000" font-family="sans-serif" font-size="11" lengthAdjust="spacingAndGlyphs" textLength="144" x="26" y="392.0386">Exported () []*Declaration</text><ellipse cx="17" cy="401.6328" fill="#84BE84" rx="3" ry="3" style="stroke: #038048; stroke-width: 1.0;"/><text fill="#000000" font-family="sans-serif" font-size="11" lengthAdjust="spacingAndGlyphs" textLength="256" x="26" y="404.8433">FindKind (kind DeclarationKind) []*Declaration</text><ellipse cx="17" cy="414.4375" fill="#84BE84" rx="3" ry="3" style="stroke: #038048; stroke-width: 1.0;"/><text fill="#000000" font-family="sans-serif" font-size="11" lengthAdjust="spacingAndGlyphs" textLength="36" x="26" y="417.6479">Sort ()</text><!--MD5=[af22135d5be6ed11ccd2d02fa51653b3]
class Definition--><rect fill="#FEFECE" filter="url(#f6hj0tvjyte66)" height="176.0469" id="Definition" style="stroke: #A80036; stroke-width: 1.5;" width="242" x="285" y="8"/><ellipse cx="372.25" cy="24" fill="#ADD1B2" rx="11" ry="11" style="stroke: #A80036; stroke-width: 1.0;"/><path d="M375.2188,29.6406 Q374.6406,29.9375 374,30.0781 Q373.3594,30.2344 372.6563,30.2344 Q370.1563,30.2344 368.8281,28.5938 Q367.5156,26.9375 367.5156,23.8125 Q367.5156,20.6875 368.8281,19.0313 Q370.1563,17.375 372.6563,17.375 Q373.3594,17.375 374,17.5313 Q374.6563,17.6875 375.2188,17.9844 L375.2188,20.7031 Q374.5938,20.125 374,19.8594 Q373.4063,19.5781 372.7813,19.5781 Q371.4375,19.5781 370.75,20.6563 Q370.0625,21.7188 370.0625,23.8125 Q370.0625,25.9063 370.75,26.9844 Q371.4375,28.0469 372.7813,28.0469 Q373.4063,28.0469 374,27.7813 Q374.5938,27.5 375.2188,26.9219 L375.2188,29.6406 Z "/><text fill="#000000" font-family="sans-serif" font-size="12" lengthAdjust="spacingAndGlyphs" textLength="59" x="392.75" y="28.1543">Definition</text><line style="stroke: #A80036; stroke-width: 1.5;" x1="286" x2="526" y1="40" y2="40"/><ellipse cx="296" cy="51" fill="none" rx="3" ry="3" style="stroke: #038048; stroke-width: 1.0;"/><text fill="#000000" font-family="sans-serif" font-size="11" lengthAdjust="spacingAndGlyphs" textLength="62" x="305" y="54.2104">Doc: string</text><ellipse cx="296" cy="63.8047" fill="none" rx="3" ry="3" style="stroke: #038048; stroke-width: 1.0;"/><text fill="#000000" font-family="sans-serif" font-size="11" lengthAdjust="spacingAndGlyphs" textLength="105" x="305" y="67.0151">Imports: StringSet</text><ellipse cx="296" cy="76.6094" fill="none" rx="3" ry="3" style="stroke: #038048; stroke-width: 1.0;"/><text fill="#000000" font-family="sans-serif" font-size="11" lengthAdjust="spacingAndGlyphs" textLength="126" x="305" y="79.8198">Types: DeclarationList</text><ellipse cx="296" cy="89.4141" fill="none" rx="3" ry="3" style="stroke: #038048; stroke-width: 1.0;"/><text fill="#000000" font-family="sans-serif" font-size="11" lengthAdjust="spacingAndGlyphs" textLength="132" x="305" y="92.6245">Consts: DeclarationList</text><ellipse cx="296" cy="102.2188" fill="none" rx="3" ry="3" style="stroke: #038048; stroke-width: 1.0;"/><text fill="#000000" font-family="sans-serif" font-size="11" lengthAdjust="spacingAndGlyphs" textLength="118" x="305" y="105.4292">Vars: DeclarationList</text><ellipse cx="296" cy="115.0234" fill="none" rx="3" ry="3" style="stroke: #038048; stroke-width: 1.0;"/><text fill="#000000" font-family="sans-serif" font-size="11" lengthAdjust="spacingAndGlyphs" textLength="125" x="305" y="118.2339">Funcs: DeclarationList</text><line style="stroke: #A80036; stroke-width: 1.5;" x1="286" x2="526" y1="124.8281" y2="124.8281"/><ellipse cx="296" cy="135.8281" fill="#84BE84" rx="3" ry="3" style="stroke: #038048; stroke-width: 1.0;"/><text fill="#000000" font-family="sans-serif" font-size="11" lengthAdjust="spacingAndGlyphs" textLength="27" x="305" y="139.0386">Fill ()</text><ellipse cx="296" cy="148.6328" fill="#84BE84" rx="3" ry="3" style="stroke: #038048; stroke-width: 1.0;"/><text fill="#000000" font-family="sans-serif" font-size="11" lengthAdjust="spacingAndGlyphs" textLength="120" x="305" y="151.8433">Merge (in *Definition)</text><ellipse cx="296" cy="161.4375" fill="#84BE84" rx="3" ry="3" style="stroke: #038048; stroke-width: 1.0;"/><text fill="#000000" font-family="sans-serif" font-size="11" lengthAdjust="spacingAndGlyphs" textLength="127" x="305" y="164.6479">Order () []*Declaration</text><rect fill="#F24D5C" height="6" style="stroke: #C82930; stroke-width: 1.0;" width="6" x="293" y="171.2422"/><text fill="#000000" font-family="sans-serif" font-size="11" lengthAdjust="spacingAndGlyphs" textLength="216" x="305" y="177.4526">getImports (decl *Declaration) []string</text><!--MD5=[d9427b671d7d049aff2d6f2fe36a13b3]
class Field--><rect fill="#FEFECE" filter="url(#f6hj0tvjyte66)" height="150.4375" id="Field" style="stroke: #A80036; stroke-width: 1.5;" width="128" x="195" y="1046"/><ellipse cx="240.25" cy="1062" fill="#ADD1B2" rx="11" ry="11" style="stroke: #A80036; stroke-width: 1.0;"/><path d="M243.2188,1067.6406 Q242.6406,1067.9375 242,1068.0781 Q241.3594,1068.2344 240.6563,1068.2344 Q238.1563,1068.2344 236.8281,1066.5938 Q235.5156,1064.9375 235.5156,1061.8125 Q235.5156,1058.6875 236.8281,1057.0313 Q238.1563,1055.375 240.6563,1055.375 Q241.3594,1055.375 242,1055.5313 Q242.6563,1055.6875 243.2188,1055.9844 L243.2188,1058.7031 Q242.5938,1058.125 242,1057.8594 Q241.4063,1057.5781 240.7813,1057.5781 Q239.4375,1057.5781 238.75,1058.6563 Q238.0625,1059.7188 238.0625,1061.8125 Q238.0625,1063.9063 238.75,1064.9844 Q239.4375,1066.0469 240.7813,1066.0469 Q241.4063,1066.0469 242,1065.7813 Q242.5938,1065.5 243.2188,1064.9219 L243.2188,1067.6406 Z "/><text fill="#000000" font-family="sans-serif" font-size="12" lengthAdjust="spacingAndGlyphs" textLength="29" x="260.75" y="1066.1543">Field</text><line style="stroke: #A80036; stroke-width: 1.5;" x1="196" x2="322" y1="1078" y2="1078"/><ellipse cx="206" cy="1089" fill="none" rx="3" ry="3" style="stroke: #038048; stroke-width: 1.0;"/><text fill="#000000" font-family="sans-serif" font-size="11" lengthAdjust="spacingAndGlyphs" textLength="74" x="215" y="1092.2104">Name: string</text><ellipse cx="206" cy="1101.8047" fill="none" rx="3" ry="3" style="stroke: #038048; stroke-width: 1.0;"/><text fill="#000000" font-family="sans-serif" font-size="11" lengthAdjust="spacingAndGlyphs" textLength="68" x="215" y="1105.0151">Type: string</text><ellipse cx="206" cy="1114.6094" fill="none" rx="3" ry="3" style="stroke: #038048; stroke-width: 1.0;"/><text fill="#000000" font-family="sans-serif" font-size="11" lengthAdjust="spacingAndGlyphs" textLength="66" x="215" y="1117.8198">Path: string</text><ellipse cx="206" cy="1127.4141" fill="none" rx="3" ry="3" style="stroke: #038048; stroke-width: 1.0;"/><text fill="#000000" font-family="sans-serif" font-size="11" lengthAdjust="spacingAndGlyphs" textLength="62" x="215" y="1130.6245">Doc: string</text><ellipse cx="206" cy="1140.2188" fill="none" rx="3" ry="3" style="stroke: #038048; stroke-width: 1.0;"/><text fill="#000000" font-family="sans-serif" font-size="11" lengthAdjust="spacingAndGlyphs" textLength="96" x="215" y="1143.4292">Comment: string</text><ellipse cx="206" cy="1153.0234" fill="none" rx="3" ry="3" style="stroke: #038048; stroke-width: 1.0;"/><text fill="#000000" font-family="sans-serif" font-size="11" lengthAdjust="spacingAndGlyphs" textLength="62" x="215" y="1156.2339">Tag: string</text><ellipse cx="206" cy="1165.8281" fill="none" rx="3" ry="3" style="stroke: #038048; stroke-width: 1.0;"/><text fill="#000000" font-family="sans-serif" font-size="11" lengthAdjust="spacingAndGlyphs" textLength="102" x="215" y="1169.0386">JSONName: string</text><ellipse cx="206" cy="1178.6328" fill="none" rx="3" ry="3" style="stroke: #038048; stroke-width: 1.0;"/><text fill="#000000" font-family="sans-serif" font-size="11" lengthAdjust="spacingAndGlyphs" textLength="84" x="215" y="1181.8433">MapKey: string</text><line style="stroke: #A80036; stroke-width: 1.5;" x1="196" x2="322" y1="1188.4375" y2="1188.4375"/><!--MD5=[898b628376ee89e7bc81c09a0d440f56]
class FieldList--><rect fill="#FEFECE" filter="url(#f6hj0tvjyte66)" height="60.8047" id="FieldList" style="stroke: #A80036; stroke-width: 1.5;" width="99" x="209.5" y="901.5"/><ellipse cx="232.15" cy="917.5" fill="#ADD1B2" rx="11" ry="11" style="stroke: #A80036; stroke-width: 1.0;"/><path d="M235.1188,923.1406 Q234.5406,923.4375 233.9,923.5781 Q233.2594,923.7344 232.5563,923.7344 Q230.0563,923.7344 228.7281,922.0938 Q227.4156,920.4375 227.4156,917.3125 Q227.4156,914.1875 228.7281,912.5313 Q230.0563,910.875 232.5563,910.875 Q233.2594,910.875 233.9,911.0313 Q234.5563,911.1875 235.1188,911.4844 L235.1188,914.2031 Q234.4938,913.625 233.9,913.3594 Q233.3063,913.0781 232.6813,913.0781 Q231.3375,913.0781 230.65,914.1563 Q229.9625,915.2188 229.9625,917.3125 Q229.9625,919.4063 230.65,920.4844 Q231.3375,921.5469 232.6813,921.5469 Q233.3063,921.5469 233.9,921.2813 Q234.4938,921 235.1188,920.4219 L235.1188,923.1406 Z "/><text fill="#000000" font-family="sans-serif" font-size="12" lengthAdjust="spacingAndGlyphs" textLength="50" x="247.85" y="921.6543">FieldList</text><line style="stroke: #A80036; stroke-width: 1.5;" x1="210.5" x2="307.5" y1="933.5" y2="933.5"/><rect fill="none" height="6" style="stroke: #C82930; stroke-width: 1.0;" width="6" x="217.5" y="941.5"/><text fill="#000000" font-family="sans-serif" font-size="11" lengthAdjust="spacingAndGlyphs" textLength="73" x="229.5" y="947.7104">item: []*Field</text><line style="stroke: #A80036; stroke-width: 1.5;" x1="210.5" x2="307.5" y1="954.3047" y2="954.3047"/><!--MD5=[4e2ad48a1abc117fdc6f339da0f64213]
class Package--><rect fill="#FEFECE" filter="url(#f6hj0tvjyte66)" height="137.6328" id="Package" style="stroke: #A80036; stroke-width: 1.5;" width="165" x="323.5" y="273.5"/><ellipse cx="374.75" cy="289.5" fill="#ADD1B2" rx="11" ry="11" style="stroke: #A80036; stroke-width: 1.0;"/><path d="M377.7188,295.1406 Q377.1406,295.4375 376.5,295.5781 Q375.8594,295.7344 375.1563,295.7344 Q372.6563,295.7344 371.3281,294.0938 Q370.0156,292.4375 370.0156,289.3125 Q370.0156,286.1875 371.3281,284.5313 Q372.6563,282.875 375.1563,282.875 Q375.8594,282.875 376.5,283.0313 Q377.1563,283.1875 377.7188,283.4844 L377.7188,286.2031 Q377.0938,285.625 376.5,285.3594 Q375.9063,285.0781 375.2813,285.0781 Q373.9375,285.0781 373.25,286.1563 Q372.5625,287.2188 372.5625,289.3125 Q372.5625,291.4063 373.25,292.4844 Q373.9375,293.5469 375.2813,293.5469 Q375.9063,293.5469 376.5,293.2813 Q377.0938,293 377.7188,292.4219 L377.7188,295.1406 Z "/><text fill="#000000" font-family="sans-serif" font-size="12" lengthAdjust="spacingAndGlyphs" textLength="54" x="395.25" y="293.6543">Package</text><line style="stroke: #A80036; stroke-width: 1.5;" x1="324.5" x2="487.5" y1="305.5" y2="305.5"/><ellipse cx="334.5" cy="316.5" fill="none" rx="3" ry="3" style="stroke: #038048; stroke-width: 1.0;"/><text fill="#000000" font-family="sans-serif" font-size="11" lengthAdjust="spacingAndGlyphs" textLength="52" x="343.5" y="319.7104">ID: string</text><ellipse cx="334.5" cy="329.3047" fill="none" rx="3" ry="3" style="stroke: #038048; stroke-width: 1.0;"/><text fill="#000000" font-family="sans-serif" font-size="11" lengthAdjust="spacingAndGlyphs" textLength="88" x="343.5" y="332.5151">Package: string</text><ellipse cx="334.5" cy="342.1094" fill="none" rx="3" ry="3" style="stroke: #038048; stroke-width: 1.0;"/><text fill="#000000" font-family="sans-serif" font-size="11" lengthAdjust="spacingAndGlyphs" textLength="103" x="343.5" y="345.3198">ImportPath: string</text><ellipse cx="334.5" cy="354.9141" fill="none" rx="3" ry="3" style="stroke: #038048; stroke-width: 1.0;"/><text fill="#000000" font-family="sans-serif" font-size="11" lengthAdjust="spacingAndGlyphs" textLength="66" x="343.5" y="358.1245">Path: string</text><ellipse cx="334.5" cy="367.7188" fill="none" rx="3" ry="3" style="stroke: #038048; stroke-width: 1.0;"/><text fill="#000000" font-family="sans-serif" font-size="11" lengthAdjust="spacingAndGlyphs" textLength="104" x="343.5" y="370.9292">TestPackage: bool</text><ellipse cx="334.5" cy="380.5234" fill="none" rx="3" ry="3" style="stroke: #038048; stroke-width: 1.0;"/><text fill="#000000" font-family="sans-serif" font-size="11" lengthAdjust="spacingAndGlyphs" textLength="139" x="343.5" y="383.7339">Pkg: *packages.Package</text><line style="stroke: #A80036; stroke-width: 1.5;" x1="324.5" x2="487.5" y1="390.3281" y2="390.3281"/><ellipse cx="334.5" cy="401.3281" fill="#84BE84" rx="3" ry="3" style="stroke: #038048; stroke-width: 1.0;"/><text fill="#000000" font-family="sans-serif" font-size="11" lengthAdjust="spacingAndGlyphs" textLength="82" x="343.5" y="404.5386">Name () string</text><!--MD5=[87fbbd40529fac58103832b10b21b03a]
class StringSet--><rect fill="#FEFECE" filter="url(#f6hj0tvjyte66)" height="112.0234" id="StringSet" style="stroke: #A80036; stroke-width: 1.5;" width="217" x="523.5" y="286.5"/><ellipse cx="598.75" cy="302.5" fill="#ADD1B2" rx="11" ry="11" style="stroke: #A80036; stroke-width: 1.0;"/><path d="M601.7188,308.1406 Q601.1406,308.4375 600.5,308.5781 Q599.8594,308.7344 599.1563,308.7344 Q596.6563,308.7344 595.3281,307.0938 Q594.0156,305.4375 594.0156,302.3125 Q594.0156,299.1875 595.3281,297.5313 Q596.6563,295.875 599.1563,295.875 Q599.8594,295.875 600.5,296.0313 Q601.1563,296.1875 601.7188,296.4844 L601.7188,299.2031 Q601.0938,298.625 600.5,298.3594 Q599.9063,298.0781 599.2813,298.0781 Q597.9375,298.0781 597.25,299.1563 Q596.5625,300.2188 596.5625,302.3125 Q596.5625,304.4063 597.25,305.4844 Q597.9375,306.5469 599.2813,306.5469 Q599.9063,306.5469 600.5,306.2813 Q601.0938,306 601.7188,305.4219 L601.7188,308.1406 Z "/><text fill="#000000" font-family="sans-serif" font-size="12" lengthAdjust="spacingAndGlyphs" textLength="58" x="619.25" y="306.6543">StringSet</text><line style="stroke: #A80036; stroke-width: 1.5;" x1="524.5" x2="739.5" y1="318.5" y2="318.5"/><rect fill="none" height="6" style="stroke: #C82930; stroke-width: 1.0;" width="6" x="531.5" y="326.5"/><text fill="#000000" font-family="sans-serif" font-size="11" lengthAdjust="spacingAndGlyphs" textLength="140" x="543.5" y="332.7104">item: map[string][]string</text><line style="stroke: #A80036; stroke-width: 1.5;" x1="524.5" x2="739.5" y1="339.3047" y2="339.3047"/><ellipse cx="534.5" cy="350.3047" fill="#84BE84" rx="3" ry="3" style="stroke: #038048; stroke-width: 1.0;"/><text fill="#000000" font-family="sans-serif" font-size="11" lengthAdjust="spacingAndGlyphs" textLength="163" x="543.5" y="353.5151">Add (key string, lits ...string)</text><ellipse cx="534.5" cy="363.1094" fill="#84BE84" rx="3" ry="3" style="stroke: #038048; stroke-width: 1.0;"/><text fill="#000000" font-family="sans-serif" font-size="11" lengthAdjust="spacingAndGlyphs" textLength="70" x="543.5" y="366.3198">All () []string</text><ellipse cx="534.5" cy="375.9141" fill="#84BE84" rx="3" ry="3" style="stroke: #038048; stroke-width: 1.0;"/><text fill="#000000" font-family="sans-serif" font-size="11" lengthAdjust="spacingAndGlyphs" textLength="133" x="543.5" y="379.1245">Get (key string) []string</text><ellipse cx="534.5" cy="388.7188" fill="#84BE84" rx="3" ry="3" style="stroke: #038048; stroke-width: 1.0;"/><text fill="#000000" font-family="sans-serif" font-size="11" lengthAdjust="spacingAndGlyphs" textLength="191" x="543.5" y="391.9292">Map () (map[string]string, []error)</text><!--MD5=[d9f78b9da14621c57381f59b7c8a7fdc]
link Declaration to DeclarationKind--><path d="M124.84,818.24 C121.13,844.63 117.59,869.85 114.8,889.71 " fill="none" id="Declaration-&gt;DeclarationKind" style="stroke: #A80036; stroke-width: 1.0;"/><polygon fill="#A80036" points="114.07,894.91,119.2891,886.5577,114.7691,889.9591,111.3677,885.4391,114.07,894.91" style="stroke: #A80036; stroke-width: 1.0;"/><text fill="#000000" font-family="sans-serif" font-size="13" lengthAdjust="spacingAndGlyphs" textLength="35" x="122" y="861.0669">types</text><!--MD5=[fb26886f863d0c2d14a29bb11a9c8f0c]
link Declaration to FieldList--><path d="M212.31,818.24 C224.49,847.65 236.06,875.59 244.64,896.31 " fill="none" id="Declaration-&gt;FieldList" style="stroke: #A80036; stroke-width: 1.0;"/><polygon fill="#A80036" points="246.64,901.15,246.8859,891.3042,244.724,896.5317,239.4966,894.3698,246.64,901.15" style="stroke: #A80036; stroke-width: 1.0;"/><text fill="#000000" font-family="sans-serif" font-size="13" lengthAdjust="spacingAndGlyphs" textLength="35" x="230" y="861.0669">types</text><!--MD5=[b9041fe517dc0921b8f46db285911730]
link DeclarationList to Declaration--><path d="M147,424.21 C147,446.16 147,470.75 147,495.52 " fill="none" id="DeclarationList-&gt;Declaration" style="stroke: #A80036; stroke-width: 1.0;"/><polygon fill="#A80036" points="147,500.81,151,491.81,147,495.81,143,491.81,147,500.81" style="stroke: #A80036; stroke-width: 1.0;"/><text fill="#000000" font-family="sans-serif" font-size="13" lengthAdjust="spacingAndGlyphs" textLength="35" x="148" y="467.0669">types</text><!--MD5=[06e7a684a641e7ca9de4d48bf126a40a]
link Definition to Package--><path d="M406,184.23 C406,206.6 406,230.67 406,253.1 " fill="none" id="Definition-&gt;Package" style="stroke: #A80036; stroke-width: 1.0;"/><polygon fill="none" points="413,253.13,406,273.13,399,253.13,413,253.13" style="stroke: #A80036; stroke-width: 1.0;"/><text fill="#000000" font-family="sans-serif" font-size="13" lengthAdjust="spacingAndGlyphs" textLength="52" x="407" y="227.0669">embeds</text><!--MD5=[f7f4336b1fb381e3517df5c361285d48]
link Definition to StringSet--><path d="M486.63,184.23 C516.72,216.78 550.15,252.95 577.36,282.39 " fill="none" id="Definition-&gt;StringSet" style="stroke: #A80036; stroke-width: 1.0;"/><polygon fill="#A80036" points="580.99,286.31,577.8096,276.9888,577.5927,282.6415,571.94,282.4245,580.99,286.31" style="stroke: #A80036; stroke-width: 1.0;"/><text fill="#000000" font-family="sans-serif" font-size="13" lengthAdjust="spacingAndGlyphs" textLength="35" x="527" y="227.0669">types</text><!--MD5=[31480ef542df25c1d1f73cd61f470346]
link Definition to DeclarationList--><path d="M313.59,184.23 C288.39,208.02 261.14,233.75 236.13,257.36 " fill="none" id="Definition-&gt;DeclarationList" style="stroke: #A80036; stroke-width: 1.0;"/><polygon fill="#A80036" points="232.46,260.83,241.7553,257.5745,236.101,257.4032,236.2723,251.7489,232.46,260.83" style="stroke: #A80036; stroke-width: 1.0;"/><text fill="#000000" font-family="sans-serif" font-size="13" lengthAdjust="spacingAndGlyphs" textLength="35" x="278" y="227.0669">types</text><!--MD5=[fabba1097c2ca551039803dc215a06d2]
link FieldList to Field--><path d="M259,962.63 C259,983.67 259,1012.97 259,1040.59 " fill="none" id="FieldList-&gt;Field" style="stroke: #A80036; stroke-width: 1.0;"/><polygon fill="#A80036" points="259,1045.73,263,1036.73,259,1040.73,255,1036.73,259,1045.73" style="stroke: #A80036; stroke-width: 1.0;"/><text fill="#000000" font-family="sans-serif" font-size="13" lengthAdjust="spacingAndGlyphs" textLength="35" x="260" y="1012.0669">types</text><!--MD5=[93f8a93dd6a4c3c30fe01d60ac2491cb]
@startuml

class Declaration {
  + Kind: DeclarationKind
  + Type: string
  + File: string
  + SelfContained: bool
  + Imports: []string
  + References: map[string][]string
  + Doc: string
  + Name: string
  + Names: []string
  + Receiver: string
  + Fields: FieldList
  + Arguments: []string
  + Returns: []string
  + Signature: string
  + Source: string
  + Equal (in *Declaration) bool
  + HasName (find string) bool
  + IsExported () bool
  + Keys () []string
  + ReceiverTypeRef () string
  + TypeRef () string
}

class DeclarationKind {
  - item: string
  + String () string
}

class DeclarationList {
  - item: []*Declaration
  + Append (in ...*Declaration)
  + AppendUnique (in ...*Declaration)
  + ClearNonTestFiles ()
  + ClearSource ()
  + ClearTestFiles ()
  + Exported () []*Declaration
  + FindKind (kind DeclarationKind) []*Declaration
  + Sort ()
}

class Definition {
  + Doc: string
  + Imports: StringSet
  + Types: DeclarationList
  + Consts: DeclarationList
  + Vars: DeclarationList
  + Funcs: DeclarationList
  + Fill ()
  + Merge (in *Definition)
  + Order () []*Declaration
  - getImports (decl *Declaration) []string
}

class Field {
  + Name: string
  + Type: string
  + Path: string
  + Doc: string
  + Comment: string
  + Tag: string
  + JSONName: string
  + MapKey: string
}

class FieldList {
  - item: []*Field
}

class Package {
  + ID: string
  + Package: string
  + ImportPath: string
  + Path: string
  + TestPackage: bool
  + Pkg: *packages.Package
  + Name () string
}

class StringSet {
  - item: map[string][]string
  + Add (key string, lits ...string)
  + All () []string
  + Get (key string) []string
  + Map () (map[string]string, []error)
}

Declaration - -> DeclarationKind : types
Declaration - -> FieldList : types
DeclarationList - -> Declaration : types
Definition - -|> Package : embeds
Definition - -> StringSet : types
Definition - -> DeclarationList : types
FieldList - -> Field : types

@enduml

PlantUML version 1.2020.02(Sun Mar 01 10:22:07 UTC 2020)
(GPL source distribution)
Java Runtime: OpenJDK Runtime Environment
JVM: OpenJDK 64-Bit Server VM
Java Version: 11.0.27+6-post-Ubuntu-0ubuntu122.04
Operating System: Linux
Default Encoding: UTF-8
Language: en
Country: null
--></g></svg>