<?xml version="1.0" encoding="UTF-8" standalone="no"?><svg xmlns="http://www.w3.org/2000/svg" xmlns:xlink="http://www.w3.org/1999/xlink" contentScriptType="application/ecmascript" contentStyleType="text/css" height="1480px" preserveAspectRatio="none" style="width:1031px;height:1480px;" version="1.1" viewBox="0 0 1031 1480" width="1031px" zoomAndPan="magnify"><defs><filter height="300%" id="f1r9h8398rf5fp" width="300%" x="-1" y="-1"><feGaussianBlur result="blurOut" stdDeviation="2.0"/><feColorMatrix in="blurOut" result="blurOut2" type="matrix" values="0 0 0 0 0 0 0 0 0 0 0 0 0 0 0 0 0 0 .4 0"/><feOffset dx="4.0" dy="4.0" in="blurOut2" result="blurOut3"/><feBlend in="SourceGraphic" in2="blurOut3" mode="normal"/></filter></defs><g><!--MD5=[e6494f7027ee119b87f8f5a248b6d22e]
class Complexity--><rect fill="#FEFECE" filter="url(#f1r9h8398rf5fp)" height="92.9457" id="Complexity" style="stroke: #A80036; stroke-width: 1.5;" width="102" x="567" y="1130"/><ellipse cx="585.6" cy="1146" fill="#ADD1B2" rx="11" ry="11" style="stroke: #A80036; stroke-width: 1.0;"/><path d="M588.5688,1151.6406 Q587.9906,1151.9375 587.35,1152.0781 Q586.7094,1152.2344 586.0063,1152.2344 Q583.5063,1152.2344 582.1781,1150.5938 Q580.8656,1148.9375 580.8656,1145.8125 Q580.8656,1142.6875 582.1781,1141.0313 Q583.5063,1139.375 586.0063,1139.375 Q586.7094,1139.375 587.35,1139.5313 Q588.0063,1139.6875 588.5688,1139.9844 L588.5688,1142.7031 Q587.9438,1142.125 587.35,1141.8594 Q586.7563,1141.5781 586.1313,1141.5781 Q584.7875,1141.5781 584.1,1142.6563 Q583.4125,1143.7188 583.4125,1145.8125 Q583.4125,1147.9063 584.1,1148.9844 Q584.7875,1150.0469 586.1313,1150.0469 Q586.7563,1150.0469 587.35,1149.7813 Q587.9438,1149.5 588.5688,1148.9219 L588.5688,1151.6406 Z "/><text fill="#000000" font-family="sans-serif" font-size="12" lengthAdjust="spacingAndGlyphs" textLength="62" x="600.4" y="1150.656">Complexity</text><line style="stroke: #A80036; stroke-width: 1.5;" x1="568" x2="668" y1="1162" y2="1162"/><ellipse cx="578" cy="1173" fill="none" rx="3" ry="3" style="stroke: #038048; stroke-width: 1.0;"/><text fill="#000000" font-family="sans-serif" font-size="11" lengthAdjust="spacingAndGlyphs" textLength="70" x="587" y="1177.7589">Cognitive: int</text><ellipse cx="578" cy="1187.9819" fill="none" rx="3" ry="3" style="stroke: #038048; stroke-width: 1.0;"/><text fill="#000000" font-family="sans-serif" font-size="11" lengthAdjust="spacingAndGlyphs" textLength="76" x="587" y="1192.7408">Cyclomatic: int</text><ellipse cx="578" cy="1202.9638" fill="none" rx="3" ry="3" style="stroke: #038048; stroke-width: 1.0;"/><text fill="#000000" font-family="sans-serif" font-size="11" lengthAdjust="spacingAndGlyphs" textLength="47" x="587" y="1207.7227">Lines: int</text><line style="stroke: #A80036; stroke-width: 1.5;" x1="568" x2="668" y1="1214.9457" y2="1214.9457"/><!--MD5=[d80409f3576551ed6a455469f0519e41]
class Declaration--><rect fill="#FEFECE" filter="url(#f1r9h8398rf5fp)" height="287.7102" id="Declaration" style="stroke: #A80036; stroke-width: 1.5;" width="190" x="494" y="763"/><ellipse cx="552.25" cy="779" fill="#ADD1B2" rx="11" ry="11" style="stroke: #A80036; stroke-width: 1.0;"/><path d="M555.2188,784.6406 Q554.6406,784.9375 554,785.0781 Q553.3594,785.2344 552.6563,785.2344 Q550.1563,785.2344 548.8281,783.5938 Q547.5156,781.9375 547.5156,778.8125 Q547.5156,775.6875 548.8281,774.0313 Q550.1563,772.375 552.6563,772.375 Q553.3594,772.375 554,772.5313 Q554.6563,772.6875 555.2188,772.9844 L555.2188,775.7031 Q554.5938,775.125 554,774.8594 Q553.4063,774.5781 552.7813,774.5781 Q551.4375,774.5781 550.75,775.6563 Q550.0625,776.7188 550.0625,778.8125 Q550.0625,780.9063 550.75,781.9844 Q551.4375,783.0469 552.7813,783.0469 Q553.4063,783.0469 554,782.7813 Q554.5938,782.5 555.2188,781.9219 L555.2188,784.6406 Z "/><text fill="#000000" font-family="sans-serif" font-size="12" lengthAdjust="spacingAndGlyphs" textLength="65" x="572.75" y="783.656">Declaration</text><line style="stroke: #A80036; stroke-width: 1.5;" x1="495" x2="683" y1="795" y2="795"/><ellipse cx="505" cy="806" fill="none" rx="3" ry="3" style="stroke: #038048; stroke-width: 1.0;"/><text fill="#000000" font-family="sans-serif" font-size="11" lengthAdjust="spacingAndGlyphs" textLength="114" x="514" y="810.7589">Kind: DeclarationKind</text><ellipse cx="505" cy="820.9819" fill="none" rx="3" ry="3" style="stroke: #038048; stroke-width: 1.0;"/><text fill="#000000" font-family="sans-serif" font-size="11" lengthAdjust="spacingAndGlyphs" textLength="62" x="514" y="825.7408">Type: string</text><ellipse cx="505" cy="835.9638" fill="none" rx="3" ry="3" style="stroke: #038048; stroke-width: 1.0;"/><text fill="#000000" font-family="sans-serif" font-size="11" lengthAdjust="spacingAndGlyphs" textLength="55" x="514" y="840.7227">File: string</text><ellipse cx="505" cy="850.9457" fill="none" rx="3" ry="3" style="stroke: #038048; stroke-width: 1.0;"/><text fill="#000000" font-family="sans-serif" font-size="11" lengthAdjust="spacingAndGlyphs" textLength="103" x="514" y="855.7046">SelfContained: bool</text><ellipse cx="505" cy="865.9276" fill="none" rx="3" ry="3" style="stroke: #038048; stroke-width: 1.0;"/><text fill="#000000" font-family="sans-serif" font-size="11" lengthAdjust="spacingAndGlyphs" textLength="87" x="514" y="870.6865">Imports: []string</text><ellipse cx="505" cy="880.9094" fill="none" rx="3" ry="3" style="stroke: #038048; stroke-width: 1.0;"/><text fill="#000000" font-family="sans-serif" font-size="11" lengthAdjust="spacingAndGlyphs" textLength="164" x="514" y="885.6684">References: map[string][]string</text><ellipse cx="505" cy="895.8913" fill="none" rx="3" ry="3" style="stroke: #038048; stroke-width: 1.0;"/><text fill="#000000" font-family="sans-serif" font-size="11" lengthAdjust="spacingAndGlyphs" textLength="57" x="514" y="900.6502">Doc: string</text><ellipse cx="505" cy="910.8732" fill="none" rx="3" ry="3" style="stroke: #038048; stroke-width: 1.0;"/><text fill="#000000" font-family="sans-serif" font-size="11" lengthAdjust="spacingAndGlyphs" textLength="67" x="514" y="915.6321">Name: string</text><ellipse cx="505" cy="925.8551" fill="none" rx="3" ry="3" style="stroke: #038048; stroke-width: 1.0;"/><text fill="#000000" font-family="sans-serif" font-size="11" lengthAdjust="spacingAndGlyphs" textLength="80" x="514" y="930.614">Names: []string</text><ellipse cx="505" cy="940.837" fill="none" rx="3" ry="3" style="stroke: #038048; stroke-width: 1.0;"/><text fill="#000000" font-family="sans-serif" font-size="11" lengthAdjust="spacingAndGlyphs" textLength="81" x="514" y="945.5959">Receiver: string</text><ellipse cx="505" cy="955.8189" fill="none" rx="3" ry="3" style="stroke: #038048; stroke-width: 1.0;"/><text fill="#000000" font-family="sans-serif" font-size="11" lengthAdjust="spacingAndGlyphs" textLength="79" x="514" y="960.5778">Fields: FieldList</text><ellipse cx="505" cy="970.8008" fill="none" rx="3" ry="3" style="stroke: #038048; stroke-width: 1.0;"/><text fill="#000000" font-family="sans-serif" font-size="11" lengthAdjust="spacingAndGlyphs" textLength="103" x="514" y="975.5597">Arguments: []string</text><ellipse cx="505" cy="985.7827" fill="none" rx="3" ry="3" style="stroke: #038048; stroke-width: 1.0;"/><text fill="#000000" font-family="sans-serif" font-size="11" lengthAdjust="spacingAndGlyphs" textLength="86" x="514" y="990.5416">Returns: []string</text><ellipse cx="505" cy="1000.7645" fill="none" rx="3" ry="3" style="stroke: #038048; stroke-width: 1.0;"/><text fill="#000000" font-family="sans-serif" font-size="11" lengthAdjust="spacingAndGlyphs" textLength="88" x="514" y="1005.5235">Signature: string</text><ellipse cx="505" cy="1015.7464" fill="none" rx="3" ry="3" style="stroke: #038048; stroke-width: 1.0;"/><text fill="#000000" font-family="sans-serif" font-size="11" lengthAdjust="spacingAndGlyphs" textLength="73" x="514" y="1020.5053">Source: string</text><ellipse cx="505" cy="1030.7283" fill="none" rx="3" ry="3" style="stroke: #038048; stroke-width: 1.0;"/><text fill="#000000" font-family="sans-serif" font-size="11" lengthAdjust="spacingAndGlyphs" textLength="130" x="514" y="1035.4872">Complexity: *Complexity</text><line style="stroke: #A80036; stroke-width: 1.5;" x1="495" x2="683" y1="1042.7102" y2="1042.7102"/><!--MD5=[9c9e98b0eb5e2c68874d348a767e831d]
class DeclarationKind--><rect fill="#FEFECE" filter="url(#f1r9h8398rf5fp)" height="77.9638" id="DeclarationKind" style="stroke: #A80036; stroke-width: 1.5;" width="121" x="108.5" y="1137.5"/><ellipse cx="123.5" cy="1153.5" fill="#ADD1B2" rx="11" ry="11" style="stroke: #A80036; stroke-width: 1.0;"/><path d="M126.4688,1159.1406 Q125.8906,1159.4375 125.25,1159.5781 Q124.6094,1159.7344 123.9063,1159.7344 Q121.4063,1159.7344 120.0781,1158.0938 Q118.7656,1156.4375 118.7656,1153.3125 Q118.7656,1150.1875 120.0781,1148.5313 Q121.4063,1146.875 123.9063,1146.875 Q124.6094,1146.875 125.25,1147.0313 Q125.9063,1147.1875 126.4688,1147.4844 L126.4688,1150.2031 Q125.8438,1149.625 125.25,1149.3594 Q124.6563,1149.0781 124.0313,1149.0781 Q122.6875,1149.0781 122,1150.1563 Q121.3125,1151.2188 121.3125,1153.3125 Q121.3125,1155.4063 122,1156.4844 Q122.6875,1157.5469 124.0313,1157.5469 Q124.6563,1157.5469 125.25,1157.2813 Q125.8438,1157 126.4688,1156.4219 L126.4688,1159.1406 Z "/><text fill="#000000" font-family="sans-serif" font-size="12" lengthAdjust="spacingAndGlyphs" textLength="89" x="137.5" y="1158.156">DeclarationKind</text><line style="stroke: #A80036; stroke-width: 1.5;" x1="109.5" x2="228.5" y1="1169.5" y2="1169.5"/><rect fill="none" height="6" style="stroke: #C82930; stroke-width: 1.0;" width="6" x="116.5" y="1177.5"/><text fill="#000000" font-family="sans-serif" font-size="11" lengthAdjust="spacingAndGlyphs" textLength="60" x="128.5" y="1185.2589">type: string</text><line style="stroke: #A80036; stroke-width: 1.5;" x1="109.5" x2="228.5" y1="1192.4819" y2="1192.4819"/><ellipse cx="119.5" cy="1203.4819" fill="#84BE84" rx="3" ry="3" style="stroke: #038048; stroke-width: 1.0;"/><text fill="#000000" font-family="sans-serif" font-size="11" lengthAdjust="spacingAndGlyphs" textLength="75" x="128.5" y="1208.2408">String () string</text><!--MD5=[f8a408d8ad8712005ce2c3ad36fe1243]
class DeclarationList--><rect fill="#FEFECE" filter="url(#f1r9h8398rf5fp)" height="107.9276" id="DeclarationList" style="stroke: #A80036; stroke-width: 1.5;" width="317" x="350.5" y="576"/><ellipse cx="462.75" cy="592" fill="#ADD1B2" rx="11" ry="11" style="stroke: #A80036; stroke-width: 1.0;"/><path d="M465.7188,597.6406 Q465.1406,597.9375 464.5,598.0781 Q463.8594,598.2344 463.1563,598.2344 Q460.6563,598.2344 459.3281,596.5938 Q458.0156,594.9375 458.0156,591.8125 Q458.0156,588.6875 459.3281,587.0313 Q460.6563,585.375 463.1563,585.375 Q463.8594,585.375 464.5,585.5313 Q465.1563,585.6875 465.7188,585.9844 L465.7188,588.7031 Q465.0938,588.125 464.5,587.8594 Q463.9063,587.5781 463.2813,587.5781 Q461.9375,587.5781 461.25,588.6563 Q460.5625,589.7188 460.5625,591.8125 Q460.5625,593.9063 461.25,594.9844 Q461.9375,596.0469 463.2813,596.0469 Q463.9063,596.0469 464.5,595.7813 Q465.0938,595.5 465.7188,594.9219 L465.7188,597.6406 Z "/><text fill="#000000" font-family="sans-serif" font-size="12" lengthAdjust="spacingAndGlyphs" textLength="84" x="483.25" y="596.656">DeclarationList</text><line style="stroke: #A80036; stroke-width: 1.5;" x1="351.5" x2="666.5" y1="608" y2="608"/><rect fill="none" height="6" style="stroke: #C82930; stroke-width: 1.0;" width="6" x="358.5" y="616"/><text fill="#000000" font-family="sans-serif" font-size="11" lengthAdjust="spacingAndGlyphs" textLength="103" x="370.5" y="623.7589">type: []*Declaration</text><line style="stroke: #A80036; stroke-width: 1.5;" x1="351.5" x2="666.5" y1="630.9819" y2="630.9819"/><ellipse cx="361.5" cy="641.9819" fill="#84BE84" rx="3" ry="3" style="stroke: #038048; stroke-width: 1.0;"/><text fill="#000000" font-family="sans-serif" font-size="11" lengthAdjust="spacingAndGlyphs" textLength="134" x="370.5" y="646.7408">Exported () []*Declaration</text><ellipse cx="361.5" cy="656.9638" fill="#84BE84" rx="3" ry="3" style="stroke: #038048; stroke-width: 1.0;"/><text fill="#000000" font-family="sans-serif" font-size="11" lengthAdjust="spacingAndGlyphs" textLength="291" x="370.5" y="661.7227">Filter (matchfn func(d *Declaration) bool) []*Declaration</text><ellipse cx="361.5" cy="671.9457" fill="#84BE84" rx="3" ry="3" style="stroke: #038048; stroke-width: 1.0;"/><text fill="#000000" font-family="sans-serif" font-size="11" lengthAdjust="spacingAndGlyphs" textLength="279" x="370.5" y="676.7046">Find (matchfn func(d *Declaration) bool) *Declaration</text><!--MD5=[af22135d5be6ed11ccd2d02fa51653b3]
class Definition--><rect fill="#FEFECE" filter="url(#f1r9h8398rf5fp)" height="137.8913" id="Definition" style="stroke: #A80036; stroke-width: 1.5;" width="145" x="359.5" y="359"/><ellipse cx="401.05" cy="375" fill="#ADD1B2" rx="11" ry="11" style="stroke: #A80036; stroke-width: 1.0;"/><path d="M404.0188,380.6406 Q403.4406,380.9375 402.8,381.0781 Q402.1594,381.2344 401.4563,381.2344 Q398.9563,381.2344 397.6281,379.5938 Q396.3156,377.9375 396.3156,374.8125 Q396.3156,371.6875 397.6281,370.0313 Q398.9563,368.375 401.4563,368.375 Q402.1594,368.375 402.8,368.5313 Q403.4563,368.6875 404.0188,368.9844 L404.0188,371.7031 Q403.3938,371.125 402.8,370.8594 Q402.2063,370.5781 401.5813,370.5781 Q400.2375,370.5781 399.55,371.6563 Q398.8625,372.7188 398.8625,374.8125 Q398.8625,376.9063 399.55,377.9844 Q400.2375,379.0469 401.5813,379.0469 Q402.2063,379.0469 402.8,378.7813 Q403.3938,378.5 404.0188,377.9219 L404.0188,380.6406 Z "/><text fill="#000000" font-family="sans-serif" font-size="12" lengthAdjust="spacingAndGlyphs" textLength="54" x="420.95" y="379.656">Definition</text><line style="stroke: #A80036; stroke-width: 1.5;" x1="360.5" x2="503.5" y1="391" y2="391"/><ellipse cx="370.5" cy="402" fill="none" rx="3" ry="3" style="stroke: #038048; stroke-width: 1.0;"/><text fill="#000000" font-family="sans-serif" font-size="11" lengthAdjust="spacingAndGlyphs" textLength="57" x="379.5" y="406.7589">Doc: string</text><ellipse cx="370.5" cy="416.9819" fill="none" rx="3" ry="3" style="stroke: #038048; stroke-width: 1.0;"/><text fill="#000000" font-family="sans-serif" font-size="11" lengthAdjust="spacingAndGlyphs" textLength="96" x="379.5" y="421.7408">Imports: StringSet</text><ellipse cx="370.5" cy="431.9638" fill="none" rx="3" ry="3" style="stroke: #038048; stroke-width: 1.0;"/><text fill="#000000" font-family="sans-serif" font-size="11" lengthAdjust="spacingAndGlyphs" textLength="114" x="379.5" y="436.7227">Types: DeclarationList</text><ellipse cx="370.5" cy="446.9457" fill="none" rx="3" ry="3" style="stroke: #038048; stroke-width: 1.0;"/><text fill="#000000" font-family="sans-serif" font-size="11" lengthAdjust="spacingAndGlyphs" textLength="119" x="379.5" y="451.7046">Consts: DeclarationList</text><ellipse cx="370.5" cy="461.9276" fill="none" rx="3" ry="3" style="stroke: #038048; stroke-width: 1.0;"/><text fill="#000000" font-family="sans-serif" font-size="11" lengthAdjust="spacingAndGlyphs" textLength="107" x="379.5" y="466.6865">Vars: DeclarationList</text><ellipse cx="370.5" cy="476.9094" fill="none" rx="3" ry="3" style="stroke: #038048; stroke-width: 1.0;"/><text fill="#000000" font-family="sans-serif" font-size="11" lengthAdjust="spacingAndGlyphs" textLength="114" x="379.5" y="481.6684">Funcs: DeclarationList</text><line style="stroke: #A80036; stroke-width: 1.5;" x1="360.5" x2="503.5" y1="488.8913" y2="488.8913"/><!--MD5=[d9427b671d7d049aff2d6f2fe36a13b3]
class Field--><rect fill="#FEFECE" filter="url(#f1r9h8398rf5fp)" height="167.8551" id="Field" style="stroke: #A80036; stroke-width: 1.5;" width="119" x="367.5" y="1302"/><ellipse cx="409.95" cy="1318" fill="#ADD1B2" rx="11" ry="11" style="stroke: #A80036; stroke-width: 1.0;"/><path d="M412.9188,1323.6406 Q412.3406,1323.9375 411.7,1324.0781 Q411.0594,1324.2344 410.3563,1324.2344 Q407.8563,1324.2344 406.5281,1322.5938 Q405.2156,1320.9375 405.2156,1317.8125 Q405.2156,1314.6875 406.5281,1313.0313 Q407.8563,1311.375 410.3563,1311.375 Q411.0594,1311.375 411.7,1311.5313 Q412.3563,1311.6875 412.9188,1311.9844 L412.9188,1314.7031 Q412.2938,1314.125 411.7,1313.8594 Q411.1063,1313.5781 410.4813,1313.5781 Q409.1375,1313.5781 408.45,1314.6563 Q407.7625,1315.7188 407.7625,1317.8125 Q407.7625,1319.9063 408.45,1320.9844 Q409.1375,1322.0469 410.4813,1322.0469 Q411.1063,1322.0469 411.7,1321.7813 Q412.2938,1321.5 412.9188,1320.9219 L412.9188,1323.6406 Z "/><text fill="#000000" font-family="sans-serif" font-size="12" lengthAdjust="spacingAndGlyphs" textLength="26" x="430.05" y="1322.656">Field</text><line style="stroke: #A80036; stroke-width: 1.5;" x1="368.5" x2="485.5" y1="1334" y2="1334"/><ellipse cx="378.5" cy="1345" fill="none" rx="3" ry="3" style="stroke: #038048; stroke-width: 1.0;"/><text fill="#000000" font-family="sans-serif" font-size="11" lengthAdjust="spacingAndGlyphs" textLength="67" x="387.5" y="1349.7589">Name: string</text><ellipse cx="378.5" cy="1359.9819" fill="none" rx="3" ry="3" style="stroke: #038048; stroke-width: 1.0;"/><text fill="#000000" font-family="sans-serif" font-size="11" lengthAdjust="spacingAndGlyphs" textLength="62" x="387.5" y="1364.7408">Type: string</text><ellipse cx="378.5" cy="1374.9638" fill="none" rx="3" ry="3" style="stroke: #038048; stroke-width: 1.0;"/><text fill="#000000" font-family="sans-serif" font-size="11" lengthAdjust="spacingAndGlyphs" textLength="61" x="387.5" y="1379.7227">Path: string</text><ellipse cx="378.5" cy="1389.9457" fill="none" rx="3" ry="3" style="stroke: #038048; stroke-width: 1.0;"/><text fill="#000000" font-family="sans-serif" font-size="11" lengthAdjust="spacingAndGlyphs" textLength="57" x="387.5" y="1394.7046">Doc: string</text><ellipse cx="378.5" cy="1404.9276" fill="none" rx="3" ry="3" style="stroke: #038048; stroke-width: 1.0;"/><text fill="#000000" font-family="sans-serif" font-size="11" lengthAdjust="spacingAndGlyphs" textLength="88" x="387.5" y="1409.6865">Comment: string</text><ellipse cx="378.5" cy="1419.9094" fill="none" rx="3" ry="3" style="stroke: #038048; stroke-width: 1.0;"/><text fill="#000000" font-family="sans-serif" font-size="11" lengthAdjust="spacingAndGlyphs" textLength="56" x="387.5" y="1424.6684">Tag: string</text><ellipse cx="378.5" cy="1434.8913" fill="none" rx="3" ry="3" style="stroke: #038048; stroke-width: 1.0;"/><text fill="#000000" font-family="sans-serif" font-size="11" lengthAdjust="spacingAndGlyphs" textLength="93" x="387.5" y="1439.6502">JSONName: string</text><ellipse cx="378.5" cy="1449.8732" fill="none" rx="3" ry="3" style="stroke: #038048; stroke-width: 1.0;"/><text fill="#000000" font-family="sans-serif" font-size="11" lengthAdjust="spacingAndGlyphs" textLength="79" x="387.5" y="1454.6321">MapKey: string</text><line style="stroke: #A80036; stroke-width: 1.5;" x1="368.5" x2="485.5" y1="1461.8551" y2="1461.8551"/><!--MD5=[898b628376ee89e7bc81c09a0d440f56]
class FieldList--><rect fill="#FEFECE" filter="url(#f1r9h8398rf5fp)" height="62.9819" id="FieldList" style="stroke: #A80036; stroke-width: 1.5;" width="94" x="704" y="1145"/><ellipse cx="726.65" cy="1161" fill="#ADD1B2" rx="11" ry="11" style="stroke: #A80036; stroke-width: 1.0;"/><path d="M729.6188,1166.6406 Q729.0406,1166.9375 728.4,1167.0781 Q727.7594,1167.2344 727.0563,1167.2344 Q724.5563,1167.2344 723.2281,1165.5938 Q721.9156,1163.9375 721.9156,1160.8125 Q721.9156,1157.6875 723.2281,1156.0313 Q724.5563,1154.375 727.0563,1154.375 Q727.7594,1154.375 728.4,1154.5313 Q729.0563,1154.6875 729.6188,1154.9844 L729.6188,1157.7031 Q728.9938,1157.125 728.4,1156.8594 Q727.8063,1156.5781 727.1813,1156.5781 Q725.8375,1156.5781 725.15,1157.6563 Q724.4625,1158.7188 724.4625,1160.8125 Q724.4625,1162.9063 725.15,1163.9844 Q725.8375,1165.0469 727.1813,1165.0469 Q727.8063,1165.0469 728.4,1164.7813 Q728.9938,1164.5 729.6188,1163.9219 L729.6188,1166.6406 Z "/><text fill="#000000" font-family="sans-serif" font-size="12" lengthAdjust="spacingAndGlyphs" textLength="45" x="742.35" y="1165.656">FieldList</text><line style="stroke: #A80036; stroke-width: 1.5;" x1="705" x2="797" y1="1177" y2="1177"/><rect fill="none" height="6" style="stroke: #C82930; stroke-width: 1.0;" width="6" x="712" y="1185"/><text fill="#000000" font-family="sans-serif" font-size="11" lengthAdjust="spacingAndGlyphs" textLength="68" x="724" y="1192.7589">type: []*Field</text><line style="stroke: #A80036; stroke-width: 1.5;" x1="705" x2="797" y1="1199.9819" y2="1199.9819"/><!--MD5=[4e2ad48a1abc117fdc6f339da0f64213]
class Package--><rect fill="#FEFECE" filter="url(#f1r9h8398rf5fp)" height="182.837" id="Package" style="stroke: #A80036; stroke-width: 1.5;" width="152" x="178" y="97"/><ellipse cx="226.25" cy="113" fill="#ADD1B2" rx="11" ry="11" style="stroke: #A80036; stroke-width: 1.0;"/><path d="M229.2188,118.6406 Q228.6406,118.9375 228,119.0781 Q227.3594,119.2344 226.6563,119.2344 Q224.1563,119.2344 222.8281,117.5938 Q221.5156,115.9375 221.5156,112.8125 Q221.5156,109.6875 222.8281,108.0313 Q224.1563,106.375 226.6563,106.375 Q227.3594,106.375 228,106.5313 Q228.6563,106.6875 229.2188,106.9844 L229.2188,109.7031 Q228.5938,109.125 228,108.8594 Q227.4063,108.5781 226.7813,108.5781 Q225.4375,108.5781 224.75,109.6563 Q224.0625,110.7188 224.0625,112.8125 Q224.0625,114.9063 224.75,115.9844 Q225.4375,117.0469 226.7813,117.0469 Q227.4063,117.0469 228,116.7813 Q228.5938,116.5 229.2188,115.9219 L229.2188,118.6406 Z "/><text fill="#000000" font-family="sans-serif" font-size="12" lengthAdjust="spacingAndGlyphs" textLength="47" x="246.75" y="117.656">Package</text><line style="stroke: #A80036; stroke-width: 1.5;" x1="179" x2="329" y1="129" y2="129"/><ellipse cx="189" cy="140" fill="none" rx="3" ry="3" style="stroke: #038048; stroke-width: 1.0;"/><text fill="#000000" font-family="sans-serif" font-size="11" lengthAdjust="spacingAndGlyphs" textLength="49" x="198" y="144.7589">ID: string</text><ellipse cx="189" cy="154.9819" fill="none" rx="3" ry="3" style="stroke: #038048; stroke-width: 1.0;"/><text fill="#000000" font-family="sans-serif" font-size="11" lengthAdjust="spacingAndGlyphs" textLength="80" x="198" y="159.7408">Package: string</text><ellipse cx="189" cy="169.9638" fill="none" rx="3" ry="3" style="stroke: #038048; stroke-width: 1.0;"/><text fill="#000000" font-family="sans-serif" font-size="11" lengthAdjust="spacingAndGlyphs" textLength="98" x="198" y="174.7227">ImportPath: string</text><ellipse cx="189" cy="184.9457" fill="none" rx="3" ry="3" style="stroke: #038048; stroke-width: 1.0;"/><text fill="#000000" font-family="sans-serif" font-size="11" lengthAdjust="spacingAndGlyphs" textLength="61" x="198" y="189.7046">Path: string</text><ellipse cx="189" cy="199.9276" fill="none" rx="3" ry="3" style="stroke: #038048; stroke-width: 1.0;"/><text fill="#000000" font-family="sans-serif" font-size="11" lengthAdjust="spacingAndGlyphs" textLength="94" x="198" y="204.6865">TestPackage: bool</text><ellipse cx="189" cy="214.9094" fill="none" rx="3" ry="3" style="stroke: #038048; stroke-width: 1.0;"/><text fill="#000000" font-family="sans-serif" font-size="11" lengthAdjust="spacingAndGlyphs" textLength="126" x="198" y="219.6684">Pkg: *packages.Package</text><line style="stroke: #A80036; stroke-width: 1.5;" x1="179" x2="329" y1="226.8913" y2="226.8913"/><ellipse cx="189" cy="237.8913" fill="#84BE84" rx="3" ry="3" style="stroke: #038048; stroke-width: 1.0;"/><text fill="#000000" font-family="sans-serif" font-size="11" lengthAdjust="spacingAndGlyphs" textLength="121" x="198" y="242.6502">Equal (in Package) bool</text><ellipse cx="189" cy="252.8732" fill="#84BE84" rx="3" ry="3" style="stroke: #038048; stroke-width: 1.0;"/><text fill="#000000" font-family="sans-serif" font-size="11" lengthAdjust="spacingAndGlyphs" textLength="73" x="198" y="257.6321">Name () string</text><ellipse cx="189" cy="267.8551" fill="#84BE84" rx="3" ry="3" style="stroke: #038048; stroke-width: 1.0;"/><text fill="#000000" font-family="sans-serif" font-size="11" lengthAdjust="spacingAndGlyphs" textLength="75" x="198" y="272.614">String () string</text><!--MD5=[87fbbd40529fac58103832b10b21b03a]
class StringSet--><rect fill="#FEFECE" filter="url(#f1r9h8398rf5fp)" height="107.9276" id="StringSet" style="stroke: #A80036; stroke-width: 1.5;" width="202" x="89" y="576"/><ellipse cx="160.25" cy="592" fill="#ADD1B2" rx="11" ry="11" style="stroke: #A80036; stroke-width: 1.0;"/><path d="M163.2188,597.6406 Q162.6406,597.9375 162,598.0781 Q161.3594,598.2344 160.6563,598.2344 Q158.1563,598.2344 156.8281,596.5938 Q155.5156,594.9375 155.5156,591.8125 Q155.5156,588.6875 156.8281,587.0313 Q158.1563,585.375 160.6563,585.375 Q161.3594,585.375 162,585.5313 Q162.6563,585.6875 163.2188,585.9844 L163.2188,588.7031 Q162.5938,588.125 162,587.8594 Q161.4063,587.5781 160.7813,587.5781 Q159.4375,587.5781 158.75,588.6563 Q158.0625,589.7188 158.0625,591.8125 Q158.0625,593.9063 158.75,594.9844 Q159.4375,596.0469 160.7813,596.0469 Q161.4063,596.0469 162,595.7813 Q162.5938,595.5 163.2188,594.9219 L163.2188,597.6406 Z "/><text fill="#000000" font-family="sans-serif" font-size="12" lengthAdjust="spacingAndGlyphs" textLength="51" x="180.75" y="596.656">StringSet</text><line style="stroke: #A80036; stroke-width: 1.5;" x1="90" x2="290" y1="608" y2="608"/><rect fill="none" height="6" style="stroke: #C82930; stroke-width: 1.0;" width="6" x="97" y="616"/><text fill="#000000" font-family="sans-serif" font-size="11" lengthAdjust="spacingAndGlyphs" textLength="130" x="109" y="623.7589">type: map[string][]string</text><line style="stroke: #A80036; stroke-width: 1.5;" x1="90" x2="290" y1="630.9819" y2="630.9819"/><ellipse cx="100" cy="641.9819" fill="#84BE84" rx="3" ry="3" style="stroke: #038048; stroke-width: 1.0;"/><text fill="#000000" font-family="sans-serif" font-size="11" lengthAdjust="spacingAndGlyphs" textLength="64" x="109" y="646.7408">All () []string</text><ellipse cx="100" cy="656.9638" fill="#84BE84" rx="3" ry="3" style="stroke: #038048; stroke-width: 1.0;"/><text fill="#000000" font-family="sans-serif" font-size="11" lengthAdjust="spacingAndGlyphs" textLength="121" x="109" y="661.7227">Get (key string) []string</text><ellipse cx="100" cy="671.9457" fill="#84BE84" rx="3" ry="3" style="stroke: #038048; stroke-width: 1.0;"/><text fill="#000000" font-family="sans-serif" font-size="11" lengthAdjust="spacingAndGlyphs" textLength="176" x="109" y="676.7046">Map () (map[string]string, []error)</text><path d="M702.5,616 L702.5,643.706 L1019.5,643.706 L1019.5,626 L1009.5,616 L702.5,616 " fill="#FBFB77" filter="url(#f1r9h8398rf5fp)" style="stroke: #A80036; stroke-width: 1.0;"/><path d="M1009.5,616 L1009.5,626 L1019.5,626 L1009.5,616 " fill="#FBFB77" style="stroke: #A80036; stroke-width: 1.0;"/><text fill="#000000" font-family="sans-serif" font-size="13" lengthAdjust="spacingAndGlyphs" textLength="296" x="708.5" y="634.897">Declaration holds information about a go symbol.</text><path d="M17,893 L17,920.706 A0,0 0 0 0 17,920.706 L165,920.706 L169,1137.17 L173,920.706 L321,920.706 A0,0 0 0 0 321,920.706 L321,903 L311,893 L17,893 A0,0 0 0 0 17,893 " fill="#FBFB77" filter="url(#f1r9h8398rf5fp)" style="stroke: #A80036; stroke-width: 1.0;"/><path d="M311,893 L311,903 L321,903 L311,893 " fill="#FBFB77" style="stroke: #A80036; stroke-width: 1.0;"/><text fill="#000000" font-family="sans-serif" font-size="13" lengthAdjust="spacingAndGlyphs" textLength="283" x="23" y="911.897">DeclarationKind is an enum of go symbol types.</text><path d="M539.5,414 L539.5,441.706 A0,0 0 0 0 539.5,441.706 L658.24,441.706 L552.5,575.95 L666.24,441.706 L806.5,441.706 A0,0 0 0 0 806.5,441.706 L806.5,424 L796.5,414 L539.5,414 A0,0 0 0 0 539.5,414 " fill="#FBFB77" filter="url(#f1r9h8398rf5fp)" style="stroke: #A80036; stroke-width: 1.0;"/><path d="M796.5,414 L796.5,424 L806.5,424 L796.5,414 " fill="#FBFB77" style="stroke: #A80036; stroke-width: 1.0;"/><text fill="#000000" font-family="sans-serif" font-size="13" lengthAdjust="spacingAndGlyphs" textLength="246" x="545.5" y="432.897">DeclarationList holds a list of Go symbols.</text><path d="M365,174.5 L365,202.206 A0,0 0 0 0 365,202.206 L514.92,202.206 L458.34,359 L522.92,202.206 L683,202.206 A0,0 0 0 0 683,202.206 L683,184.5 L673,174.5 L365,174.5 A0,0 0 0 0 365,174.5 " fill="#FBFB77" filter="url(#f1r9h8398rf5fp)" style="stroke: #A80036; stroke-width: 1.0;"/><path d="M673,174.5 L673,184.5 L683,184.5 L673,174.5 " fill="#FBFB77" style="stroke: #A80036; stroke-width: 1.0;"/><text fill="#000000" font-family="sans-serif" font-size="13" lengthAdjust="spacingAndGlyphs" textLength="297" x="371" y="193.397">Definition holds all symbols defined for a Package.</text><path d="M264.5,1162.5 L264.5,1190.206 A0,0 0 0 0 264.5,1190.206 L395.86,1190.206 L415.37,1301.8 L403.86,1190.206 L531.5,1190.206 A0,0 0 0 0 531.5,1190.206 L531.5,1172.5 L521.5,1162.5 L264.5,1162.5 A0,0 0 0 0 264.5,1162.5 " fill="#FBFB77" filter="url(#f1r9h8398rf5fp)" style="stroke: #A80036; stroke-width: 1.0;"/><path d="M521.5,1162.5 L521.5,1172.5 L531.5,1172.5 L521.5,1162.5 " fill="#FBFB77" style="stroke: #A80036; stroke-width: 1.0;"/><text fill="#000000" font-family="sans-serif" font-size="13" lengthAdjust="spacingAndGlyphs" textLength="246" x="270.5" y="1181.397">Field holds details about a field definition.</text><path d="M719.5,893 L719.5,920.706 L934.5,920.706 L934.5,903 L924.5,893 L719.5,893 " fill="#FBFB77" filter="url(#f1r9h8398rf5fp)" style="stroke: #A80036; stroke-width: 1.0;"/><path d="M924.5,893 L924.5,903 L934.5,903 L924.5,893 " fill="#FBFB77" style="stroke: #A80036; stroke-width: 1.0;"/><text fill="#000000" font-family="sans-serif" font-size="13" lengthAdjust="spacingAndGlyphs" textLength="194" x="725.5" y="911.897">FieldList contains all struct fields.</text><path d="M126,8 L126,35.706 A0,0 0 0 0 126,35.706 L250,35.706 L254,96.85 L258,35.706 L382,35.706 A0,0 0 0 0 382,35.706 L382,18 L372,8 L126,8 A0,0 0 0 0 126,8 " fill="#FBFB77" filter="url(#f1r9h8398rf5fp)" style="stroke: #A80036; stroke-width: 1.0;"/><path d="M372,8 L372,18 L382,18 L372,8 " fill="#FBFB77" style="stroke: #A80036; stroke-width: 1.0;"/><text fill="#000000" font-family="sans-serif" font-size="13" lengthAdjust="spacingAndGlyphs" textLength="235" x="132" y="26.897">Package holds go package information.</text><path d="M6,414 L6,441.706 A0,0 0 0 0 6,441.706 L162.64,441.706 L183.37,575.95 L170.64,441.706 L324,441.706 A0,0 0 0 0 324,441.706 L324,424 L314,414 L6,414 A0,0 0 0 0 6,414 " fill="#FBFB77" filter="url(#f1r9h8398rf5fp)" style="stroke: #A80036; stroke-width: 1.0;"/><path d="M314,414 L314,424 L324,424 L314,414 " fill="#FBFB77" style="stroke: #A80036; stroke-width: 1.0;"/><text fill="#000000" font-family="sans-serif" font-size="13" lengthAdjust="spacingAndGlyphs" textLength="297" x="12" y="432.897">StringSet provides a key based unique string slice.</text><!--MD5=[d9f78b9da14621c57381f59b7c8a7fdc]
link Declaration to DeclarationKind--><path d="M493.96,968.53 C414.28,1019.28 302.69,1090.35 233.18,1134.62 " fill="none" id="Declaration-&gt;DeclarationKind" style="stroke: #A80036; stroke-width: 1.0;"/><polygon fill="#A80036" points="228.67,1137.5,238.4095,1136.0364,232.8865,1134.8128,234.1101,1129.2899,228.67,1137.5" style="stroke: #A80036; stroke-width: 1.0;"/><text fill="#000000" font-family="sans-serif" font-size="13" lengthAdjust="spacingAndGlyphs" textLength="27" x="318" y="1095.897">Kind</text><!--MD5=[fb26886f863d0c2d14a29bb11a9c8f0c]
link Declaration to FieldList--><path d="M675.69,1051.15 C695.86,1084.45 715.56,1116.98 729.75,1140.41 " fill="none" id="Declaration-&gt;FieldList" style="stroke: #A80036; stroke-width: 1.0;"/><polygon fill="#A80036" points="732.51,1144.97,731.2856,1135.1975,729.927,1140.6888,724.4357,1139.3303,732.51,1144.97" style="stroke: #A80036; stroke-width: 1.0;"/><text fill="#000000" font-family="sans-serif" font-size="13" lengthAdjust="spacingAndGlyphs" textLength="34" x="704" y="1095.897">Fields</text><!--MD5=[7e615e84b3537c1680515fc501ba3940]
link Declaration to Complexity--><path d="M604.52,1051.15 C607.39,1077.6 610.2,1103.55 612.51,1124.85 " fill="none" id="Declaration-&gt;Complexity" style="stroke: #A80036; stroke-width: 1.0;"/><polygon fill="#A80036" points="613.05,1129.89,616.076,1120.5175,612.5214,1124.918,608.1209,1121.3633,613.05,1129.89" style="stroke: #A80036; stroke-width: 1.0;"/><text fill="#000000" font-family="sans-serif" font-size="13" lengthAdjust="spacingAndGlyphs" textLength="68" x="610" y="1095.897">Complexity</text><!--MD5=[ca8ed51628b5a8f08cd2666defba5d2f]
link GMN14 to Declaration--><path d="M842.79,644.14 C812.1,666.69 748.86,714.99 702,763 C696.03,769.11 690.07,775.53 684.17,782.11 " fill="none" id="GMN14-Declaration" style="stroke: #A80036; stroke-width: 1.0; stroke-dasharray: 7.0,7.0;"/><!--MD5=[b9041fe517dc0921b8f46db285911730]
link DeclarationList to Declaration--><path d="M603.25,684.25 C612.34,693.03 620.28,702.94 626,714 C633.07,727.68 636.47,742.55 637.28,757.74 " fill="none" id="DeclarationList-&gt;Declaration" style="stroke: #A80036; stroke-width: 1.0;"/><polygon fill="#A80036" points="637.46,762.91,641.1493,753.7782,637.2887,757.9129,633.154,754.0523,637.46,762.91" style="stroke: #A80036; stroke-width: 1.0;"/><text fill="#000000" font-family="sans-serif" font-size="13" lengthAdjust="spacingAndGlyphs" textLength="27" x="632" y="728.897">type</text><!--MD5=[b9041fe517dc0921b8f46db285911730]
link DeclarationList to Declaration--><path d="M412.73,684.19 C399.61,698.34 393.02,714.81 401,733 C419.75,775.74 454.85,812.57 489.69,841.13 " fill="none" id="DeclarationList-&gt;Declaration-1" style="stroke: #A80036; stroke-width: 1.0;"/><polygon fill="#A80036" points="493.93,844.57,489.4637,835.7921,490.0481,841.4187,484.4215,842.0031,493.93,844.57" style="stroke: #A80036; stroke-width: 1.0;"/><text fill="#000000" font-family="sans-serif" font-size="13" lengthAdjust="spacingAndGlyphs" textLength="63" x="402" y="728.897">Exported()</text><!--MD5=[b9041fe517dc0921b8f46db285911730]
link DeclarationList to Declaration--><path d="M502.4,684.17 C501.78,700.04 502.44,717.37 506,733 C507.87,741.2 510.17,749.47 512.81,757.72 " fill="none" id="DeclarationList-&gt;Declaration-2" style="stroke: #A80036; stroke-width: 1.0;"/><polygon fill="#A80036" points="514.5,762.84,515.5018,753.0422,512.9446,758.0881,507.8987,755.5309,514.5,762.84" style="stroke: #A80036; stroke-width: 1.0;"/><text fill="#000000" font-family="sans-serif" font-size="13" lengthAdjust="spacingAndGlyphs" textLength="38" x="507" y="728.897">Filter()</text><!--MD5=[b9041fe517dc0921b8f46db285911730]
link DeclarationList to Declaration--><path d="M537.77,684.16 C542.31,693.9 546.62,704.12 550,714 C554.8,728.02 559.09,742.84 562.91,757.76 " fill="none" id="DeclarationList-&gt;Declaration-3" style="stroke: #A80036; stroke-width: 1.0;"/><polygon fill="#A80036" points="564.19,762.83,565.8609,753.1239,562.9639,757.9827,558.1052,755.0857,564.19,762.83" style="stroke: #A80036; stroke-width: 1.0;"/><text fill="#000000" font-family="sans-serif" font-size="13" lengthAdjust="spacingAndGlyphs" textLength="34" x="555" y="728.897">Find()</text><!--MD5=[da7bc372dee29211e58209bfeeaf8008]
link Package to Definition--><path d="M322.06,280.31 C337.39,300.77 353.61,322.4 368.73,342.59 " fill="none" id="Package-&gt;Definition" style="stroke: #A80036; stroke-width: 1.0;"/><polygon fill="none" points="374.48,338.58,380.87,358.78,363.27,346.97,374.48,338.58" style="stroke: #A80036; stroke-width: 1.0;"/><text fill="#000000" font-family="sans-serif" font-size="13" lengthAdjust="spacingAndGlyphs" textLength="75" x="355" y="324.897">embeded by</text><!--MD5=[f7f4336b1fb381e3517df5c361285d48]
link Definition to StringSet--><path d="M359.39,489.01 C327.41,515.43 290.04,546.32 258.54,572.35 " fill="none" id="Definition-&gt;StringSet" style="stroke: #A80036; stroke-width: 1.0;"/><polygon fill="#A80036" points="254.34,575.83,263.8216,573.1655,258.1893,572.6389,258.7159,567.0067,254.34,575.83" style="stroke: #A80036; stroke-width: 1.0;"/><text fill="#000000" font-family="sans-serif" font-size="13" lengthAdjust="spacingAndGlyphs" textLength="48" x="312" y="541.897">Imports</text><!--MD5=[31480ef542df25c1d1f73cd61f470346]
link Definition to DeclarationList--><path d="M421.07,497.18 C420.91,513.63 422.88,530.83 429,546 C432.6,554.93 437.67,563.43 443.54,571.35 " fill="none" id="Definition-&gt;DeclarationList" style="stroke: #A80036; stroke-width: 1.0;"/><polygon fill="#A80036" points="446.87,575.69,444.5548,566.1171,443.8221,571.7263,438.2129,570.9937,446.87,575.69" style="stroke: #A80036; stroke-width: 1.0;"/><text fill="#000000" font-family="sans-serif" font-size="13" lengthAdjust="spacingAndGlyphs" textLength="35" x="430" y="541.897">Types</text><!--MD5=[31480ef542df25c1d1f73cd61f470346]
link Definition to DeclarationList--><path d="M458.51,497.26 C462.37,507.23 466.3,517.38 470,527 C475.48,541.23 481.36,556.58 486.86,570.95 " fill="none" id="Definition-&gt;DeclarationList-1" style="stroke: #A80036; stroke-width: 1.0;"/><polygon fill="#A80036" points="488.7,575.78,489.2227,565.945,486.9147,571.1096,481.7501,568.8015,488.7,575.78" style="stroke: #A80036; stroke-width: 1.0;"/><text fill="#000000" font-family="sans-serif" font-size="13" lengthAdjust="spacingAndGlyphs" textLength="41" x="478" y="541.897">Consts</text><!--MD5=[31480ef542df25c1d1f73cd61f470346]
link Definition to DeclarationList--><path d="M504.69,489.55 C514.18,500.94 522.51,513.55 528,527 C533.63,540.78 533.64,556.3 531.08,570.99 " fill="none" id="Definition-&gt;DeclarationList-2" style="stroke: #A80036; stroke-width: 1.0;"/><polygon fill="#A80036" points="530.11,575.94,535.7568,567.8707,531.0659,571.0322,527.9044,566.3413,530.11,575.94" style="stroke: #A80036; stroke-width: 1.0;"/><text fill="#000000" font-family="sans-serif" font-size="13" lengthAdjust="spacingAndGlyphs" textLength="26" x="534" y="541.897">Vars</text><!--MD5=[31480ef542df25c1d1f73cd61f470346]
link Definition to DeclarationList--><path d="M378.89,497.29 C372.34,513.49 370.53,530.55 379,546 C384.31,555.69 391.28,564.41 399.24,572.22 " fill="none" id="Definition-&gt;DeclarationList-3" style="stroke: #A80036; stroke-width: 1.0;"/><polygon fill="#A80036" points="403.23,575.98,399.4544,566.8836,399.6029,572.5385,393.948,572.687,403.23,575.98" style="stroke: #A80036; stroke-width: 1.0;"/><text fill="#000000" font-family="sans-serif" font-size="13" lengthAdjust="spacingAndGlyphs" textLength="35" x="380" y="541.897">Funcs</text><!--MD5=[fabba1097c2ca551039803dc215a06d2]
link FieldList to Field--><path d="M708.56,1208.21 C701.42,1213.23 694.03,1218.31 687,1223 C621.13,1266.88 543.98,1314.49 490.93,1346.66 " fill="none" id="FieldList-&gt;Field" style="stroke: #A80036; stroke-width: 1.0;"/><polygon fill="#A80036" points="486.51,1349.34,496.2806,1348.1011,490.7873,1346.7507,492.1378,1341.2574,486.51,1349.34" style="stroke: #A80036; stroke-width: 1.0;"/><text fill="#000000" font-family="sans-serif" font-size="13" lengthAdjust="spacingAndGlyphs" textLength="27" x="638" y="1267.897">type</text><!--MD5=[d8f32c4c1de70144c3b1343455780822]
link GMN40 to FieldList--><path d="M824.79,921.25 C819.37,952.73 804.28,1034.28 783,1100 C778.13,1115.03 771.47,1131.23 765.48,1144.74 " fill="none" id="GMN40-FieldList" style="stroke: #A80036; stroke-width: 1.0; stroke-dasharray: 7.0,7.0;"/><!--MD5=[a3b37e9751a1b96e7570e637fe1aca8d]
@startuml

class Complexity {
  + Cognitive: int
  + Cyclomatic: int
  + Lines: int
}

class Declaration {
  + Kind: DeclarationKind
  + Type: string
  + File: string
  + SelfContained: bool
  + Imports: []string
  + References: map[string][]string
  + Doc: string
  + Name: string
  + Names: []string
  + Receiver: string
  + Fields: FieldList
  + Arguments: []string
  + Returns: []string
  + Signature: string
  + Source: string
  + Complexity: *Complexity
}

class DeclarationKind {
  - type: string
  + String () string
}

class DeclarationList {
  - type: []*Declaration
  + Exported () []*Declaration
  + Filter (matchfn func(d *Declaration) bool) []*Declaration
  + Find (matchfn func(d *Declaration) bool) *Declaration
}

class Definition {
  + Doc: string
  + Imports: StringSet
  + Types: DeclarationList
  + Consts: DeclarationList
  + Vars: DeclarationList
  + Funcs: DeclarationList
}

class Field {
  + Name: string
  + Type: string
  + Path: string
  + Doc: string
  + Comment: string
  + Tag: string
  + JSONName: string
  + MapKey: string
}

class FieldList {
  - type: []*Field
}

class Package {
  + ID: string
  + Package: string
  + ImportPath: string
  + Path: string
  + TestPackage: bool
  + Pkg: *packages.Package
  + Equal (in Package) bool
  + Name () string
  + String () string
}

class StringSet {
  - type: map[string][]string
  + All () []string
  + Get (key string) []string
  + Map () (map[string]string, []error)
}


Declaration - -> DeclarationKind : Kind
Declaration - -> FieldList : Fields
Declaration - -> Complexity : Complexity

note top of Declaration
Declaration holds information about a go symbol.
end note



note top of DeclarationKind
DeclarationKind is an enum of go symbol types.
end note


DeclarationList - -> Declaration : type

note top of DeclarationList
DeclarationList holds a list of Go symbols.
end note


DeclarationList - -> Declaration : Exported()
DeclarationList - -> Declaration : Filter()
DeclarationList - -> Declaration : Find()
Package - -|> Definition : embeded by
Definition - -> StringSet : Imports
Definition - -> DeclarationList : Types
Definition - -> DeclarationList : Consts
Definition - -> DeclarationList : Vars
Definition - -> DeclarationList : Funcs

note top of Definition
Definition holds all symbols defined for a Package.
end note



note top of Field
Field holds details about a field definition.
end note


FieldList - -> Field : type

note top of FieldList
FieldList contains all struct fields.
end note



note top of Package
Package holds go package information.
end note



note top of StringSet
StringSet provides a key based unique string slice.
end note



@enduml

PlantUML version 1.2020.02(Sun Mar 01 11:22:07 CET 2020)
(GPL source distribution)
Java Runtime: OpenJDK Runtime Environment
JVM: OpenJDK 64-Bit Server VM
Java Version: 21.0.8+9-Ubuntu-0ubuntu125.04.1
Operating System: Linux
Default Encoding: UTF-8
Language: en
Country: US
--></g></svg>